<svg version="1.1" id="Layer_1" xmlns="http://www.w3.org/2000/svg" xmlns:xlink="http://www.w3.org/1999/xlink" x="0px" y="0px"
	 width="100%" viewBox="0 0 575 574" enable-background="new 0 0 575 574" xml:space="preserve">
<path fill="#FFFFFF" opacity="1.000000" stroke="none" 
	d="
M334.000000,575.000000 
	C222.666672,575.000000 111.833336,575.000000 1.000000,575.000000 
	C1.000000,383.666656 1.000000,192.333328 1.000000,1.000000 
	C192.666672,1.000000 384.333344,1.000000 576.000000,1.000000 
	C576.000000,192.333328 576.000000,383.666656 576.000000,575.000000 
	C495.500000,575.000000 415.000000,575.000000 334.000000,575.000000 
M390.433594,46.958645 
	C389.609070,46.460938 388.685242,46.075760 387.974792,45.448792 
	C375.603333,34.530418 361.378540,26.637568 346.130707,20.705046 
	C331.298065,14.934061 316.013428,10.741338 299.849030,10.985365 
	C293.851074,11.075913 287.840942,11.220968 281.853027,10.959350 
	C262.425110,10.110521 244.195892,15.141041 226.739807,22.846703 
	C195.001770,36.856861 170.418060,58.945293 152.890427,89.105301 
	C138.942703,113.105293 132.712799,138.985779 132.065933,166.397415 
	C131.700394,181.887070 132.000000,197.392395 132.000000,212.890671 
	C132.000000,214.498795 132.000000,216.106934 132.000000,218.000000 
	C129.368332,218.000000 127.230339,217.927567 125.098663,218.012970 
	C117.352783,218.323318 109.386330,217.643784 101.909470,219.240555 
	C84.794868,222.895538 70.193504,231.376801 59.752846,245.825272 
	C51.050987,257.867462 45.886799,271.102417 45.923279,286.360535 
	C46.095406,358.352112 45.999878,430.344269 46.000828,502.336243 
	C46.000847,503.835999 45.748165,505.393402 46.059910,506.826782 
	C50.040577,525.129395 58.261642,540.962402 73.747742,552.151001 
	C84.807846,560.141785 96.860580,565.123108 111.028656,565.102051 
	C231.181641,564.923462 351.334991,565.000793 471.488251,564.992249 
	C473.144867,564.992126 474.869995,565.155396 476.447571,564.769714 
	C493.135590,560.690186 507.404236,552.651001 517.792236,538.654663 
	C526.557556,526.844727 532.027710,513.813232 532.018799,498.787994 
	C531.976624,427.962555 531.929810,357.137024 532.047546,286.311798 
	C532.078491,267.731262 524.918213,252.104263 512.403625,239.136230 
	C498.915131,225.159012 481.998718,218.006516 462.338318,218.000275 
	C456.917084,217.998550 451.495880,218.000000 446.000000,218.000000 
	C446.000000,207.983139 445.982758,198.656937 446.003754,189.330841 
	C446.042419,172.192764 446.300995,155.060974 443.035980,138.094666 
	C439.040222,117.331062 431.448273,98.068329 419.872253,80.363144 
	C411.795868,68.010544 401.442627,57.676460 390.433594,46.958645 
z"/>
<path fill="#000000" opacity="1.000000" stroke="none" 
	d="
M390.698792,47.201050 
	C401.442627,57.676460 411.795868,68.010544 419.872253,80.363144 
	C431.448273,98.068329 439.040222,117.331062 443.035980,138.094666 
	C446.300995,155.060974 446.042419,172.192764 446.003754,189.330841 
	C445.982758,198.656937 446.000000,207.983139 446.000000,218.000000 
	C451.495880,218.000000 456.917084,217.998550 462.338318,218.000275 
	C481.998718,218.006516 498.915131,225.159012 512.403625,239.136230 
	C524.918213,252.104263 532.078491,267.731262 532.047546,286.311798 
	C531.929810,357.137024 531.976624,427.962555 532.018799,498.787994 
	C532.027710,513.813232 526.557556,526.844727 517.792236,538.654663 
	C507.404236,552.651001 493.135590,560.690186 476.447571,564.769714 
	C474.869995,565.155396 473.144867,564.992126 471.488251,564.992249 
	C351.334991,565.000793 231.181641,564.923462 111.028656,565.102051 
	C96.860580,565.123108 84.807846,560.141785 73.747742,552.151001 
	C58.261642,540.962402 50.040577,525.129395 46.059910,506.826782 
	C45.748165,505.393402 46.000847,503.835999 46.000828,502.336243 
	C45.999878,430.344269 46.095406,358.352112 45.923279,286.360535 
	C45.886799,271.102417 51.050987,257.867462 59.752846,245.825272 
	C70.193504,231.376801 84.794868,222.895538 101.909470,219.240555 
	C109.386330,217.643784 117.352783,218.323318 125.098663,218.012970 
	C127.230339,217.927567 129.368332,218.000000 132.000000,218.000000 
	C132.000000,216.106934 132.000000,214.498795 132.000000,212.890671 
	C132.000000,197.392395 131.700394,181.887070 132.065933,166.397415 
	C132.712799,138.985779 138.942703,113.105293 152.890427,89.105301 
	C170.418060,58.945293 195.001770,36.856861 226.739807,22.846703 
	C244.195892,15.141041 262.425110,10.110521 281.853027,10.959350 
	C287.840942,11.220968 293.851074,11.075913 299.849030,10.985365 
	C316.013428,10.741338 331.298065,14.934061 346.130707,20.705046 
	C361.378540,26.637568 375.603333,34.530418 387.974792,45.448792 
	C388.685242,46.075760 389.609070,46.460938 390.698792,47.201050 
M326.941101,369.005615 
	C331.673035,368.658966 336.406799,368.010559 341.136505,368.038696 
	C347.697052,368.077728 354.272858,368.432617 360.804291,369.051483 
	C363.324402,369.290253 365.740997,370.622284 368.204742,371.456238 
	C368.282593,372.112885 368.360443,372.769531 368.438263,373.426147 
	C349.718811,379.934784 330.999359,386.443390 311.303406,393.291565 
	C320.335388,394.302856 328.172943,394.353790 335.546204,396.229706 
	C343.516266,398.257446 351.211853,401.640533 358.735687,405.071594 
	C367.154816,408.910950 372.760193,417.296082 382.557739,419.403046 
	C387.618011,420.491272 390.808411,419.245728 393.680328,415.708282 
	C397.089294,411.509308 397.025269,406.481781 397.076813,401.366760 
	C397.150909,394.010040 398.255341,387.017273 403.902924,381.250275 
	C405.864655,379.247070 407.387695,375.093109 406.700104,372.581482 
	C405.346466,367.636749 403.220062,362.291229 399.783264,358.649994 
	C391.250214,349.609314 380.598053,346.320557 367.777222,347.779083 
	C350.912842,349.697693 336.496704,355.524597 324.778809,368.802856 
	C324.647156,369.138184 324.515503,369.473480 324.383820,369.808807 
	C324.947479,369.565826 325.511108,369.322876 326.941101,369.005615 
M317.929291,85.410286 
	C300.249451,79.689644 282.288422,78.882057 264.513885,84.135101 
	C245.166763,89.852890 229.540390,101.218117 217.984116,117.974319 
	C208.975998,131.035812 203.831039,145.580276 203.170731,161.259354 
	C202.428406,178.885635 202.993713,196.567261 203.013428,214.224792 
	C203.014816,215.475250 203.207626,216.725494 203.285141,217.659164 
	C260.788300,217.659164 317.839447,217.659164 374.000824,217.659164 
	C374.000824,196.751724 374.807220,176.143631 373.638245,155.648178 
	C373.106232,146.320282 369.948303,136.577621 365.745514,128.136353 
	C355.744507,108.049408 339.912872,93.703011 317.929291,85.410286 
M258.617188,334.094849 
	C261.327240,339.394592 262.509613,344.953522 261.600220,352.508179 
	C258.229431,350.134796 254.770111,348.909668 253.347443,346.488037 
	C247.158447,335.952972 237.302994,330.887756 226.414429,327.191437 
	C220.544220,325.198700 215.021744,325.552795 210.140213,330.162689 
	C208.892944,331.340546 206.626724,331.836151 204.792877,331.927521 
	C196.823196,332.324615 196.129211,332.882965 194.984283,340.597260 
	C194.083618,346.665924 190.988403,351.417664 186.022491,355.004517 
	C180.161301,359.237976 173.975845,363.071411 171.694672,370.717224 
	C169.263153,378.866882 168.346237,386.338287 174.758652,393.536987 
	C178.371338,397.592651 182.681320,401.313812 183.576340,407.705597 
	C184.178818,412.007996 187.931351,416.190491 192.741425,416.705017 
	C198.216095,417.290619 203.925812,416.901489 209.395416,416.049957 
	C219.783661,414.432831 228.185974,408.118591 237.268463,403.394104 
	C242.200943,400.828339 247.563553,399.724213 253.564468,402.923981 
	C252.436234,404.748474 251.761887,407.051910 250.228714,408.104828 
	C244.147125,412.281494 238.110626,416.731995 231.481033,419.859100 
	C217.809265,426.307831 205.607559,434.115662 199.209717,448.528625 
	C196.781158,453.999695 195.288864,460.235443 199.754791,464.910522 
	C204.249176,469.615387 205.706955,474.927612 207.136581,480.857483 
	C211.074295,497.190430 220.839310,503.044281 238.021332,498.510986 
	C246.333832,496.317902 254.591751,493.902618 262.890442,499.228394 
	C266.369293,501.460999 273.056000,499.568665 275.921234,496.519775 
	C286.148071,485.637360 288.607330,472.023285 288.863007,457.903992 
	C288.983368,451.258423 287.948975,444.542419 286.913757,437.940491 
	C286.026794,432.284363 284.392792,426.745392 283.089203,421.154602 
	C282.625305,421.199341 282.161407,421.244049 281.697510,421.288757 
	C281.131378,424.248169 280.848236,427.298126 279.936707,430.147034 
	C278.332428,435.160767 276.582336,440.162231 274.370728,444.926208 
	C273.711426,446.346344 271.307861,446.956787 269.703522,447.938232 
	C269.135712,446.325623 268.367554,444.750214 268.059296,443.089447 
	C267.779419,441.581726 268.000061,439.981079 268.000061,438.421417 
	C264.014618,446.016083 260.799438,453.857330 252.648453,458.613739 
	C249.358582,449.753754 254.159256,442.048096 254.293472,433.858978 
	C243.373886,441.479279 233.992111,450.718811 221.792191,457.945618 
	C224.959869,440.587250 234.938599,429.597931 246.913727,420.032349 
	C253.879929,414.467865 261.029144,409.132507 267.929413,403.822296 
	C252.549118,390.633362 234.936157,392.317902 216.059296,396.129364 
	C223.613602,386.217468 232.828873,382.039215 244.915710,380.591064 
	C241.217545,376.825104 238.360886,373.435608 235.008820,370.640167 
	C231.776199,367.944336 228.032166,365.861725 224.056137,363.204529 
	C238.234406,355.817047 257.532379,363.397766 274.363098,382.514191 
	C279.081360,359.010773 271.914703,337.335144 268.296051,314.611145 
	C278.655457,317.421936 282.416992,326.134827 286.781738,334.237610 
	C287.250671,334.229004 287.719574,334.220428 288.188477,334.211823 
	C290.090698,326.206665 291.992920,318.201477 294.014832,309.692505 
	C297.805939,312.093323 299.505981,316.261932 299.811279,320.202087 
	C300.438690,328.300781 299.991150,336.481995 300.013733,344.629150 
	C300.017822,346.099335 300.154388,347.569153 300.229797,349.039124 
	C302.983185,346.388123 304.330597,343.502563 306.054016,340.862427 
	C308.613129,336.941986 310.770294,332.360901 314.286896,329.545135 
	C322.044769,323.333374 325.954224,316.149048 324.016083,306.133728 
	C320.920441,290.137207 311.073273,278.481476 298.706909,269.162323 
	C290.544281,263.011047 274.660675,266.651306 266.202789,275.471008 
	C262.651855,279.173828 259.182220,280.079681 254.070511,279.835938 
	C241.967789,279.258759 235.333649,287.511353 238.934067,298.609802 
	C243.106918,311.472809 251.044647,322.265350 258.617188,334.094849 
M303.999939,450.664307 
	C304.333221,453.910248 305.231720,457.217896 304.885406,460.389648 
	C304.095154,467.627197 302.911865,474.841797 301.475464,481.982666 
	C300.291656,487.867554 303.512024,496.819550 308.617279,500.175629 
	C316.774139,505.537750 326.466248,504.777100 333.238281,500.404083 
	C335.283234,499.083557 338.049652,497.978943 340.363220,498.180420 
	C344.121368,498.507690 347.731354,500.251740 351.487793,500.939117 
	C361.033173,502.685822 370.077789,494.910004 369.938965,484.965546 
	C369.858704,479.218292 371.369934,474.431366 375.808197,470.587036 
	C377.105835,469.463013 378.473358,467.858917 378.801605,466.267151 
	C381.002441,455.595398 379.915710,445.462585 373.678131,436.103607 
	C367.678802,427.102112 358.822723,422.461731 349.052429,419.024445 
	C337.554169,414.979248 325.827515,412.175720 312.211548,411.927246 
	C321.637573,415.968536 329.338837,420.300262 334.654572,427.407349 
	C338.138184,432.064972 340.407806,437.676880 342.848022,443.031403 
	C343.362946,444.161285 342.251343,446.032471 341.889160,447.562042 
	C340.502228,447.116119 338.866150,446.995483 337.776733,446.161133 
	C334.920563,443.973541 332.406219,441.341553 329.563660,439.133850 
	C326.106995,436.449097 322.453857,434.017334 319.381226,431.829041 
	C320.113464,440.403290 320.812286,448.586578 321.511139,456.769836 
	C320.763580,457.057922 320.016022,457.346039 319.268433,457.634125 
	C313.350403,449.545288 307.432343,441.456451 301.514313,433.367615 
	C300.972748,433.671753 300.431213,433.975861 299.889648,434.279999 
	C301.259125,439.444855 302.628601,444.609711 303.999939,450.664307 
M292.029053,380.670410 
	C290.113220,384.525513 287.907745,388.273560 286.424194,392.288422 
	C285.831818,393.891632 286.832703,396.083588 287.108337,398.007538 
	C288.930298,397.640961 291.456818,397.899323 292.440948,396.789703 
	C295.295410,393.571167 298.168365,390.087280 299.897125,386.201660 
	C306.832001,370.615051 315.149200,355.995514 326.930603,343.491028 
	C329.709778,340.541290 332.044739,337.173035 334.584045,333.997284 
	C334.188873,333.646271 333.793701,333.295227 333.398529,332.944183 
	C330.528748,335.199127 327.147095,337.031250 324.876099,339.780731 
	C313.903046,353.065796 303.228790,366.597687 292.029053,380.670410 
M364.977417,295.059570 
	C364.990997,289.350189 362.661316,286.649139 359.119965,288.599762 
	C357.650696,289.409058 356.430206,291.656158 356.204498,293.393341 
	C356.051636,294.569733 357.696136,296.949188 358.775208,297.101501 
	C360.652252,297.366486 362.713593,296.326050 364.977417,295.059570 
M377.149963,315.319794 
	C376.804138,315.671722 376.260132,315.969360 376.146362,316.384827 
	C375.617126,318.318115 374.255768,320.857666 374.999268,322.090363 
	C375.891876,323.570282 378.614105,323.946686 380.544067,324.800934 
	C381.358856,322.666473 383.007477,320.401978 382.701843,318.442261 
	C382.490173,317.085022 379.584015,316.148010 377.149963,315.319794 
M357.002655,329.469757 
	C357.677826,332.412109 359.778656,333.638855 362.414795,332.856873 
	C363.801636,332.445465 365.700928,330.616516 365.697205,329.432892 
	C365.692200,327.836334 364.460785,325.533508 363.078857,324.787537 
	C359.277222,322.735413 358.244263,326.103180 357.002655,329.469757 
M348.421906,305.951324 
	C346.371368,306.098022 343.896057,305.628265 342.437073,306.633514 
	C341.623047,307.194336 341.834076,310.764923 342.820770,311.940155 
	C343.623383,312.896118 346.601349,312.966187 348.018768,312.249939 
	C350.268921,311.112793 351.041779,308.840485 348.421906,305.951324 
M382.027924,297.558105 
	C380.287231,297.270538 377.965302,296.180603 376.960358,296.908630 
	C375.830658,297.727020 375.188202,300.405823 375.645020,301.864746 
	C376.037201,303.117310 378.541138,304.812347 379.648834,304.525574 
	C382.698639,303.735992 383.638824,301.185059 382.027924,297.558105 
z"/>
<path fill="#FFFFFF" opacity="1.000000" stroke="none" 
	d="
M318.232727,85.682472 
	C339.912872,93.703011 355.744507,108.049408 365.745514,128.136353 
	C369.948303,136.577621 373.106232,146.320282 373.638245,155.648178 
	C374.807220,176.143631 374.000824,196.751724 374.000824,217.659164 
	C317.839447,217.659164 260.788300,217.659164 203.285141,217.659164 
	C203.207626,216.725494 203.014816,215.475250 203.013428,214.224792 
	C202.993713,196.567261 202.428406,178.885635 203.170731,161.259354 
	C203.831039,145.580276 208.975998,131.035812 217.984116,117.974319 
	C229.540390,101.218117 245.166763,89.852890 264.513885,84.135101 
	C282.288422,78.882057 300.249451,79.689644 318.232727,85.682472 
z"/>
<path fill="#FFFFFF" opacity="1.000000" stroke="none" 
	d="
M258.332703,333.834473 
	C251.044647,322.265350 243.106918,311.472809 238.934067,298.609802 
	C235.333649,287.511353 241.967789,279.258759 254.070511,279.835938 
	C259.182220,280.079681 262.651855,279.173828 266.202789,275.471008 
	C274.660675,266.651306 290.544281,263.011047 298.706909,269.162323 
	C311.073273,278.481476 320.920441,290.137207 324.016083,306.133728 
	C325.954224,316.149048 322.044769,323.333374 314.286896,329.545135 
	C310.770294,332.360901 308.613129,336.941986 306.054016,340.862427 
	C304.330597,343.502563 302.983185,346.388123 300.229797,349.039124 
	C300.154388,347.569153 300.017822,346.099335 300.013733,344.629150 
	C299.991150,336.481995 300.438690,328.300781 299.811279,320.202087 
	C299.505981,316.261932 297.805939,312.093323 294.014832,309.692505 
	C291.992920,318.201477 290.090698,326.206665 288.188477,334.211823 
	C287.719574,334.220428 287.250671,334.229004 286.781738,334.237610 
	C282.416992,326.134827 278.655457,317.421936 268.296051,314.611145 
	C271.914703,337.335144 279.081360,359.010773 274.363098,382.514191 
	C257.532379,363.397766 238.234406,355.817047 224.056137,363.204529 
	C228.032166,365.861725 231.776199,367.944336 235.008820,370.640167 
	C238.360886,373.435608 241.217545,376.825104 244.915710,380.591064 
	C232.828873,382.039215 223.613602,386.217468 216.059296,396.129364 
	C234.936157,392.317902 252.549118,390.633362 267.929413,403.822296 
	C261.029144,409.132507 253.879929,414.467865 246.913727,420.032349 
	C234.938599,429.597931 224.959869,440.587250 221.792191,457.945618 
	C233.992111,450.718811 243.373886,441.479279 254.293472,433.858978 
	C254.159256,442.048096 249.358582,449.753754 252.648453,458.613739 
	C260.799438,453.857330 264.014618,446.016083 268.000061,438.421417 
	C268.000061,439.981079 267.779419,441.581726 268.059296,443.089447 
	C268.367554,444.750214 269.135712,446.325623 269.703491,447.938232 
	C271.307861,446.956787 273.711426,446.346344 274.370728,444.926208 
	C276.582336,440.162231 278.332428,435.160767 279.936707,430.147034 
	C280.848236,427.298126 281.131378,424.248169 281.697510,421.288757 
	C282.161407,421.244049 282.625305,421.199341 283.089203,421.154602 
	C284.392792,426.745392 286.026794,432.284363 286.913757,437.940491 
	C287.948975,444.542419 288.983368,451.258423 288.863007,457.903992 
	C288.607330,472.023285 286.148071,485.637360 275.921234,496.519775 
	C273.056000,499.568665 266.369293,501.460999 262.890442,499.228394 
	C254.591751,493.902618 246.333832,496.317902 238.021332,498.510986 
	C220.839310,503.044281 211.074295,497.190430 207.136581,480.857483 
	C205.706955,474.927612 204.249176,469.615387 199.754791,464.910522 
	C195.288864,460.235443 196.781158,453.999695 199.209717,448.528625 
	C205.607559,434.115662 217.809265,426.307831 231.481033,419.859100 
	C238.110626,416.731995 244.147125,412.281494 250.228714,408.104828 
	C251.761887,407.051910 252.436234,404.748474 253.564468,402.923981 
	C247.563553,399.724213 242.200943,400.828339 237.268463,403.394104 
	C228.185974,408.118591 219.783661,414.432831 209.395416,416.049957 
	C203.925812,416.901489 198.216095,417.290619 192.741425,416.705017 
	C187.931351,416.190491 184.178818,412.007996 183.576340,407.705597 
	C182.681320,401.313812 178.371338,397.592651 174.758652,393.536987 
	C168.346237,386.338287 169.263153,378.866882 171.694672,370.717224 
	C173.975845,363.071411 180.161301,359.237976 186.022491,355.004517 
	C190.988403,351.417664 194.083618,346.665924 194.984283,340.597260 
	C196.129211,332.882965 196.823196,332.324615 204.792877,331.927521 
	C206.626724,331.836151 208.892944,331.340546 210.140213,330.162689 
	C215.021744,325.552795 220.544220,325.198700 226.414429,327.191437 
	C237.302994,330.887756 247.158447,335.952972 253.347443,346.488037 
	C254.770111,348.909668 258.229431,350.134796 261.600220,352.508179 
	C262.509613,344.953522 261.327240,339.394592 258.332703,333.834473 
z"/>
<path fill="#FFFFFF" opacity="1.000000" stroke="none" 
	d="
M303.999023,450.219421 
	C302.628601,444.609711 301.259125,439.444855 299.889648,434.279999 
	C300.431213,433.975861 300.972748,433.671753 301.514313,433.367615 
	C307.432343,441.456451 313.350403,449.545288 319.268433,457.634125 
	C320.016022,457.346039 320.763580,457.057922 321.511139,456.769836 
	C320.812286,448.586578 320.113464,440.403290 319.381226,431.829041 
	C322.453857,434.017334 326.106995,436.449097 329.563660,439.133850 
	C332.406219,441.341553 334.920563,443.973541 337.776733,446.161133 
	C338.866150,446.995483 340.502228,447.116119 341.889160,447.562073 
	C342.251343,446.032471 343.362946,444.161285 342.848022,443.031403 
	C340.407806,437.676880 338.138184,432.064972 334.654572,427.407349 
	C329.338837,420.300262 321.637573,415.968536 312.211548,411.927246 
	C325.827515,412.175720 337.554169,414.979248 349.052429,419.024445 
	C358.822723,422.461731 367.678802,427.102112 373.678131,436.103607 
	C379.915710,445.462585 381.002441,455.595398 378.801605,466.267151 
	C378.473358,467.858917 377.105835,469.463013 375.808197,470.587036 
	C371.369934,474.431366 369.858704,479.218292 369.938965,484.965546 
	C370.077789,494.910004 361.033173,502.685822 351.487793,500.939117 
	C347.731354,500.251740 344.121368,498.507690 340.363220,498.180420 
	C338.049652,497.978943 335.283234,499.083557 333.238281,500.404083 
	C326.466248,504.777100 316.774139,505.537750 308.617279,500.175629 
	C303.512024,496.819550 300.291656,487.867554 301.475464,481.982666 
	C302.911865,474.841797 304.095154,467.627197 304.885406,460.389648 
	C305.231720,457.217896 304.333221,453.910248 303.999023,450.219421 
z"/>
<path fill="#FFFFFF" opacity="1.000000" stroke="none" 
	d="
M325.224365,368.420380 
	C336.496704,355.524597 350.912842,349.697693 367.777222,347.779083 
	C380.598053,346.320557 391.250214,349.609314 399.783264,358.649994 
	C403.220062,362.291229 405.346466,367.636749 406.700104,372.581482 
	C407.387695,375.093109 405.864655,379.247070 403.902924,381.250275 
	C398.255341,387.017273 397.150909,394.010040 397.076813,401.366760 
	C397.025269,406.481781 397.089294,411.509308 393.680328,415.708282 
	C390.808411,419.245728 387.618011,420.491272 382.557739,419.403046 
	C372.760193,417.296082 367.154816,408.910950 358.735687,405.071594 
	C351.211853,401.640533 343.516266,398.257446 335.546204,396.229706 
	C328.172943,394.353790 320.335388,394.302856 311.303406,393.291565 
	C330.999359,386.443390 349.718811,379.934784 368.438263,373.426147 
	C368.360443,372.769531 368.282593,372.112885 368.204742,371.456238 
	C365.740997,370.622284 363.324402,369.290253 360.804291,369.051483 
	C354.272858,368.432617 347.697052,368.077728 341.136505,368.038696 
	C336.406799,368.010559 331.673035,368.658966 326.302765,368.868286 
	C325.517731,368.627441 325.371063,368.523926 325.224365,368.420380 
z"/>
<path fill="#FFFFFF" opacity="1.000000" stroke="none" 
	d="
M292.238831,380.356232 
	C303.228790,366.597687 313.903046,353.065796 324.876099,339.780731 
	C327.147095,337.031250 330.528748,335.199127 333.398529,332.944183 
	C333.793701,333.295227 334.188873,333.646271 334.584045,333.997284 
	C332.044739,337.173035 329.709778,340.541290 326.930603,343.491028 
	C315.149200,355.995514 306.832001,370.615051 299.897125,386.201660 
	C298.168365,390.087280 295.295410,393.571167 292.440948,396.789703 
	C291.456818,397.899323 288.930298,397.640961 287.108337,398.007538 
	C286.832703,396.083588 285.831818,393.891632 286.424194,392.288422 
	C287.907745,388.273560 290.113220,384.525513 292.238831,380.356232 
z"/>
<path fill="#FFFFFF" opacity="1.000000" stroke="none" 
	d="
M364.837524,295.446228 
	C362.713593,296.326050 360.652252,297.366486 358.775208,297.101501 
	C357.696136,296.949188 356.051636,294.569733 356.204498,293.393341 
	C356.430206,291.656158 357.650696,289.409058 359.119965,288.599762 
	C362.661316,286.649139 364.990997,289.350189 364.837524,295.446228 
z"/>
<path fill="#FFFFFF" opacity="1.000000" stroke="none" 
	d="
M377.515869,315.171509 
	C379.584015,316.148010 382.490173,317.085022 382.701843,318.442261 
	C383.007477,320.401978 381.358856,322.666473 380.544067,324.800934 
	C378.614105,323.946686 375.891876,323.570282 374.999268,322.090363 
	C374.255768,320.857666 375.617126,318.318115 376.146362,316.384827 
	C376.260132,315.969360 376.804138,315.671722 377.515869,315.171509 
z"/>
<path fill="#FFFFFF" opacity="1.000000" stroke="none" 
	d="
M357.002167,329.074463 
	C358.244263,326.103180 359.277222,322.735413 363.078857,324.787537 
	C364.460785,325.533508 365.692200,327.836334 365.697205,329.432892 
	C365.700928,330.616516 363.801636,332.445465 362.414795,332.856873 
	C359.778656,333.638855 357.677826,332.412109 357.002167,329.074463 
z"/>
<path fill="#FFFFFF" opacity="1.000000" stroke="none" 
	d="
M348.714661,306.233826 
	C351.041779,308.840485 350.268921,311.112793 348.018768,312.249939 
	C346.601349,312.966187 343.623383,312.896118 342.820770,311.940155 
	C341.834076,310.764923 341.623047,307.194336 342.437073,306.633514 
	C343.896057,305.628265 346.371368,306.098022 348.714661,306.233826 
z"/>
<path fill="#FFFFFF" opacity="1.000000" stroke="none" 
	d="
M382.325195,297.828552 
	C383.638824,301.185059 382.698639,303.735992 379.648834,304.525574 
	C378.541138,304.812347 376.037201,303.117310 375.645020,301.864746 
	C375.188202,300.405823 375.830658,297.727020 376.960358,296.908630 
	C377.965302,296.180603 380.287231,297.270538 382.325195,297.828552 
z"/>
<path fill="#FFFFFF" opacity="1.000000" stroke="none" 
	d="
M325.869598,368.905457 
	C325.511108,369.322876 324.947479,369.565826 324.383820,369.808807 
	C324.515503,369.473480 324.647156,369.138184 325.001587,368.611633 
	C325.371063,368.523926 325.517731,368.627441 325.869598,368.905457 
z"/>
</svg>