<svg version="1.1" id="Layer_1" xmlns="http://www.w3.org/2000/svg" xmlns:xlink="http://www.w3.org/1999/xlink" x="0px" y="0px"
	 width="100%" viewBox="0 0 575 574" enable-background="new 0 0 575 574" xml:space="preserve">
<path fill="#FFFFFF00" opacity="1.000000" stroke="none" 
	d="
M334.000000,575.000000 
	C222.666672,575.000000 111.833336,575.000000 1.000000,575.000000 
	C1.000000,383.666656 1.000000,192.333328 1.000000,1.000000 
	C192.666672,1.000000 384.333344,1.000000 576.000000,1.000000 
	C576.000000,192.333328 576.000000,383.666656 576.000000,575.000000 
	C495.500000,575.000000 415.000000,575.000000 334.000000,575.000000 
M532.000000,387.500000 
	C532.000000,353.667419 532.029480,319.834778 531.956848,286.002350 
	C531.949097,282.404724 531.577148,278.769012 530.979126,275.217499 
	C525.544250,242.946228 496.592712,218.402893 463.687836,218.009766 
	C457.915192,217.940781 452.141052,218.000000 446.000000,218.000000 
	C446.000000,205.441727 445.934418,193.473984 446.015472,181.507233 
	C446.135162,163.841599 445.368225,146.319046 441.077087,129.020248 
	C435.012756,104.572853 423.869080,82.770599 407.284576,63.983799 
	C395.917877,51.107658 383.076080,39.770084 367.875946,31.258280 
	C346.704132,19.402456 324.499359,11.058779 299.958923,11.120419 
	C285.260895,11.157337 270.094025,10.286074 255.955872,13.463114 
	C209.158203,23.979197 173.822556,50.890213 150.571808,93.010017 
	C137.809402,116.129684 132.356369,141.271545 132.033325,167.553650 
	C131.848984,182.551132 132.000000,197.552734 131.999985,212.552490 
	C131.999985,214.301895 131.999985,216.051315 131.999985,218.000000 
	C126.579529,218.000000 121.922813,217.998245 117.266090,218.000290 
	C93.994156,218.010513 74.750496,226.634079 60.416080,245.164383 
	C51.160618,257.129089 45.919987,270.574524 45.946102,286.031067 
	C46.067741,358.029633 45.999531,430.028534 46.002926,502.027313 
	C46.003002,503.693146 45.761852,505.421844 46.113487,507.015228 
	C50.084846,525.010315 58.117790,540.592163 73.298470,551.769592 
	C83.053986,558.952454 93.641037,564.874512 105.992630,564.892517 
	C227.990311,565.070374 349.988342,565.003052 471.986298,564.970459 
	C473.764801,564.969971 475.569031,564.645813 477.317444,564.269287 
	C488.381195,561.886902 498.177917,557.158081 506.912018,549.748169 
	C522.833496,536.240601 531.778259,519.408142 531.927124,498.497620 
	C532.188171,461.833435 532.000000,425.166046 532.000000,387.500000 
z"/>
<path fill="#318FCE" opacity="1.000000" stroke="none" 
	d="
M532.000000,388.000000 
	C532.000000,425.166046 532.188171,461.833435 531.927124,498.497620 
	C531.778259,519.408142 522.833496,536.240601 506.912018,549.748169 
	C498.177917,557.158081 488.381195,561.886902 477.317444,564.269287 
	C475.569031,564.645813 473.764801,564.969971 471.986298,564.970459 
	C349.988342,565.003052 227.990311,565.070374 105.992630,564.892517 
	C93.641037,564.874512 83.053986,558.952454 73.298470,551.769592 
	C58.117790,540.592163 50.084846,525.010315 46.113487,507.015228 
	C45.761852,505.421844 46.003002,503.693146 46.002926,502.027313 
	C45.999531,430.028534 46.067741,358.029633 45.946102,286.031067 
	C45.919987,270.574524 51.160618,257.129089 60.416080,245.164383 
	C74.750496,226.634079 93.994156,218.010513 117.266090,218.000290 
	C121.922813,217.998245 126.579529,218.000000 131.999985,218.000000 
	C131.999985,216.051315 131.999985,214.301895 131.999985,212.552490 
	C132.000000,197.552734 131.848984,182.551132 132.033325,167.553650 
	C132.356369,141.271545 137.809402,116.129684 150.571808,93.010017 
	C173.822556,50.890213 209.158203,23.979197 255.955872,13.463114 
	C270.094025,10.286074 285.260895,11.157337 299.958923,11.120419 
	C324.499359,11.058779 346.704132,19.402456 367.875946,31.258280 
	C383.076080,39.770084 395.917877,51.107658 407.284576,63.983799 
	C423.869080,82.770599 435.012756,104.572853 441.077087,129.020248 
	C445.368225,146.319046 446.135162,163.841599 446.015472,181.507233 
	C445.934418,193.473984 446.000000,205.441727 446.000000,218.000000 
	C452.141052,218.000000 457.915192,217.940781 463.687836,218.009766 
	C496.592712,218.402893 525.544250,242.946228 530.979126,275.217499 
	C531.577148,278.769012 531.949097,282.404724 531.956848,286.002350 
	C532.029480,319.834778 532.000000,353.667419 532.000000,388.000000 
M336.224792,331.004150 
	C329.133636,337.515045 321.345093,343.427429 315.119507,350.681244 
	C306.418304,360.819580 298.711548,371.836700 290.954926,382.744904 
	C288.656555,385.977142 287.413513,390.038849 286.136902,393.870392 
	C285.753204,395.022095 286.481689,397.285248 287.445160,397.934540 
	C288.391327,398.572144 290.802887,398.357361 291.661346,397.549561 
	C294.024963,395.325287 296.367889,392.841095 297.896423,390.014862 
	C301.523712,383.308136 304.422607,376.206329 308.072113,369.512939 
	C315.833130,355.278778 326.495483,343.247528 338.090942,331.295410 
	C338.209564,330.932800 338.328186,330.570190 338.446777,330.207581 
	C337.940704,330.444000 337.434631,330.680420 336.224792,331.004150 
M326.933136,369.014709 
	C331.691132,368.637726 336.450134,367.945251 341.206848,367.960815 
	C347.670776,367.981964 354.152496,368.344391 360.586212,368.973450 
	C363.153717,369.224487 365.613556,370.576691 368.122406,371.427643 
	C368.194550,372.104004 368.266693,372.780365 368.338837,373.456726 
	C349.741058,379.928009 331.143280,386.399261 312.545532,392.870544 
	C318.049774,394.084167 323.180206,394.274078 328.218750,395.056122 
	C339.701630,396.838287 350.853546,399.470154 360.808167,406.132904 
	C367.782898,410.801147 373.492828,417.345276 382.392761,419.344849 
	C387.714020,420.540436 390.914246,419.159332 393.929443,415.319733 
	C397.247986,411.093811 396.922180,406.176453 397.062958,401.223755 
	C397.269135,393.971710 398.208649,387.027496 403.833069,381.327637 
	C405.821167,379.312836 407.380066,375.098389 406.674469,372.576660 
	C405.268097,367.550293 403.087402,362.113068 399.568359,358.429779 
	C390.989075,349.450104 380.274933,346.250671 367.500336,347.789581 
	C350.826202,349.798157 336.459808,355.478821 324.909088,368.704590 
	C324.790466,369.067200 324.671875,369.429810 324.553223,369.792450 
	C325.059296,369.556030 325.565369,369.319611 326.933136,369.014709 
M286.540131,81.000000 
	C281.314301,81.522560 275.982452,81.554245 270.881592,82.655617 
	C252.265671,86.675224 236.657440,95.808968 224.071503,110.321312 
	C210.760773,125.669380 203.757767,143.437973 203.107239,163.534927 
	C202.579132,179.849030 203.000000,196.193848 203.000000,212.525040 
	C203.000000,214.276978 203.000000,216.028915 203.000000,217.747879 
	C260.674103,217.747879 317.602692,217.747879 374.018341,217.747879 
	C374.018341,197.107742 374.718597,176.693878 373.820496,156.350555 
	C372.930725,136.196228 363.520844,119.134857 349.331757,105.339622 
	C332.336914,88.816528 311.743042,79.924202 286.540131,81.000000 
M293.291565,309.385956 
	C294.308655,310.177002 295.638489,310.767578 296.294281,311.790283 
	C302.525360,321.507843 301.258423,332.289337 300.531891,342.981750 
	C300.399872,344.924805 300.270721,346.868042 300.140259,348.811218 
	C302.839081,346.571930 304.101410,343.943512 305.805908,341.642639 
	C309.257690,336.983093 312.648438,332.216583 316.619720,328.019714 
	C321.323608,323.048584 325.341064,317.363190 324.768066,310.728668 
	C323.237061,293.002502 312.214996,280.516113 299.557709,269.307800 
	C298.271576,268.168915 296.373688,267.270233 294.681000,267.114319 
	C283.919250,266.122986 273.431152,266.623535 265.792267,275.801819 
	C262.660950,279.564117 259.078735,280.200684 254.424881,279.898163 
	C241.985413,279.089508 234.462662,288.115051 239.123291,298.639130 
	C244.378281,310.505371 251.054291,321.787170 257.700745,332.973541 
	C261.079468,338.660095 262.184875,344.381317 261.827362,352.546661 
	C258.274384,350.084717 254.869324,348.890564 253.393387,346.503571 
	C246.517548,335.383331 236.189835,330.025665 224.037964,326.799316 
	C218.799072,325.408417 214.885529,326.790375 210.774979,329.597229 
	C208.986679,330.818359 206.673935,331.774963 204.543228,331.900696 
	C196.878632,332.352997 196.197830,332.838623 194.987961,340.539490 
	C194.026031,346.662262 191.052521,351.555603 185.849564,355.036621 
	C178.809387,359.746826 172.306259,365.004913 170.627548,373.922424 
	C169.329117,380.819824 168.967361,387.474274 174.586273,393.323700 
	C177.989777,396.866882 181.378525,401.182404 182.756348,405.758392 
	C185.798264,415.861237 194.154480,418.638062 202.574036,417.610626 
	C214.099930,416.204193 224.332336,411.202240 234.127457,405.064056 
	C239.846359,401.480255 246.115128,399.159515 253.612122,402.975830 
	C252.312317,404.974731 251.572418,407.256531 250.005630,408.319580 
	C243.951752,412.427002 237.920670,416.745026 231.354950,419.884125 
	C217.711136,426.407288 205.436249,434.202209 199.136658,448.723572 
	C196.791504,454.129486 195.421585,460.280731 199.752457,464.887726 
	C204.234421,469.655457 205.748245,475.024292 207.191589,481.023468 
	C210.985535,496.792847 220.564911,503.219818 238.209244,498.440491 
	C246.428711,496.214111 254.658371,493.954468 262.898224,499.233368 
	C266.509857,501.547180 272.818268,499.441101 275.929230,496.249695 
	C286.312866,485.597473 288.480865,472.060120 288.844208,458.149628 
	C289.022980,451.306915 287.946899,444.380524 286.908203,437.572968 
	C286.065857,432.052063 284.431305,426.652069 283.148071,421.198425 
	C282.667908,421.239655 282.187744,421.280853 281.707581,421.322083 
	C281.471619,422.519135 281.346069,423.751038 280.981506,424.907532 
	C278.884705,431.559387 276.925476,438.267426 274.443817,444.774994 
	C273.905060,446.187744 271.423584,446.859650 269.836884,447.872742 
	C269.224884,446.264069 268.434784,444.696136 268.054810,443.034393 
	C267.725159,441.592926 267.860046,440.045197 267.789612,438.544464 
	C264.069275,446.584991 260.391418,454.195923 252.629990,458.677734 
	C252.037598,458.501343 251.445206,458.324951 250.852829,458.148560 
	C251.940018,450.156647 253.027206,442.164734 254.151138,433.902710 
	C243.544846,442.067993 233.148407,450.071747 222.751968,458.075500 
	C222.240311,457.702759 221.728638,457.330048 221.216965,456.957306 
	C223.492249,451.459961 225.334946,445.730927 228.130249,440.512177 
	C234.526337,428.570770 245.740906,421.289581 255.898911,413.041595 
	C259.846924,409.835876 263.947174,406.817627 267.920990,403.757935 
	C252.088593,390.863922 234.924042,391.899872 216.289169,396.463501 
	C222.964203,386.050690 232.631241,382.409637 243.646240,380.636078 
	C239.802460,372.223724 230.857208,369.210541 223.892136,362.351227 
	C234.510880,360.011200 244.205322,359.476990 252.617661,364.200989 
	C260.671295,368.723511 267.526093,375.380981 274.845642,381.051971 
	C278.859497,358.653015 271.902435,336.656494 268.108704,313.924347 
	C278.104675,317.526398 282.561646,325.859100 286.839417,334.367218 
	C287.471893,334.260559 288.104370,334.153900 288.736847,334.047241 
	C290.174011,326.086334 291.611176,318.125397 293.291565,309.385956 
M332.255737,414.012482 
	C326.109955,413.204224 319.964203,412.395966 314.628754,411.694275 
	C320.729980,416.324188 327.891876,420.506226 333.345062,426.297241 
	C337.636200,430.854279 339.964508,437.324890 342.808594,443.120270 
	C343.333374,444.189636 342.157410,446.093597 341.766449,447.612366 
	C340.481903,447.216003 338.951263,447.135651 337.959473,446.363373 
	C335.104126,444.139862 332.572388,441.500610 329.715942,439.278748 
	C326.236511,436.572205 322.555786,434.124359 319.405273,431.880280 
	C320.128998,440.478912 320.810547,448.576538 321.492096,456.674194 
	C320.734314,456.962646 319.976562,457.251129 319.218781,457.539581 
	C313.319305,449.500336 307.419861,441.461090 301.520386,433.421814 
	C301.017395,433.730743 300.514404,434.039642 300.011414,434.348572 
	C300.258362,435.380554 300.551514,436.403992 300.744934,437.445923 
	C302.173004,445.138855 304.569580,452.817749 304.708099,460.536102 
	C304.837708,467.757111 302.690857,475.044891 301.312195,482.258606 
	C300.257111,487.779358 303.632507,497.097534 308.305573,500.047485 
	C316.502411,505.221802 324.759369,505.328369 333.227356,500.387939 
	C335.499359,499.062408 338.426727,498.006317 340.957275,498.185089 
	C344.434875,498.430695 347.779022,500.163666 351.254608,500.916870 
	C360.496490,502.919678 369.468933,495.134460 370.148010,485.416260 
	C370.442230,481.205048 371.323151,476.289215 373.797699,473.168243 
	C376.766937,469.423248 379.388763,465.844421 379.763855,461.186554 
	C380.036255,457.804169 379.334290,454.336914 379.004089,450.913544 
	C377.603699,436.393494 368.758850,427.532135 356.166229,422.076996 
	C348.725067,418.853516 340.817383,416.707031 332.255737,414.012482 
M363.454773,289.113770 
	C361.484070,289.143280 358.820587,288.409180 357.724884,289.403229 
	C356.466370,290.544952 355.955963,293.356689 356.351898,295.174896 
	C356.609375,296.357452 358.972260,297.600403 360.554230,297.872528 
	C364.375000,298.529755 365.844086,294.930267 363.454773,289.113770 
M382.081451,323.376038 
	C381.819458,320.856354 381.756348,318.282410 381.098907,315.870544 
	C380.989777,315.470367 377.572632,315.153442 376.930878,315.887695 
	C375.603455,317.406403 373.944153,320.183777 374.532898,321.496490 
	C375.654510,323.997223 377.948029,326.785980 382.081451,323.376038 
M357.064545,327.900726 
	C358.211853,329.591919 359.064301,331.722748 360.638000,332.778320 
	C361.363159,333.264679 363.855988,331.996490 364.921967,330.910217 
	C367.128937,328.661285 365.551178,326.841522 363.675232,325.154205 
	C360.318024,322.134552 359.243073,325.840790 357.064545,327.900726 
M346.224548,312.989685 
	C347.463348,311.367584 348.702148,309.745483 349.940948,308.123352 
	C348.448669,307.089813 347.026306,305.425629 345.438965,305.249634 
	C344.420593,305.136719 342.499329,307.041931 342.152069,308.352356 
	C341.540009,310.662048 341.857910,313.182709 346.224548,312.989685 
M375.444580,301.934265 
	C377.241150,305.065735 379.497864,306.173615 381.923645,302.784027 
	C382.719116,301.672516 383.126709,299.293823 382.473328,298.378723 
	C381.603119,297.159821 378.805817,295.795227 378.111847,296.288361 
	C376.660431,297.319672 376.044067,299.526184 375.444580,301.934265 
z"/>
<path fill="#FFFFFF00" opacity="1.000000" stroke="none" 
	d="
M287.031708,81.000000 
	C311.743042,79.924202 332.336914,88.816528 349.331757,105.339622 
	C363.520844,119.134857 372.930725,136.196228 373.820496,156.350555 
	C374.718597,176.693878 374.018341,197.107742 374.018341,217.747879 
	C317.602692,217.747879 260.674103,217.747879 203.000000,217.747879 
	C203.000000,216.028915 203.000000,214.276978 203.000000,212.525040 
	C203.000000,196.193848 202.579132,179.849030 203.107239,163.534927 
	C203.757767,143.437973 210.760773,125.669380 224.071503,110.321312 
	C236.657440,95.808968 252.265671,86.675224 270.881592,82.655617 
	C275.982452,81.554245 281.314301,81.522560 287.031708,81.000000 
z"/>
<path fill="#FFFFFF00" opacity="1.000000" stroke="none" 
	d="
M293.169952,309.775208 
	C291.611176,318.125397 290.174011,326.086334 288.736847,334.047241 
	C288.104370,334.153900 287.471893,334.260559 286.839417,334.367218 
	C282.561646,325.859100 278.104675,317.526398 268.108704,313.924347 
	C271.902435,336.656494 278.859497,358.653015 274.845642,381.051971 
	C267.526093,375.380981 260.671295,368.723511 252.617661,364.200989 
	C244.205322,359.476990 234.510880,360.011200 223.892136,362.351227 
	C230.857208,369.210541 239.802460,372.223724 243.646240,380.636078 
	C232.631241,382.409637 222.964203,386.050690 216.289169,396.463501 
	C234.924042,391.899872 252.088593,390.863922 267.920990,403.757935 
	C263.947174,406.817627 259.846924,409.835876 255.898911,413.041595 
	C245.740906,421.289581 234.526337,428.570770 228.130249,440.512177 
	C225.334946,445.730927 223.492249,451.459961 221.216965,456.957306 
	C221.728638,457.330048 222.240311,457.702759 222.751968,458.075500 
	C233.148407,450.071747 243.544846,442.067993 254.151138,433.902710 
	C253.027206,442.164734 251.940018,450.156647 250.852829,458.148560 
	C251.445206,458.324951 252.037598,458.501343 252.629990,458.677734 
	C260.391418,454.195923 264.069275,446.584991 267.789612,438.544464 
	C267.860046,440.045197 267.725159,441.592926 268.054810,443.034393 
	C268.434784,444.696136 269.224884,446.264069 269.836884,447.872742 
	C271.423584,446.859650 273.905060,446.187744 274.443817,444.774994 
	C276.925476,438.267426 278.884705,431.559387 280.981506,424.907532 
	C281.346069,423.751038 281.471619,422.519135 281.707581,421.322083 
	C282.187744,421.280853 282.667908,421.239655 283.148071,421.198425 
	C284.431305,426.652069 286.065857,432.052063 286.908203,437.572968 
	C287.946899,444.380524 289.022980,451.306915 288.844208,458.149628 
	C288.480865,472.060120 286.312866,485.597473 275.929230,496.249695 
	C272.818268,499.441101 266.509857,501.547180 262.898224,499.233368 
	C254.658371,493.954468 246.428711,496.214111 238.209244,498.440491 
	C220.564911,503.219818 210.985535,496.792847 207.191589,481.023468 
	C205.748245,475.024292 204.234421,469.655457 199.752457,464.887726 
	C195.421585,460.280731 196.791504,454.129486 199.136658,448.723572 
	C205.436249,434.202209 217.711136,426.407288 231.354950,419.884125 
	C237.920670,416.745026 243.951752,412.427002 250.005630,408.319580 
	C251.572418,407.256531 252.312317,404.974731 253.612122,402.975830 
	C246.115128,399.159515 239.846359,401.480255 234.127457,405.064056 
	C224.332336,411.202240 214.099930,416.204193 202.574036,417.610626 
	C194.154480,418.638062 185.798264,415.861237 182.756348,405.758392 
	C181.378525,401.182404 177.989777,396.866882 174.586273,393.323700 
	C168.967361,387.474274 169.329117,380.819824 170.627548,373.922424 
	C172.306259,365.004913 178.809387,359.746826 185.849564,355.036621 
	C191.052521,351.555603 194.026031,346.662262 194.987961,340.539490 
	C196.197830,332.838623 196.878632,332.352997 204.543228,331.900696 
	C206.673935,331.774963 208.986679,330.818359 210.774979,329.597229 
	C214.885529,326.790375 218.799072,325.408417 224.037964,326.799316 
	C236.189835,330.025665 246.517548,335.383331 253.393387,346.503571 
	C254.869324,348.890564 258.274384,350.084717 261.827362,352.546661 
	C262.184875,344.381317 261.079468,338.660095 257.700745,332.973541 
	C251.054291,321.787170 244.378281,310.505371 239.123291,298.639130 
	C234.462662,288.115051 241.985413,279.089508 254.424881,279.898163 
	C259.078735,280.200684 262.660950,279.564117 265.792267,275.801819 
	C273.431152,266.623535 283.919250,266.122986 294.681000,267.114319 
	C296.373688,267.270233 298.271576,268.168915 299.557709,269.307800 
	C312.214996,280.516113 323.237061,293.002502 324.768066,310.728668 
	C325.341064,317.363190 321.323608,323.048584 316.619720,328.019714 
	C312.648438,332.216583 309.257690,336.983093 305.805908,341.642639 
	C304.101410,343.943512 302.839081,346.571930 300.140259,348.811218 
	C300.270721,346.868042 300.399872,344.924805 300.531891,342.981750 
	C301.258423,332.289337 302.525360,321.507843 296.294281,311.790283 
	C295.638489,310.767578 294.308655,310.177002 293.169952,309.775208 
z"/>
<path fill="#FFFFFF00" opacity="1.000000" stroke="none" 
	d="
M332.687622,414.044373 
	C340.817383,416.707031 348.725067,418.853516 356.166229,422.076996 
	C368.758850,427.532135 377.603699,436.393494 379.004089,450.913544 
	C379.334290,454.336914 380.036255,457.804169 379.763855,461.186554 
	C379.388763,465.844421 376.766937,469.423248 373.797699,473.168243 
	C371.323151,476.289215 370.442230,481.205048 370.148010,485.416260 
	C369.468933,495.134460 360.496490,502.919678 351.254608,500.916870 
	C347.779022,500.163666 344.434875,498.430695 340.957275,498.185089 
	C338.426727,498.006317 335.499359,499.062408 333.227356,500.387939 
	C324.759369,505.328369 316.502411,505.221802 308.305573,500.047485 
	C303.632507,497.097534 300.257111,487.779358 301.312195,482.258606 
	C302.690857,475.044891 304.837708,467.757111 304.708099,460.536102 
	C304.569580,452.817749 302.173004,445.138855 300.744934,437.445923 
	C300.551514,436.403992 300.258362,435.380554 300.011414,434.348572 
	C300.514404,434.039642 301.017395,433.730743 301.520386,433.421814 
	C307.419861,441.461090 313.319305,449.500336 319.218781,457.539581 
	C319.976562,457.251129 320.734314,456.962646 321.492096,456.674194 
	C320.810547,448.576538 320.128998,440.478912 319.405273,431.880280 
	C322.555786,434.124359 326.236511,436.572205 329.715942,439.278748 
	C332.572388,441.500610 335.104126,444.139862 337.959473,446.363373 
	C338.951263,447.135651 340.481903,447.216003 341.766449,447.612366 
	C342.157410,446.093597 343.333374,444.189636 342.808594,443.120270 
	C339.964508,437.324890 337.636200,430.854279 333.345062,426.297241 
	C327.891876,420.506226 320.729980,416.324188 314.628754,411.694275 
	C319.964203,412.395966 326.109955,413.204224 332.687622,414.044373 
z"/>
<path fill="#FFFFFF00" opacity="1.000000" stroke="none" 
	d="
M325.342010,368.363770 
	C336.459808,355.478821 350.826202,349.798157 367.500336,347.789581 
	C380.274933,346.250671 390.989075,349.450104 399.568359,358.429779 
	C403.087402,362.113068 405.268097,367.550293 406.674469,372.576660 
	C407.380066,375.098389 405.821167,379.312836 403.833069,381.327637 
	C398.208649,387.027496 397.269135,393.971710 397.062958,401.223755 
	C396.922180,406.176453 397.247986,411.093811 393.929443,415.319733 
	C390.914246,419.159332 387.714020,420.540436 382.392761,419.344849 
	C373.492828,417.345276 367.782898,410.801147 360.808167,406.132904 
	C350.853546,399.470154 339.701630,396.838287 328.218750,395.056122 
	C323.180206,394.274078 318.049774,394.084167 312.545532,392.870544 
	C331.143280,386.399261 349.741058,379.928009 368.338837,373.456726 
	C368.266693,372.780365 368.194550,372.104004 368.122406,371.427643 
	C365.613556,370.576691 363.153717,369.224487 360.586212,368.973450 
	C354.152496,368.344391 347.670776,367.981964 341.206848,367.960815 
	C336.450134,367.945251 331.691132,368.637726 326.333313,368.855530 
	C325.602997,368.585480 325.472504,368.474640 325.342010,368.363770 
z"/>
<path fill="#FFFFFF00" opacity="1.000000" stroke="none" 
	d="
M337.657990,331.636230 
	C326.495483,343.247528 315.833130,355.278778 308.072113,369.512939 
	C304.422607,376.206329 301.523712,383.308136 297.896423,390.014862 
	C296.367889,392.841095 294.024963,395.325287 291.661346,397.549561 
	C290.802887,398.357361 288.391327,398.572144 287.445160,397.934540 
	C286.481689,397.285248 285.753204,395.022095 286.136902,393.870392 
	C287.413513,390.038849 288.656555,385.977142 290.954926,382.744904 
	C298.711548,371.836700 306.418304,360.819580 315.119507,350.681244 
	C321.345093,343.427429 329.133636,337.515045 336.745667,331.153900 
	C337.397003,331.414520 337.527496,331.525360 337.657990,331.636230 
z"/>
<path fill="#FFFFFF00" opacity="1.000000" stroke="none" 
	d="
M363.762329,289.376709 
	C365.844086,294.930267 364.375000,298.529755 360.554230,297.872528 
	C358.972260,297.600403 356.609375,296.357452 356.351898,295.174896 
	C355.955963,293.356689 356.466370,290.544952 357.724884,289.403229 
	C358.820587,288.409180 361.484070,289.143280 363.762329,289.376709 
z"/>
<path fill="#FFFFFF00" opacity="1.000000" stroke="none" 
	d="
M381.808777,323.668396 
	C377.948029,326.785980 375.654510,323.997223 374.532898,321.496490 
	C373.944153,320.183777 375.603455,317.406403 376.930878,315.887695 
	C377.572632,315.153442 380.989777,315.470367 381.098907,315.870544 
	C381.756348,318.282410 381.819458,320.856354 381.808777,323.668396 
z"/>
<path fill="#FFFFFF00" opacity="1.000000" stroke="none" 
	d="
M357.211090,327.542847 
	C359.243073,325.840790 360.318024,322.134552 363.675232,325.154205 
	C365.551178,326.841522 367.128937,328.661285 364.921967,330.910217 
	C363.855988,331.996490 361.363159,333.264679 360.638000,332.778320 
	C359.064301,331.722748 358.211853,329.591919 357.211090,327.542847 
z"/>
<path fill="#FFFFFF00" opacity="1.000000" stroke="none" 
	d="
M345.812378,312.992737 
	C341.857910,313.182709 341.540009,310.662048 342.152069,308.352356 
	C342.499329,307.041931 344.420593,305.136719 345.438965,305.249634 
	C347.026306,305.425629 348.448669,307.089813 349.940948,308.123352 
	C348.702148,309.745483 347.463348,311.367584 345.812378,312.992737 
z"/>
<path fill="#FFFFFF00" opacity="1.000000" stroke="none" 
	d="
M375.264648,301.592133 
	C376.044067,299.526184 376.660431,297.319672 378.111847,296.288361 
	C378.805817,295.795227 381.603119,297.159821 382.473328,298.378723 
	C383.126709,299.293823 382.719116,301.672516 381.923645,302.784027 
	C379.497864,306.173615 377.241150,305.065735 375.264648,301.592133 
z"/>
<path fill="#FFFFFF00" opacity="1.000000" stroke="none" 
	d="
M337.097534,331.110229 
	C337.434631,330.680420 337.940704,330.444000 338.446777,330.207581 
	C338.328186,330.570190 338.209564,330.932800 337.874451,331.465820 
	C337.527496,331.525360 337.397003,331.414520 337.097534,331.110229 
z"/>
<path fill="#FFFFFF00" opacity="1.000000" stroke="none" 
	d="
M325.902466,368.889771 
	C325.565369,369.319611 325.059296,369.556030 324.553223,369.792419 
	C324.671875,369.429810 324.790466,369.067200 325.125549,368.534180 
	C325.472504,368.474640 325.602997,368.585480 325.902466,368.889771 
z"/>
</svg>