<svg xmlns="http://www.w3.org/2000/svg" xmlns:xlink="http://www.w3.org/1999/xlink" width="150" zoomAndPan="magnify" viewBox="0 0 112.5 30.000001" height="40" preserveAspectRatio="xMidYMid meet" version="1.0"><defs><g/><clipPath id="fc06083488"><path d="M 4.476562 4.601562 L 21 4.601562 L 21 21.292969 L 4.476562 21.292969 Z M 4.476562 4.601562 " clip-rule="nonzero"/></clipPath><clipPath id="ab9f7c5261"><path d="M 5 4.601562 L 20 4.601562 L 20 21 L 5 21 Z M 5 4.601562 " clip-rule="nonzero"/></clipPath></defs><g clip-path="url(#fc06083488)"><path fill="none" d="M 14.035156 21.058594 C 10.847656 21.058594 7.675781 21.058594 4.503906 21.058594 C 4.503906 15.582031 4.503906 10.109375 4.503906 4.632812 C 9.988281 4.632812 15.476562 4.632812 20.960938 4.632812 C 20.960938 10.109375 20.960938 15.582031 20.960938 21.058594 C 18.65625 21.058594 16.351562 21.058594 14.035156 21.058594 M 15.648438 5.945312 C 15.625 5.933594 15.597656 5.921875 15.578125 5.902344 C 15.226562 5.589844 14.816406 5.367188 14.382812 5.195312 C 13.957031 5.03125 13.519531 4.910156 13.058594 4.917969 C 12.886719 4.921875 12.714844 4.925781 12.542969 4.917969 C 11.984375 4.894531 11.464844 5.035156 10.964844 5.257812 C 10.054688 5.65625 9.351562 6.289062 8.851562 7.152344 C 8.453125 7.839844 8.273438 8.582031 8.253906 9.367188 C 8.246094 9.808594 8.253906 10.253906 8.253906 10.695312 C 8.253906 10.742188 8.253906 10.789062 8.253906 10.84375 C 8.179688 10.84375 8.117188 10.839844 8.054688 10.84375 C 7.835938 10.851562 7.605469 10.832031 7.390625 10.878906 C 6.902344 10.980469 6.484375 11.226562 6.1875 11.636719 C 5.9375 11.984375 5.789062 12.363281 5.789062 12.796875 C 5.796875 14.859375 5.792969 16.917969 5.792969 18.980469 C 5.792969 19.023438 5.785156 19.066406 5.792969 19.109375 C 5.90625 19.632812 6.144531 20.085938 6.585938 20.40625 C 6.902344 20.632812 7.246094 20.777344 7.652344 20.777344 C 11.089844 20.769531 14.53125 20.773438 17.96875 20.773438 C 18.015625 20.773438 18.066406 20.777344 18.109375 20.765625 C 18.589844 20.648438 18.996094 20.417969 19.292969 20.019531 C 19.542969 19.679688 19.703125 19.308594 19.699219 18.878906 C 19.699219 16.851562 19.699219 14.824219 19.703125 12.796875 C 19.703125 12.265625 19.496094 11.816406 19.140625 11.445312 C 18.753906 11.046875 18.269531 10.84375 17.707031 10.84375 C 17.550781 10.84375 17.398438 10.84375 17.238281 10.84375 C 17.238281 10.554688 17.238281 10.289062 17.238281 10.023438 C 17.242188 9.53125 17.25 9.039062 17.15625 8.554688 C 17.039062 7.960938 16.824219 7.410156 16.492188 6.902344 C 16.261719 6.550781 15.964844 6.253906 15.648438 5.945312 Z M 15.648438 5.945312 " fill-opacity="1" fill-rule="nonzero"/></g><g clip-path="url(#ab9f7c5261)"><path fill="#324054" d="M 15.65625 5.953125 C 15.964844 6.253906 16.261719 6.550781 16.492188 6.902344 C 16.824219 7.410156 17.039062 7.960938 17.15625 8.554688 C 17.25 9.039062 17.242188 9.53125 17.238281 10.023438 C 17.238281 10.289062 17.238281 10.554688 17.238281 10.84375 C 17.398438 10.84375 17.550781 10.84375 17.707031 10.84375 C 18.269531 10.84375 18.753906 11.046875 19.140625 11.445312 C 19.496094 11.816406 19.703125 12.265625 19.703125 12.796875 C 19.699219 14.824219 19.699219 16.851562 19.699219 18.878906 C 19.703125 19.308594 19.542969 19.679688 19.292969 20.019531 C 18.996094 20.417969 18.589844 20.648438 18.109375 20.765625 C 18.066406 20.777344 18.015625 20.773438 17.96875 20.773438 C 14.53125 20.773438 11.089844 20.769531 7.652344 20.777344 C 7.246094 20.777344 6.902344 20.632812 6.585938 20.40625 C 6.144531 20.085938 5.90625 19.632812 5.792969 19.109375 C 5.785156 19.066406 5.792969 19.023438 5.792969 18.980469 C 5.792969 16.917969 5.796875 14.859375 5.789062 12.796875 C 5.789062 12.363281 5.9375 11.984375 6.1875 11.636719 C 6.484375 11.226562 6.902344 10.980469 7.390625 10.878906 C 7.605469 10.832031 7.835938 10.851562 8.054688 10.84375 C 8.117188 10.839844 8.179688 10.84375 8.253906 10.84375 C 8.253906 10.789062 8.253906 10.742188 8.253906 10.695312 C 8.253906 10.253906 8.246094 9.808594 8.253906 9.367188 C 8.273438 8.582031 8.453125 7.839844 8.851562 7.152344 C 9.351562 6.289062 10.054688 5.65625 10.964844 5.257812 C 11.464844 5.035156 11.984375 4.894531 12.542969 4.917969 C 12.714844 4.925781 12.886719 4.921875 13.058594 4.917969 C 13.519531 4.910156 13.957031 5.03125 14.382812 5.195312 C 14.816406 5.367188 15.226562 5.589844 15.578125 5.902344 C 15.597656 5.921875 15.625 5.933594 15.65625 5.953125 M 13.832031 15.164062 C 13.96875 15.152344 14.101562 15.136719 14.238281 15.136719 C 14.425781 15.136719 14.613281 15.148438 14.800781 15.164062 C 14.875 15.171875 14.941406 15.210938 15.011719 15.234375 C 15.015625 15.253906 15.015625 15.269531 15.019531 15.289062 C 14.484375 15.476562 13.949219 15.664062 13.382812 15.859375 C 13.644531 15.886719 13.867188 15.890625 14.078125 15.941406 C 14.304688 16 14.527344 16.097656 14.742188 16.195312 C 14.984375 16.304688 15.144531 16.546875 15.425781 16.605469 C 15.570312 16.636719 15.660156 16.601562 15.742188 16.5 C 15.839844 16.378906 15.839844 16.234375 15.839844 16.089844 C 15.839844 15.878906 15.875 15.679688 16.035156 15.515625 C 16.089844 15.457031 16.132812 15.335938 16.113281 15.265625 C 16.074219 15.125 16.015625 14.972656 15.917969 14.867188 C 15.671875 14.609375 15.367188 14.515625 15 14.554688 C 14.519531 14.609375 14.105469 14.777344 13.769531 15.15625 C 13.765625 15.167969 13.761719 15.175781 13.757812 15.1875 C 13.773438 15.179688 13.792969 15.171875 13.832031 15.164062 M 13.574219 7.046875 C 13.070312 6.882812 12.554688 6.859375 12.046875 7.011719 C 11.492188 7.175781 11.042969 7.5 10.714844 7.980469 C 10.457031 8.351562 10.308594 8.769531 10.289062 9.21875 C 10.269531 9.722656 10.285156 10.230469 10.285156 10.734375 C 10.285156 10.769531 10.292969 10.804688 10.292969 10.832031 C 11.9375 10.832031 13.570312 10.832031 15.179688 10.832031 C 15.179688 10.234375 15.203125 9.644531 15.167969 9.058594 C 15.152344 8.789062 15.0625 8.511719 14.941406 8.269531 C 14.65625 7.695312 14.203125 7.285156 13.574219 7.046875 M 11.875 14.164062 C 11.953125 14.316406 11.988281 14.476562 11.960938 14.691406 C 11.867188 14.625 11.765625 14.589844 11.726562 14.519531 C 11.550781 14.21875 11.265625 14.074219 10.957031 13.96875 C 10.789062 13.910156 10.628906 13.921875 10.488281 14.050781 C 10.453125 14.085938 10.390625 14.101562 10.335938 14.101562 C 10.109375 14.113281 10.089844 14.128906 10.054688 14.351562 C 10.03125 14.523438 9.941406 14.660156 9.800781 14.761719 C 9.632812 14.882812 9.453125 14.992188 9.390625 15.210938 C 9.320312 15.445312 9.292969 15.660156 9.476562 15.867188 C 9.582031 15.980469 9.703125 16.089844 9.730469 16.269531 C 9.746094 16.394531 9.855469 16.515625 9.992188 16.527344 C 10.148438 16.546875 10.3125 16.535156 10.46875 16.511719 C 10.765625 16.464844 11.007812 16.28125 11.265625 16.148438 C 11.40625 16.074219 11.5625 16.042969 11.730469 16.132812 C 11.699219 16.1875 11.679688 16.253906 11.636719 16.28125 C 11.460938 16.402344 11.289062 16.53125 11.101562 16.617188 C 10.710938 16.804688 10.359375 17.027344 10.175781 17.4375 C 10.105469 17.597656 10.066406 17.773438 10.191406 17.910156 C 10.320312 18.042969 10.363281 18.195312 10.402344 18.363281 C 10.515625 18.832031 10.796875 19 11.289062 18.871094 C 11.527344 18.808594 11.761719 18.738281 12 18.890625 C 12.097656 18.953125 12.289062 18.898438 12.371094 18.8125 C 12.664062 18.5 12.734375 18.113281 12.742188 17.707031 C 12.746094 17.515625 12.714844 17.324219 12.6875 17.136719 C 12.660156 16.972656 12.613281 16.816406 12.578125 16.65625 C 12.5625 16.65625 12.550781 16.660156 12.539062 16.660156 C 12.519531 16.746094 12.511719 16.832031 12.488281 16.914062 C 12.441406 17.058594 12.390625 17.199219 12.328125 17.335938 C 12.308594 17.378906 12.238281 17.394531 12.195312 17.421875 C 12.179688 17.375 12.15625 17.332031 12.148438 17.285156 C 12.140625 17.242188 12.144531 17.195312 12.144531 17.148438 C 12.03125 17.367188 11.9375 17.59375 11.707031 17.726562 C 11.613281 17.472656 11.75 17.253906 11.753906 17.019531 C 11.441406 17.238281 11.171875 17.503906 10.824219 17.707031 C 10.914062 17.210938 11.199219 16.898438 11.542969 16.625 C 11.742188 16.464844 11.945312 16.3125 12.144531 16.160156 C 11.703125 15.78125 11.199219 15.832031 10.660156 15.941406 C 10.875 15.65625 11.140625 15.535156 11.484375 15.496094 C 11.378906 15.386719 11.296875 15.289062 11.203125 15.210938 C 11.109375 15.132812 11 15.074219 10.886719 14.996094 C 11.292969 14.785156 11.847656 15.003906 12.328125 15.550781 C 12.460938 14.878906 12.257812 14.257812 12.152344 13.605469 C 12.449219 13.6875 12.558594 13.9375 12.683594 14.167969 C 12.695312 14.167969 12.710938 14.167969 12.722656 14.167969 C 12.777344 13.9375 12.832031 13.710938 12.890625 13.464844 C 13 13.535156 13.046875 13.652344 13.054688 13.765625 C 13.074219 14 13.0625 14.234375 13.0625 14.464844 C 13.0625 14.507812 13.066406 14.550781 13.066406 14.59375 C 13.148438 14.515625 13.183594 14.433594 13.234375 14.359375 C 13.308594 14.246094 13.371094 14.113281 13.46875 14.035156 C 13.691406 13.855469 13.804688 13.652344 13.75 13.363281 C 13.660156 12.90625 13.378906 12.574219 13.023438 12.304688 C 12.789062 12.128906 12.335938 12.234375 12.09375 12.488281 C 11.992188 12.59375 11.894531 12.617188 11.746094 12.613281 C 11.402344 12.59375 11.210938 12.832031 11.3125 13.148438 C 11.433594 13.515625 11.660156 13.824219 11.875 14.164062 M 13.175781 17.5 C 13.183594 17.59375 13.210938 17.6875 13.199219 17.777344 C 13.179688 17.984375 13.144531 18.191406 13.101562 18.398438 C 13.070312 18.566406 13.160156 18.820312 13.308594 18.917969 C 13.542969 19.070312 13.820312 19.050781 14.011719 18.925781 C 14.070312 18.886719 14.148438 18.855469 14.214844 18.859375 C 14.324219 18.871094 14.425781 18.917969 14.535156 18.9375 C 14.808594 18.988281 15.066406 18.765625 15.0625 18.480469 C 15.058594 18.316406 15.105469 18.179688 15.230469 18.070312 C 15.269531 18.039062 15.308594 17.992188 15.316406 17.945312 C 15.378906 17.640625 15.347656 17.351562 15.167969 17.082031 C 15 16.828125 14.746094 16.695312 14.464844 16.59375 C 14.136719 16.480469 13.800781 16.398438 13.410156 16.390625 C 13.679688 16.507812 13.902344 16.632812 14.054688 16.835938 C 14.152344 16.96875 14.21875 17.128906 14.289062 17.28125 C 14.300781 17.3125 14.269531 17.367188 14.261719 17.410156 C 14.21875 17.398438 14.171875 17.394531 14.140625 17.371094 C 14.0625 17.308594 13.988281 17.234375 13.90625 17.171875 C 13.808594 17.09375 13.703125 17.023438 13.617188 16.960938 C 13.636719 17.207031 13.65625 17.441406 13.675781 17.675781 C 13.65625 17.683594 13.632812 17.691406 13.613281 17.699219 C 13.441406 17.46875 13.273438 17.238281 13.105469 17.003906 C 13.089844 17.015625 13.074219 17.023438 13.058594 17.03125 C 13.097656 17.179688 13.136719 17.328125 13.175781 17.5 M 12.832031 15.496094 C 12.777344 15.609375 12.714844 15.714844 12.671875 15.828125 C 12.65625 15.875 12.683594 15.9375 12.691406 15.992188 C 12.746094 15.984375 12.816406 15.992188 12.84375 15.957031 C 12.925781 15.867188 13.007812 15.765625 13.058594 15.65625 C 13.257812 15.210938 13.496094 14.792969 13.832031 14.433594 C 13.910156 14.347656 13.976562 14.253906 14.050781 14.160156 C 14.039062 14.152344 14.027344 14.140625 14.015625 14.132812 C 13.933594 14.195312 13.839844 14.25 13.773438 14.328125 C 13.460938 14.707031 13.152344 15.09375 12.832031 15.496094 M 14.921875 13.046875 C 14.921875 12.882812 14.855469 12.808594 14.753906 12.863281 C 14.710938 12.886719 14.675781 12.949219 14.667969 13 C 14.664062 13.035156 14.710938 13.101562 14.742188 13.105469 C 14.796875 13.113281 14.855469 13.082031 14.921875 13.046875 M 15.269531 13.628906 C 15.257812 13.636719 15.242188 13.644531 15.242188 13.65625 C 15.226562 13.714844 15.1875 13.785156 15.207031 13.820312 C 15.234375 13.863281 15.3125 13.875 15.367188 13.898438 C 15.390625 13.835938 15.4375 13.773438 15.429688 13.714844 C 15.421875 13.679688 15.339844 13.652344 15.269531 13.628906 M 14.691406 14.03125 C 14.710938 14.117188 14.773438 14.152344 14.847656 14.128906 C 14.886719 14.117188 14.941406 14.066406 14.941406 14.03125 C 14.941406 13.984375 14.90625 13.917969 14.867188 13.898438 C 14.757812 13.839844 14.726562 13.9375 14.691406 14.03125 M 14.445312 13.359375 C 14.386719 13.363281 14.316406 13.351562 14.277344 13.378906 C 14.253906 13.394531 14.257812 13.496094 14.285156 13.53125 C 14.308594 13.558594 14.394531 13.558594 14.433594 13.539062 C 14.5 13.507812 14.523438 13.441406 14.445312 13.359375 M 15.410156 13.117188 C 15.359375 13.109375 15.292969 13.078125 15.265625 13.101562 C 15.230469 13.125 15.214844 13.199219 15.226562 13.242188 C 15.238281 13.277344 15.308594 13.328125 15.339844 13.316406 C 15.429688 13.296875 15.453125 13.222656 15.410156 13.117188 Z M 15.410156 13.117188 " fill-opacity="1" fill-rule="nonzero"/></g><path fill="none" d="M 13.582031 7.054688 C 14.203125 7.285156 14.65625 7.695312 14.941406 8.269531 C 15.0625 8.511719 15.152344 8.789062 15.167969 9.058594 C 15.203125 9.644531 15.179688 10.234375 15.179688 10.832031 C 13.570312 10.832031 11.9375 10.832031 10.292969 10.832031 C 10.292969 10.804688 10.285156 10.769531 10.285156 10.734375 C 10.285156 10.230469 10.269531 9.722656 10.289062 9.21875 C 10.308594 8.769531 10.457031 8.351562 10.714844 7.980469 C 11.042969 7.5 11.492188 7.175781 12.046875 7.011719 C 12.554688 6.859375 13.070312 6.882812 13.582031 7.054688 Z M 13.582031 7.054688 " fill-opacity="1" fill-rule="nonzero"/><path fill="none" d="M 11.867188 14.15625 C 11.660156 13.824219 11.433594 13.515625 11.3125 13.148438 C 11.210938 12.832031 11.402344 12.59375 11.746094 12.613281 C 11.894531 12.617188 11.992188 12.59375 12.09375 12.488281 C 12.335938 12.234375 12.789062 12.128906 13.023438 12.304688 C 13.378906 12.574219 13.660156 12.90625 13.75 13.363281 C 13.804688 13.652344 13.691406 13.855469 13.46875 14.035156 C 13.371094 14.113281 13.308594 14.246094 13.234375 14.359375 C 13.183594 14.433594 13.148438 14.515625 13.066406 14.59375 C 13.066406 14.550781 13.0625 14.507812 13.0625 14.464844 C 13.0625 14.234375 13.074219 14 13.054688 13.765625 C 13.046875 13.652344 13 13.535156 12.890625 13.464844 C 12.832031 13.710938 12.777344 13.9375 12.722656 14.167969 C 12.710938 14.167969 12.695312 14.167969 12.683594 14.167969 C 12.558594 13.9375 12.449219 13.6875 12.152344 13.605469 C 12.257812 14.257812 12.460938 14.878906 12.328125 15.550781 C 11.847656 15.003906 11.292969 14.785156 10.886719 14.996094 C 11 15.074219 11.109375 15.132812 11.203125 15.210938 C 11.296875 15.289062 11.378906 15.386719 11.484375 15.496094 C 11.140625 15.535156 10.875 15.65625 10.660156 15.941406 C 11.199219 15.832031 11.703125 15.78125 12.144531 16.160156 C 11.945312 16.3125 11.742188 16.464844 11.542969 16.625 C 11.199219 16.898438 10.914062 17.210938 10.824219 17.707031 C 11.171875 17.503906 11.441406 17.238281 11.753906 17.019531 C 11.75 17.253906 11.613281 17.472656 11.707031 17.726562 C 11.9375 17.59375 12.03125 17.367188 12.144531 17.148438 C 12.144531 17.195312 12.140625 17.242188 12.148438 17.285156 C 12.15625 17.332031 12.179688 17.375 12.195312 17.421875 C 12.238281 17.394531 12.308594 17.378906 12.328125 17.335938 C 12.390625 17.199219 12.441406 17.058594 12.488281 16.914062 C 12.511719 16.832031 12.519531 16.746094 12.539062 16.660156 C 12.550781 16.660156 12.5625 16.65625 12.578125 16.65625 C 12.613281 16.816406 12.660156 16.972656 12.6875 17.136719 C 12.714844 17.324219 12.746094 17.515625 12.742188 17.707031 C 12.734375 18.113281 12.664062 18.5 12.371094 18.8125 C 12.289062 18.898438 12.097656 18.953125 12 18.890625 C 11.761719 18.738281 11.527344 18.808594 11.289062 18.871094 C 10.796875 19 10.515625 18.832031 10.402344 18.363281 C 10.363281 18.195312 10.320312 18.042969 10.191406 17.910156 C 10.066406 17.773438 10.105469 17.597656 10.175781 17.4375 C 10.359375 17.027344 10.710938 16.804688 11.101562 16.617188 C 11.289062 16.53125 11.460938 16.402344 11.636719 16.28125 C 11.679688 16.253906 11.699219 16.1875 11.730469 16.132812 C 11.5625 16.042969 11.40625 16.074219 11.265625 16.148438 C 11.007812 16.28125 10.765625 16.464844 10.46875 16.511719 C 10.3125 16.535156 10.148438 16.546875 9.992188 16.527344 C 9.855469 16.515625 9.746094 16.394531 9.730469 16.269531 C 9.703125 16.089844 9.582031 15.980469 9.476562 15.867188 C 9.292969 15.660156 9.320312 15.445312 9.390625 15.210938 C 9.453125 14.992188 9.632812 14.882812 9.800781 14.761719 C 9.941406 14.660156 10.03125 14.523438 10.054688 14.351562 C 10.089844 14.128906 10.109375 14.113281 10.335938 14.101562 C 10.390625 14.101562 10.453125 14.085938 10.488281 14.050781 C 10.628906 13.921875 10.789062 13.910156 10.957031 13.96875 C 11.265625 14.074219 11.550781 14.21875 11.726562 14.519531 C 11.765625 14.589844 11.867188 14.625 11.960938 14.691406 C 11.988281 14.476562 11.953125 14.316406 11.867188 14.15625 Z M 11.867188 14.15625 " fill-opacity="1" fill-rule="nonzero"/><path fill="none" d="M 13.175781 17.488281 C 13.136719 17.328125 13.097656 17.179688 13.058594 17.03125 C 13.074219 17.023438 13.089844 17.015625 13.105469 17.003906 C 13.273438 17.238281 13.441406 17.46875 13.613281 17.699219 C 13.632812 17.691406 13.65625 17.683594 13.675781 17.675781 C 13.65625 17.441406 13.636719 17.207031 13.617188 16.960938 C 13.703125 17.023438 13.808594 17.09375 13.90625 17.171875 C 13.988281 17.234375 14.0625 17.308594 14.140625 17.371094 C 14.171875 17.394531 14.21875 17.398438 14.261719 17.410156 C 14.269531 17.367188 14.300781 17.3125 14.289062 17.28125 C 14.21875 17.128906 14.152344 16.96875 14.054688 16.835938 C 13.902344 16.632812 13.679688 16.507812 13.410156 16.390625 C 13.800781 16.398438 14.136719 16.480469 14.464844 16.59375 C 14.746094 16.695312 15 16.828125 15.167969 17.082031 C 15.347656 17.351562 15.378906 17.640625 15.316406 17.945312 C 15.308594 17.992188 15.269531 18.039062 15.230469 18.070312 C 15.105469 18.179688 15.058594 18.316406 15.0625 18.480469 C 15.066406 18.765625 14.808594 18.988281 14.535156 18.9375 C 14.425781 18.917969 14.324219 18.871094 14.214844 18.859375 C 14.148438 18.855469 14.070312 18.886719 14.011719 18.925781 C 13.820312 19.050781 13.542969 19.070312 13.308594 18.917969 C 13.160156 18.820312 13.070312 18.566406 13.101562 18.398438 C 13.144531 18.191406 13.179688 17.984375 13.199219 17.777344 C 13.210938 17.6875 13.183594 17.59375 13.175781 17.488281 Z M 13.175781 17.488281 " fill-opacity="1" fill-rule="nonzero"/><path fill="none" d="M 13.78125 15.148438 C 14.105469 14.777344 14.519531 14.609375 15 14.554688 C 15.367188 14.515625 15.671875 14.609375 15.917969 14.867188 C 16.015625 14.972656 16.074219 15.125 16.113281 15.265625 C 16.132812 15.335938 16.089844 15.457031 16.035156 15.515625 C 15.875 15.679688 15.839844 15.878906 15.839844 16.089844 C 15.839844 16.234375 15.839844 16.378906 15.742188 16.5 C 15.660156 16.601562 15.570312 16.636719 15.425781 16.605469 C 15.144531 16.546875 14.984375 16.304688 14.742188 16.195312 C 14.527344 16.097656 14.304688 16 14.078125 15.941406 C 13.867188 15.890625 13.644531 15.886719 13.382812 15.859375 C 13.949219 15.664062 14.484375 15.476562 15.019531 15.289062 C 15.015625 15.269531 15.015625 15.253906 15.011719 15.234375 C 14.941406 15.210938 14.875 15.171875 14.800781 15.164062 C 14.613281 15.148438 14.425781 15.136719 14.238281 15.136719 C 14.101562 15.136719 13.96875 15.152344 13.8125 15.160156 C 13.792969 15.152344 13.789062 15.148438 13.78125 15.148438 Z M 13.78125 15.148438 " fill-opacity="1" fill-rule="nonzero"/><path fill="none" d="M 12.839844 15.488281 C 13.152344 15.09375 13.460938 14.707031 13.773438 14.328125 C 13.839844 14.25 13.933594 14.195312 14.015625 14.132812 C 14.027344 14.140625 14.039062 14.152344 14.050781 14.160156 C 13.976562 14.253906 13.910156 14.347656 13.832031 14.433594 C 13.496094 14.792969 13.257812 15.210938 13.058594 15.65625 C 13.007812 15.765625 12.925781 15.867188 12.84375 15.957031 C 12.816406 15.992188 12.746094 15.984375 12.691406 15.992188 C 12.683594 15.9375 12.65625 15.875 12.671875 15.828125 C 12.714844 15.714844 12.777344 15.609375 12.839844 15.488281 Z M 12.839844 15.488281 " fill-opacity="1" fill-rule="nonzero"/><path fill="none" d="M 14.917969 13.058594 C 14.855469 13.082031 14.796875 13.113281 14.742188 13.105469 C 14.710938 13.101562 14.664062 13.035156 14.667969 13 C 14.675781 12.949219 14.710938 12.886719 14.753906 12.863281 C 14.855469 12.808594 14.921875 12.882812 14.917969 13.058594 Z M 14.917969 13.058594 " fill-opacity="1" fill-rule="nonzero"/><path fill="none" d="M 15.28125 13.621094 C 15.339844 13.652344 15.421875 13.679688 15.429688 13.714844 C 15.4375 13.773438 15.390625 13.835938 15.367188 13.898438 C 15.3125 13.875 15.234375 13.863281 15.207031 13.820312 C 15.1875 13.785156 15.226562 13.714844 15.242188 13.65625 C 15.242188 13.644531 15.257812 13.636719 15.28125 13.621094 Z M 15.28125 13.621094 " fill-opacity="1" fill-rule="nonzero"/><path fill="none" d="M 14.691406 14.019531 C 14.726562 13.9375 14.757812 13.839844 14.867188 13.898438 C 14.90625 13.917969 14.941406 13.984375 14.941406 14.03125 C 14.941406 14.066406 14.886719 14.117188 14.847656 14.128906 C 14.773438 14.152344 14.710938 14.117188 14.691406 14.019531 Z M 14.691406 14.019531 " fill-opacity="1" fill-rule="nonzero"/><path fill="none" d="M 14.457031 13.367188 C 14.523438 13.441406 14.5 13.507812 14.433594 13.539062 C 14.394531 13.558594 14.308594 13.558594 14.285156 13.53125 C 14.257812 13.496094 14.253906 13.394531 14.277344 13.378906 C 14.316406 13.351562 14.386719 13.363281 14.457031 13.367188 Z M 14.457031 13.367188 " fill-opacity="1" fill-rule="nonzero"/><path fill="none" d="M 15.417969 13.125 C 15.453125 13.222656 15.429688 13.296875 15.339844 13.316406 C 15.308594 13.328125 15.238281 13.277344 15.226562 13.242188 C 15.214844 13.199219 15.230469 13.125 15.265625 13.101562 C 15.292969 13.078125 15.359375 13.109375 15.417969 13.125 Z M 15.417969 13.125 " fill-opacity="1" fill-rule="nonzero"/><path fill="none" d="M 13.800781 15.160156 C 13.792969 15.171875 13.773438 15.179688 13.757812 15.1875 C 13.761719 15.175781 13.765625 15.167969 13.777344 15.152344 C 13.789062 15.148438 13.792969 15.152344 13.800781 15.160156 Z M 13.800781 15.160156 " fill-opacity="1" fill-rule="nonzero"/><g fill="#64768f" fill-opacity="1"><g transform="translate(22.896682, 19.907641)"><g><path d="M 12.859375 -10.53125 L 12.859375 0 L 10.296875 0 L 10.296875 -6.3125 L 7.9375 0 L 5.859375 0 L 3.5 -6.328125 L 3.5 0 L 0.9375 0 L 0.9375 -10.53125 L 3.953125 -10.53125 L 6.921875 -3.234375 L 9.84375 -10.53125 Z M 12.859375 -10.53125 "/></g></g></g><g fill="#64768f" fill-opacity="1"><g transform="translate(37.049805, 19.907641)"><g><path d="M 9.953125 -10.53125 L 6.3125 -3.484375 L 6.3125 0 L 3.75 0 L 3.75 -3.484375 L 0.109375 -10.53125 L 3.015625 -10.53125 L 5.0625 -6.125 L 7.078125 -10.53125 Z M 9.953125 -10.53125 "/></g></g></g><g fill="#455469" fill-opacity="1"><g transform="translate(47.506057, 19.907641)"><g><path d="M 10.046875 -10.53125 L 10.046875 0 L 7.484375 0 L 7.484375 -4.328125 L 3.5 -4.328125 L 3.5 0 L 0.9375 0 L 0.9375 -10.53125 L 3.5 -10.53125 L 3.5 -6.40625 L 7.484375 -6.40625 L 7.484375 -10.53125 Z M 10.046875 -10.53125 "/></g></g></g><g fill="#455469" fill-opacity="1"><g transform="translate(58.855584, 19.907641)"><g><path d="M 7.484375 -1.859375 L 3.5625 -1.859375 L 2.921875 0 L 0.234375 0 L 4.046875 -10.53125 L 7.015625 -10.53125 L 10.828125 0 L 8.109375 0 Z M 6.828125 -3.84375 L 5.515625 -7.6875 L 4.234375 -3.84375 Z M 6.828125 -3.84375 "/></g></g></g><g fill="#455469" fill-opacity="1"><g transform="translate(70.295062, 19.907641)"><g><path d="M 15.421875 -10.53125 L 12.671875 0 L 9.5625 0 L 7.890625 -6.9375 L 6.15625 0 L 3.046875 0 L 0.375 -10.53125 L 3.125 -10.53125 L 4.640625 -2.859375 L 6.515625 -10.53125 L 9.328125 -10.53125 L 11.125 -2.859375 L 12.65625 -10.53125 Z M 15.421875 -10.53125 "/></g></g></g><g fill="#455469" fill-opacity="1"><g transform="translate(86.457188, 19.907641)"><g><path d="M 7.484375 -1.859375 L 3.5625 -1.859375 L 2.921875 0 L 0.234375 0 L 4.046875 -10.53125 L 7.015625 -10.53125 L 10.828125 0 L 8.109375 0 Z M 6.828125 -3.84375 L 5.515625 -7.6875 L 4.234375 -3.84375 Z M 6.828125 -3.84375 "/></g></g></g><g fill="#455469" fill-opacity="1"><g transform="translate(97.896666, 19.907641)"><g><path d="M 3.5 -10.53125 L 3.5 0 L 0.9375 0 L 0.9375 -10.53125 Z M 3.5 -10.53125 "/></g></g></g><g fill="#455469" fill-opacity="1"><g transform="translate(102.709464, 19.907641)"><g><path d="M 3.5 -10.53125 L 3.5 0 L 0.9375 0 L 0.9375 -10.53125 Z M 3.5 -10.53125 "/></g></g></g></svg>