<svg xmlns="http://www.w3.org/2000/svg" xmlns:xlink="http://www.w3.org/1999/xlink" width="150" zoomAndPan="magnify" viewBox="0 0 112.5 30.000001" height="40" preserveAspectRatio="xMidYMid meet" version="1.0"><defs><g/><clipPath id="ca8ee1bc56"><path d="M 1.574219 4.472656 L 18.992188 4.472656 L 18.992188 24.550781 L 1.574219 24.550781 Z M 1.574219 4.472656 " clip-rule="nonzero"/></clipPath></defs><g clip-path="url(#ca8ee1bc56)"><path fill="none" d="M 12.097656 24.585938 C 8.15625 24.585938 4.230469 24.585938 0.308594 24.585938 C 0.308594 17.8125 0.308594 11.035156 0.308594 4.261719 C 7.09375 4.261719 13.878906 4.261719 20.664062 4.261719 C 20.664062 11.035156 20.664062 17.8125 20.664062 24.585938 C 17.816406 24.585938 14.964844 24.585938 12.097656 24.585938 M 14.097656 5.890625 C 14.066406 5.871094 14.035156 5.859375 14.007812 5.835938 C 13.570312 5.449219 13.066406 5.171875 12.527344 4.960938 C 12.003906 4.757812 11.460938 4.609375 10.890625 4.617188 C 10.675781 4.621094 10.464844 4.625 10.25 4.617188 C 9.5625 4.585938 8.917969 4.761719 8.300781 5.035156 C 7.175781 5.53125 6.304688 6.3125 5.6875 7.382812 C 5.191406 8.230469 4.972656 9.148438 4.949219 10.117188 C 4.933594 10.667969 4.945312 11.214844 4.945312 11.765625 C 4.945312 11.820312 4.945312 11.878906 4.945312 11.945312 C 4.851562 11.945312 4.777344 11.941406 4.703125 11.945312 C 4.425781 11.957031 4.144531 11.933594 3.878906 11.988281 C 3.273438 12.117188 2.757812 12.417969 2.386719 12.929688 C 2.078125 13.355469 1.898438 13.824219 1.898438 14.367188 C 1.90625 16.914062 1.902344 19.464844 1.902344 22.011719 C 1.902344 22.066406 1.890625 22.121094 1.902344 22.171875 C 2.042969 22.820312 2.335938 23.378906 2.882812 23.777344 C 3.273438 24.058594 3.703125 24.234375 4.203125 24.234375 C 8.457031 24.230469 12.710938 24.230469 16.964844 24.230469 C 17.023438 24.230469 17.085938 24.238281 17.140625 24.222656 C 17.730469 24.078125 18.238281 23.792969 18.605469 23.296875 C 18.914062 22.878906 19.109375 22.417969 19.109375 21.886719 C 19.105469 19.378906 19.105469 16.871094 19.109375 14.363281 C 19.109375 13.707031 18.855469 13.152344 18.414062 12.695312 C 17.9375 12.199219 17.335938 11.945312 16.640625 11.945312 C 16.449219 11.945312 16.257812 11.945312 16.0625 11.945312 C 16.0625 11.589844 16.0625 11.261719 16.0625 10.929688 C 16.066406 10.324219 16.074219 9.71875 15.957031 9.117188 C 15.816406 8.382812 15.546875 7.699219 15.136719 7.074219 C 14.851562 6.636719 14.484375 6.269531 14.097656 5.890625 Z M 14.097656 5.890625 " fill-opacity="1" fill-rule="nonzero"/><path fill="#324054" d="M 14.105469 5.898438 C 14.484375 6.269531 14.851562 6.636719 15.136719 7.074219 C 15.546875 7.699219 15.816406 8.382812 15.957031 9.117188 C 16.074219 9.71875 16.066406 10.324219 16.0625 10.929688 C 16.0625 11.261719 16.0625 11.589844 16.0625 11.945312 C 16.257812 11.945312 16.449219 11.945312 16.640625 11.945312 C 17.335938 11.945312 17.9375 12.199219 18.414062 12.695312 C 18.855469 13.152344 19.109375 13.707031 19.109375 14.363281 C 19.105469 16.871094 19.105469 19.378906 19.109375 21.886719 C 19.109375 22.417969 18.914062 22.878906 18.605469 23.296875 C 18.238281 23.792969 17.730469 24.078125 17.140625 24.222656 C 17.085938 24.238281 17.023438 24.230469 16.964844 24.230469 C 12.710938 24.230469 8.457031 24.230469 4.203125 24.234375 C 3.703125 24.234375 3.273438 24.058594 2.882812 23.777344 C 2.335938 23.378906 2.042969 22.820312 1.902344 22.171875 C 1.890625 22.121094 1.902344 22.066406 1.902344 22.011719 C 1.902344 19.464844 1.90625 16.914062 1.898438 14.367188 C 1.898438 13.824219 2.078125 13.355469 2.386719 12.929688 C 2.757812 12.417969 3.273438 12.117188 3.878906 11.988281 C 4.144531 11.933594 4.425781 11.957031 4.703125 11.945312 C 4.777344 11.941406 4.851562 11.945312 4.945312 11.945312 C 4.945312 11.878906 4.945312 11.820312 4.945312 11.765625 C 4.945312 11.214844 4.933594 10.667969 4.949219 10.117188 C 4.972656 9.148438 5.191406 8.230469 5.6875 7.382812 C 6.304688 6.3125 7.175781 5.53125 8.300781 5.035156 C 8.917969 4.761719 9.5625 4.585938 10.25 4.617188 C 10.464844 4.625 10.675781 4.621094 10.890625 4.617188 C 11.460938 4.609375 12.003906 4.757812 12.527344 4.960938 C 13.066406 5.171875 13.570312 5.449219 14.007812 5.835938 C 14.035156 5.859375 14.066406 5.871094 14.105469 5.898438 M 11.847656 17.292969 C 12.015625 17.28125 12.183594 17.257812 12.351562 17.257812 C 12.582031 17.257812 12.816406 17.273438 13.046875 17.292969 C 13.136719 17.300781 13.222656 17.347656 13.308594 17.378906 C 13.3125 17.402344 13.3125 17.425781 13.316406 17.449219 C 12.65625 17.679688 11.992188 17.910156 11.292969 18.152344 C 11.613281 18.1875 11.890625 18.191406 12.152344 18.257812 C 12.433594 18.328125 12.707031 18.449219 12.972656 18.570312 C 13.273438 18.703125 13.46875 19 13.816406 19.078125 C 13.996094 19.113281 14.109375 19.070312 14.210938 18.945312 C 14.332031 18.796875 14.328125 18.617188 14.332031 18.4375 C 14.332031 18.175781 14.371094 17.929688 14.574219 17.726562 C 14.640625 17.65625 14.695312 17.507812 14.671875 17.417969 C 14.625 17.242188 14.546875 17.054688 14.425781 16.925781 C 14.125 16.605469 13.746094 16.488281 13.292969 16.539062 C 12.695312 16.609375 12.1875 16.816406 11.769531 17.285156 C 11.765625 17.296875 11.761719 17.308594 11.757812 17.320312 C 11.777344 17.3125 11.796875 17.304688 11.847656 17.292969 M 11.527344 7.25 C 10.902344 7.050781 10.265625 7.019531 9.636719 7.207031 C 8.953125 7.410156 8.398438 7.8125 7.992188 8.40625 C 7.671875 8.867188 7.488281 9.382812 7.464844 9.9375 C 7.441406 10.5625 7.460938 11.1875 7.460938 11.8125 C 7.460938 11.855469 7.46875 11.902344 7.46875 11.933594 C 9.503906 11.933594 11.527344 11.933594 13.515625 11.933594 C 13.515625 11.195312 13.542969 10.464844 13.5 9.738281 C 13.484375 9.40625 13.371094 9.0625 13.222656 8.765625 C 12.867188 8.054688 12.308594 7.546875 11.527344 7.25 M 9.429688 16.054688 C 9.523438 16.242188 9.566406 16.441406 9.535156 16.707031 C 9.414062 16.625 9.292969 16.582031 9.242188 16.496094 C 9.023438 16.121094 8.675781 15.941406 8.289062 15.8125 C 8.082031 15.742188 7.886719 15.753906 7.710938 15.917969 C 7.667969 15.957031 7.589844 15.976562 7.523438 15.980469 C 7.242188 15.992188 7.214844 16.011719 7.175781 16.285156 C 7.144531 16.5 7.035156 16.667969 6.859375 16.796875 C 6.652344 16.945312 6.433594 17.082031 6.351562 17.351562 C 6.265625 17.640625 6.234375 17.90625 6.460938 18.160156 C 6.585938 18.304688 6.742188 18.4375 6.773438 18.664062 C 6.792969 18.816406 6.925781 18.960938 7.097656 18.980469 C 7.289062 19 7.492188 18.988281 7.6875 18.957031 C 8.054688 18.902344 8.351562 18.675781 8.671875 18.507812 C 8.847656 18.417969 9.039062 18.378906 9.25 18.492188 C 9.210938 18.558594 9.1875 18.640625 9.132812 18.675781 C 8.917969 18.824219 8.703125 18.980469 8.46875 19.09375 C 7.984375 19.320312 7.550781 19.597656 7.324219 20.109375 C 7.238281 20.300781 7.1875 20.523438 7.34375 20.6875 C 7.503906 20.855469 7.554688 21.042969 7.605469 21.253906 C 7.746094 21.832031 8.089844 22.039062 8.699219 21.878906 C 8.992188 21.800781 9.285156 21.714844 9.582031 21.902344 C 9.703125 21.980469 9.941406 21.914062 10.042969 21.808594 C 10.402344 21.421875 10.492188 20.941406 10.5 20.441406 C 10.503906 20.203125 10.46875 19.964844 10.429688 19.734375 C 10.398438 19.53125 10.339844 19.335938 10.296875 19.136719 C 10.277344 19.140625 10.261719 19.140625 10.246094 19.144531 C 10.226562 19.246094 10.214844 19.355469 10.183594 19.457031 C 10.128906 19.632812 10.066406 19.8125 9.988281 19.980469 C 9.964844 20.03125 9.878906 20.050781 9.820312 20.085938 C 9.800781 20.03125 9.773438 19.972656 9.761719 19.914062 C 9.753906 19.863281 9.761719 19.804688 9.761719 19.75 C 9.621094 20.019531 9.507812 20.296875 9.21875 20.464844 C 9.101562 20.152344 9.269531 19.878906 9.277344 19.589844 C 8.890625 19.859375 8.558594 20.183594 8.125 20.441406 C 8.238281 19.828125 8.589844 19.4375 9.015625 19.097656 C 9.261719 18.902344 9.515625 18.710938 9.757812 18.523438 C 9.214844 18.058594 8.589844 18.117188 7.921875 18.253906 C 8.191406 17.902344 8.515625 17.753906 8.945312 17.703125 C 8.8125 17.570312 8.710938 17.449219 8.59375 17.351562 C 8.480469 17.253906 8.347656 17.179688 8.207031 17.085938 C 8.707031 16.824219 9.390625 17.09375 9.988281 17.769531 C 10.152344 16.9375 9.898438 16.171875 9.773438 15.367188 C 10.136719 15.464844 10.273438 15.773438 10.425781 16.0625 C 10.441406 16.0625 10.460938 16.0625 10.476562 16.058594 C 10.542969 15.777344 10.609375 15.492188 10.683594 15.191406 C 10.816406 15.277344 10.875 15.425781 10.886719 15.5625 C 10.910156 15.851562 10.894531 16.140625 10.894531 16.429688 C 10.894531 16.480469 10.898438 16.53125 10.902344 16.585938 C 11 16.492188 11.046875 16.390625 11.109375 16.296875 C 11.199219 16.15625 11.277344 15.996094 11.398438 15.894531 C 11.675781 15.675781 11.8125 15.421875 11.746094 15.066406 C 11.636719 14.5 11.285156 14.085938 10.847656 13.757812 C 10.558594 13.539062 9.996094 13.667969 9.699219 13.980469 C 9.570312 14.113281 9.449219 14.144531 9.269531 14.136719 C 8.839844 14.113281 8.605469 14.40625 8.730469 14.800781 C 8.878906 15.253906 9.160156 15.636719 9.429688 16.054688 M 11.035156 20.183594 C 11.046875 20.296875 11.078125 20.414062 11.066406 20.527344 C 11.039062 20.785156 10.996094 21.039062 10.945312 21.292969 C 10.90625 21.5 11.019531 21.816406 11.199219 21.9375 C 11.488281 22.125 11.832031 22.097656 12.070312 21.945312 C 12.144531 21.898438 12.242188 21.859375 12.324219 21.867188 C 12.457031 21.878906 12.585938 21.9375 12.71875 21.964844 C 13.054688 22.023438 13.375 21.75 13.371094 21.398438 C 13.367188 21.195312 13.421875 21.023438 13.578125 20.886719 C 13.625 20.847656 13.671875 20.792969 13.683594 20.734375 C 13.761719 20.359375 13.722656 20 13.503906 19.667969 C 13.289062 19.347656 12.976562 19.183594 12.628906 19.0625 C 12.222656 18.917969 11.808594 18.820312 11.328125 18.8125 C 11.660156 18.953125 11.933594 19.109375 12.121094 19.359375 C 12.246094 19.523438 12.324219 19.722656 12.410156 19.914062 C 12.429688 19.953125 12.390625 20.019531 12.378906 20.074219 C 12.328125 20.058594 12.269531 20.054688 12.230469 20.023438 C 12.128906 19.945312 12.042969 19.851562 11.941406 19.773438 C 11.820312 19.679688 11.6875 19.59375 11.582031 19.515625 C 11.605469 19.820312 11.632812 20.109375 11.65625 20.398438 C 11.628906 20.410156 11.601562 20.417969 11.578125 20.429688 C 11.367188 20.144531 11.15625 19.855469 10.949219 19.570312 C 10.929688 19.582031 10.910156 19.59375 10.890625 19.601562 C 10.9375 19.785156 10.988281 19.96875 11.035156 20.183594 M 10.613281 17.707031 C 10.542969 17.839844 10.464844 17.972656 10.414062 18.117188 C 10.390625 18.171875 10.429688 18.25 10.4375 18.320312 C 10.503906 18.304688 10.589844 18.316406 10.625 18.277344 C 10.726562 18.160156 10.828125 18.039062 10.890625 17.902344 C 11.136719 17.347656 11.429688 16.832031 11.847656 16.390625 C 11.945312 16.285156 12.027344 16.164062 12.117188 16.050781 C 12.105469 16.039062 12.089844 16.027344 12.078125 16.015625 C 11.976562 16.09375 11.855469 16.160156 11.773438 16.257812 C 11.386719 16.726562 11.007812 17.207031 10.613281 17.707031 M 13.195312 14.675781 C 13.195312 14.472656 13.113281 14.375 12.988281 14.445312 C 12.933594 14.472656 12.890625 14.554688 12.882812 14.613281 C 12.878906 14.65625 12.9375 14.742188 12.976562 14.746094 C 13.042969 14.753906 13.113281 14.71875 13.195312 14.675781 M 13.625 15.390625 C 13.613281 15.402344 13.59375 15.414062 13.589844 15.429688 C 13.570312 15.496094 13.523438 15.585938 13.550781 15.632812 C 13.582031 15.683594 13.675781 15.695312 13.746094 15.726562 C 13.773438 15.652344 13.832031 15.570312 13.820312 15.5 C 13.816406 15.453125 13.710938 15.421875 13.625 15.390625 M 12.914062 15.890625 C 12.9375 15.996094 13.011719 16.039062 13.105469 16.011719 C 13.152344 15.996094 13.21875 15.933594 13.21875 15.890625 C 13.21875 15.835938 13.175781 15.753906 13.128906 15.726562 C 12.992188 15.652344 12.957031 15.773438 12.914062 15.890625 M 12.609375 15.058594 C 12.535156 15.066406 12.449219 15.046875 12.398438 15.082031 C 12.367188 15.105469 12.375 15.230469 12.410156 15.273438 C 12.4375 15.304688 12.542969 15.308594 12.59375 15.28125 C 12.675781 15.242188 12.703125 15.160156 12.609375 15.058594 M 13.796875 14.761719 C 13.738281 14.753906 13.65625 14.714844 13.617188 14.738281 C 13.578125 14.769531 13.554688 14.863281 13.574219 14.914062 C 13.585938 14.960938 13.675781 15.019531 13.714844 15.007812 C 13.820312 14.980469 13.855469 14.890625 13.796875 14.761719 Z M 13.796875 14.761719 " fill-opacity="1" fill-rule="nonzero"/></g><path fill="none" d="M 11.539062 7.261719 C 12.308594 7.546875 12.867188 8.054688 13.222656 8.765625 C 13.371094 9.0625 13.484375 9.40625 13.5 9.738281 C 13.542969 10.464844 13.515625 11.195312 13.515625 11.933594 C 11.527344 11.933594 9.503906 11.933594 7.46875 11.933594 C 7.46875 11.902344 7.460938 11.855469 7.460938 11.8125 C 7.460938 11.1875 7.441406 10.5625 7.464844 9.9375 C 7.488281 9.382812 7.671875 8.867188 7.992188 8.40625 C 8.398438 7.8125 8.953125 7.410156 9.636719 7.207031 C 10.265625 7.019531 10.902344 7.050781 11.539062 7.261719 Z M 11.539062 7.261719 " fill-opacity="1" fill-rule="nonzero"/><path fill="none" d="M 9.417969 16.046875 C 9.160156 15.636719 8.878906 15.253906 8.730469 14.800781 C 8.605469 14.40625 8.839844 14.113281 9.269531 14.136719 C 9.449219 14.144531 9.570312 14.113281 9.699219 13.980469 C 9.996094 13.667969 10.558594 13.539062 10.847656 13.757812 C 11.285156 14.085938 11.636719 14.5 11.746094 15.066406 C 11.8125 15.421875 11.675781 15.675781 11.398438 15.894531 C 11.277344 15.996094 11.199219 16.15625 11.109375 16.296875 C 11.046875 16.390625 11 16.492188 10.902344 16.585938 C 10.898438 16.53125 10.894531 16.480469 10.894531 16.429688 C 10.894531 16.140625 10.910156 15.851562 10.886719 15.5625 C 10.875 15.425781 10.816406 15.277344 10.683594 15.191406 C 10.609375 15.492188 10.542969 15.777344 10.476562 16.058594 C 10.460938 16.0625 10.441406 16.0625 10.425781 16.0625 C 10.273438 15.773438 10.136719 15.464844 9.773438 15.367188 C 9.898438 16.171875 10.152344 16.9375 9.988281 17.769531 C 9.390625 17.09375 8.707031 16.824219 8.207031 17.085938 C 8.347656 17.179688 8.480469 17.253906 8.59375 17.351562 C 8.710938 17.449219 8.8125 17.570312 8.945312 17.703125 C 8.515625 17.753906 8.191406 17.902344 7.921875 18.253906 C 8.589844 18.117188 9.214844 18.058594 9.757812 18.523438 C 9.515625 18.710938 9.261719 18.902344 9.015625 19.097656 C 8.589844 19.4375 8.238281 19.828125 8.125 20.441406 C 8.558594 20.183594 8.890625 19.859375 9.277344 19.589844 C 9.269531 19.878906 9.101562 20.152344 9.21875 20.464844 C 9.507812 20.296875 9.621094 20.019531 9.761719 19.75 C 9.761719 19.804688 9.753906 19.863281 9.761719 19.914062 C 9.773438 19.972656 9.800781 20.03125 9.820312 20.085938 C 9.878906 20.050781 9.964844 20.03125 9.988281 19.980469 C 10.066406 19.8125 10.128906 19.632812 10.183594 19.457031 C 10.214844 19.355469 10.226562 19.246094 10.246094 19.144531 C 10.261719 19.140625 10.277344 19.140625 10.296875 19.136719 C 10.339844 19.335938 10.398438 19.53125 10.429688 19.734375 C 10.46875 19.964844 10.503906 20.203125 10.5 20.441406 C 10.492188 20.941406 10.402344 21.421875 10.042969 21.808594 C 9.941406 21.914062 9.703125 21.980469 9.582031 21.902344 C 9.285156 21.714844 8.992188 21.800781 8.699219 21.878906 C 8.089844 22.039062 7.746094 21.832031 7.605469 21.253906 C 7.554688 21.042969 7.503906 20.855469 7.34375 20.6875 C 7.1875 20.523438 7.238281 20.300781 7.324219 20.109375 C 7.550781 19.597656 7.984375 19.320312 8.46875 19.09375 C 8.703125 18.980469 8.917969 18.824219 9.132812 18.675781 C 9.1875 18.640625 9.210938 18.558594 9.25 18.492188 C 9.039062 18.378906 8.847656 18.417969 8.671875 18.507812 C 8.351562 18.675781 8.054688 18.902344 7.6875 18.957031 C 7.492188 18.988281 7.289062 19 7.097656 18.980469 C 6.925781 18.960938 6.792969 18.816406 6.773438 18.664062 C 6.742188 18.4375 6.585938 18.304688 6.460938 18.160156 C 6.234375 17.90625 6.265625 17.640625 6.351562 17.351562 C 6.433594 17.082031 6.652344 16.945312 6.859375 16.796875 C 7.035156 16.667969 7.144531 16.5 7.175781 16.285156 C 7.214844 16.011719 7.242188 15.992188 7.523438 15.980469 C 7.589844 15.976562 7.667969 15.957031 7.710938 15.917969 C 7.886719 15.753906 8.082031 15.742188 8.289062 15.8125 C 8.675781 15.941406 9.023438 16.121094 9.242188 16.496094 C 9.292969 16.582031 9.414062 16.625 9.535156 16.707031 C 9.566406 16.441406 9.523438 16.242188 9.417969 16.046875 Z M 9.417969 16.046875 " fill-opacity="1" fill-rule="nonzero"/><path fill="none" d="M 11.035156 20.167969 C 10.988281 19.96875 10.9375 19.785156 10.890625 19.601562 C 10.910156 19.59375 10.929688 19.582031 10.949219 19.570312 C 11.15625 19.855469 11.367188 20.144531 11.578125 20.429688 C 11.601562 20.417969 11.628906 20.410156 11.65625 20.398438 C 11.632812 20.109375 11.605469 19.820312 11.582031 19.515625 C 11.6875 19.59375 11.820312 19.679688 11.941406 19.773438 C 12.042969 19.851562 12.128906 19.945312 12.230469 20.023438 C 12.269531 20.054688 12.328125 20.058594 12.378906 20.074219 C 12.390625 20.019531 12.429688 19.953125 12.410156 19.914062 C 12.324219 19.722656 12.246094 19.523438 12.121094 19.359375 C 11.933594 19.109375 11.660156 18.953125 11.328125 18.8125 C 11.808594 18.820312 12.222656 18.917969 12.628906 19.0625 C 12.976562 19.183594 13.289062 19.347656 13.503906 19.667969 C 13.722656 20 13.761719 20.359375 13.683594 20.734375 C 13.671875 20.792969 13.625 20.847656 13.578125 20.886719 C 13.421875 21.023438 13.367188 21.195312 13.371094 21.398438 C 13.375 21.75 13.054688 22.023438 12.71875 21.964844 C 12.585938 21.9375 12.457031 21.878906 12.324219 21.867188 C 12.242188 21.859375 12.144531 21.898438 12.070312 21.945312 C 11.832031 22.097656 11.488281 22.125 11.199219 21.9375 C 11.019531 21.816406 10.90625 21.5 10.945312 21.292969 C 10.996094 21.039062 11.039062 20.785156 11.066406 20.527344 C 11.078125 20.414062 11.046875 20.296875 11.035156 20.167969 Z M 11.035156 20.167969 " fill-opacity="1" fill-rule="nonzero"/><path fill="none" d="M 11.789062 17.269531 C 12.1875 16.816406 12.695312 16.609375 13.292969 16.539062 C 13.746094 16.488281 14.125 16.605469 14.425781 16.925781 C 14.546875 17.054688 14.625 17.242188 14.671875 17.417969 C 14.695312 17.507812 14.640625 17.65625 14.574219 17.726562 C 14.371094 17.929688 14.332031 18.175781 14.332031 18.4375 C 14.328125 18.617188 14.332031 18.796875 14.210938 18.945312 C 14.109375 19.070312 13.996094 19.113281 13.816406 19.078125 C 13.46875 19 13.273438 18.703125 12.972656 18.570312 C 12.707031 18.449219 12.433594 18.328125 12.152344 18.257812 C 11.890625 18.191406 11.613281 18.1875 11.292969 18.152344 C 11.992188 17.910156 12.65625 17.679688 13.316406 17.449219 C 13.3125 17.425781 13.3125 17.402344 13.308594 17.378906 C 13.222656 17.347656 13.136719 17.300781 13.046875 17.292969 C 12.816406 17.273438 12.582031 17.257812 12.351562 17.257812 C 12.183594 17.257812 12.015625 17.28125 11.824219 17.289062 C 11.796875 17.277344 11.792969 17.273438 11.789062 17.269531 Z M 11.789062 17.269531 " fill-opacity="1" fill-rule="nonzero"/><path fill="none" d="M 10.621094 17.695312 C 11.007812 17.207031 11.386719 16.726562 11.773438 16.257812 C 11.855469 16.160156 11.976562 16.09375 12.078125 16.015625 C 12.089844 16.027344 12.105469 16.039062 12.117188 16.050781 C 12.027344 16.164062 11.945312 16.285156 11.847656 16.390625 C 11.429688 16.832031 11.136719 17.347656 10.890625 17.902344 C 10.828125 18.039062 10.726562 18.160156 10.625 18.277344 C 10.589844 18.316406 10.503906 18.304688 10.4375 18.320312 C 10.429688 18.25 10.390625 18.171875 10.414062 18.117188 C 10.464844 17.972656 10.542969 17.839844 10.621094 17.695312 Z M 10.621094 17.695312 " fill-opacity="1" fill-rule="nonzero"/><path fill="none" d="M 13.191406 14.6875 C 13.113281 14.71875 13.042969 14.753906 12.976562 14.746094 C 12.9375 14.742188 12.878906 14.65625 12.882812 14.613281 C 12.890625 14.554688 12.933594 14.472656 12.988281 14.445312 C 13.113281 14.375 13.195312 14.472656 13.191406 14.6875 Z M 13.191406 14.6875 " fill-opacity="1" fill-rule="nonzero"/><path fill="none" d="M 13.636719 15.386719 C 13.710938 15.421875 13.816406 15.453125 13.820312 15.5 C 13.832031 15.570312 13.773438 15.652344 13.746094 15.726562 C 13.675781 15.695312 13.582031 15.683594 13.550781 15.632812 C 13.523438 15.585938 13.570312 15.496094 13.589844 15.429688 C 13.59375 15.414062 13.613281 15.402344 13.636719 15.386719 Z M 13.636719 15.386719 " fill-opacity="1" fill-rule="nonzero"/><path fill="none" d="M 12.914062 15.878906 C 12.957031 15.773438 12.992188 15.652344 13.128906 15.726562 C 13.175781 15.753906 13.21875 15.835938 13.21875 15.890625 C 13.21875 15.933594 13.152344 15.996094 13.105469 16.011719 C 13.011719 16.039062 12.9375 15.996094 12.914062 15.878906 Z M 12.914062 15.878906 " fill-opacity="1" fill-rule="nonzero"/><path fill="none" d="M 12.617188 15.070312 C 12.703125 15.160156 12.675781 15.242188 12.59375 15.28125 C 12.542969 15.308594 12.4375 15.304688 12.410156 15.273438 C 12.375 15.230469 12.367188 15.105469 12.398438 15.082031 C 12.449219 15.046875 12.535156 15.066406 12.617188 15.070312 Z M 12.617188 15.070312 " fill-opacity="1" fill-rule="nonzero"/><path fill="none" d="M 13.808594 14.773438 C 13.855469 14.890625 13.820312 14.980469 13.714844 15.007812 C 13.675781 15.019531 13.585938 14.960938 13.574219 14.914062 C 13.554688 14.863281 13.578125 14.769531 13.617188 14.738281 C 13.65625 14.714844 13.738281 14.753906 13.808594 14.773438 Z M 13.808594 14.773438 " fill-opacity="1" fill-rule="nonzero"/><path fill="none" d="M 11.808594 17.289062 C 11.796875 17.304688 11.777344 17.3125 11.757812 17.320312 C 11.761719 17.308594 11.765625 17.296875 11.78125 17.277344 C 11.792969 17.273438 11.796875 17.277344 11.808594 17.289062 Z M 11.808594 17.289062 " fill-opacity="1" fill-rule="nonzero"/><g fill="#64768f" fill-opacity="1"><g transform="translate(20.000168, 23.32592)"><g><path d="M 13.6875 -11.203125 L 13.6875 0 L 10.953125 0 L 10.953125 -6.71875 L 8.453125 0 L 6.25 0 L 3.71875 -6.734375 L 3.71875 0 L 0.984375 0 L 0.984375 -11.203125 L 4.21875 -11.203125 L 7.359375 -3.453125 L 10.46875 -11.203125 Z M 13.6875 -11.203125 "/></g></g></g><g fill="#64768f" fill-opacity="1"><g transform="translate(35.073772, 23.32592)"><g><path d="M 10.609375 -11.203125 L 6.71875 -3.703125 L 6.71875 0 L 4 0 L 4 -3.703125 L 0.109375 -11.203125 L 3.203125 -11.203125 L 5.375 -6.515625 L 7.53125 -11.203125 Z M 10.609375 -11.203125 "/></g></g></g><g fill="#455469" fill-opacity="1"><g transform="translate(46.208585, 23.32592)"><g><path d="M 10.703125 -11.203125 L 10.703125 0 L 7.96875 0 L 7.96875 -4.609375 L 3.71875 -4.609375 L 3.71875 0 L 0.984375 0 L 0.984375 -11.203125 L 3.71875 -11.203125 L 3.71875 -6.8125 L 7.96875 -6.8125 L 7.96875 -11.203125 Z M 10.703125 -11.203125 "/></g></g></g><g fill="#455469" fill-opacity="1"><g transform="translate(58.296211, 23.32592)"><g><path d="M 7.96875 -1.984375 L 3.78125 -1.984375 L 3.109375 0 L 0.25 0 L 4.3125 -11.203125 L 7.46875 -11.203125 L 11.53125 0 L 8.640625 0 Z M 7.265625 -4.09375 L 5.875 -8.1875 L 4.5 -4.09375 Z M 7.265625 -4.09375 "/></g></g></g><g fill="#455469" fill-opacity="1"><g transform="translate(70.479635, 23.32592)"><g><path d="M 16.421875 -11.203125 L 13.5 0 L 10.1875 0 L 8.40625 -7.375 L 6.546875 0 L 3.234375 0 L 0.40625 -11.203125 L 3.328125 -11.203125 L 4.9375 -3.046875 L 6.9375 -11.203125 L 9.9375 -11.203125 L 11.84375 -3.046875 L 13.484375 -11.203125 Z M 16.421875 -11.203125 "/></g></g></g><g fill="#455469" fill-opacity="1"><g transform="translate(87.692916, 23.32592)"><g><path d="M 7.96875 -1.984375 L 3.78125 -1.984375 L 3.109375 0 L 0.25 0 L 4.3125 -11.203125 L 7.46875 -11.203125 L 11.53125 0 L 8.640625 0 Z M 7.265625 -4.09375 L 5.875 -8.1875 L 4.5 -4.09375 Z M 7.265625 -4.09375 "/></g></g></g><g fill="#455469" fill-opacity="1"><g transform="translate(99.876339, 23.32592)"><g><path d="M 3.71875 -11.203125 L 3.71875 0 L 0.984375 0 L 0.984375 -11.203125 Z M 3.71875 -11.203125 "/></g></g></g><g fill="#455469" fill-opacity="1"><g transform="translate(105.001998, 23.32592)"><g><path d="M 3.71875 -11.203125 L 3.71875 0 L 0.984375 0 L 0.984375 -11.203125 Z M 3.71875 -11.203125 "/></g></g></g></svg>