<svg xmlns="http://www.w3.org/2000/svg" xmlns:xlink="http://www.w3.org/1999/xlink" width="150" zoomAndPan="magnify" viewBox="0 0 112.5 30.000001" height="40" preserveAspectRatio="xMidYMid meet" version="1.0"><defs><g/><clipPath id="fddf09078e"><path d="M 4.476562 2.902344 L 24.074219 2.902344 L 24.074219 22.5 L 4.476562 22.5 Z M 4.476562 2.902344 " clip-rule="nonzero"/></clipPath><clipPath id="924d1b42bc"><path d="M 6 3 L 23 3 L 23 22.5 L 6 22.5 Z M 6 3 " clip-rule="nonzero"/></clipPath></defs><g clip-path="url(#fddf09078e)"><path fill="#ffffff" d="M 15.820312 22.433594 C 12.039062 22.433594 8.273438 22.433594 4.511719 22.433594 C 4.511719 15.933594 4.511719 9.433594 4.511719 2.9375 C 11.019531 2.9375 17.527344 2.9375 24.039062 2.9375 C 24.039062 9.433594 24.039062 15.933594 24.039062 22.433594 C 21.304688 22.433594 18.570312 22.433594 15.820312 22.433594 M 17.734375 4.5 C 17.707031 4.480469 17.675781 4.46875 17.652344 4.445312 C 17.230469 4.074219 16.75 3.808594 16.230469 3.605469 C 15.726562 3.410156 15.207031 3.269531 14.660156 3.277344 C 14.457031 3.28125 14.25 3.285156 14.046875 3.277344 C 13.386719 3.246094 12.769531 3.417969 12.175781 3.679688 C 11.097656 4.15625 10.265625 4.90625 9.667969 5.929688 C 9.195312 6.746094 8.984375 7.625 8.960938 8.554688 C 8.949219 9.082031 8.957031 9.605469 8.957031 10.132812 C 8.957031 10.1875 8.957031 10.242188 8.957031 10.308594 C 8.871094 10.308594 8.796875 10.304688 8.722656 10.308594 C 8.460938 10.316406 8.191406 10.296875 7.9375 10.347656 C 7.355469 10.472656 6.859375 10.761719 6.503906 11.253906 C 6.210938 11.660156 6.035156 12.109375 6.035156 12.628906 C 6.042969 15.074219 6.039062 17.519531 6.039062 19.964844 C 6.039062 20.015625 6.03125 20.066406 6.039062 20.117188 C 6.175781 20.738281 6.453125 21.277344 6.980469 21.65625 C 7.355469 21.925781 7.765625 22.097656 8.246094 22.097656 C 12.328125 22.089844 16.40625 22.09375 20.488281 22.09375 C 20.546875 22.09375 20.605469 22.097656 20.65625 22.085938 C 21.222656 21.945312 21.707031 21.671875 22.0625 21.199219 C 22.359375 20.796875 22.546875 20.355469 22.542969 19.84375 C 22.542969 17.4375 22.542969 15.03125 22.546875 12.628906 C 22.546875 11.996094 22.304688 11.464844 21.878906 11.023438 C 21.421875 10.550781 20.847656 10.308594 20.179688 10.308594 C 19.992188 10.308594 19.808594 10.308594 19.625 10.308594 C 19.625 9.96875 19.621094 9.648438 19.625 9.332031 C 19.625 8.75 19.632812 8.167969 19.523438 7.59375 C 19.386719 6.886719 19.128906 6.234375 18.734375 5.632812 C 18.460938 5.214844 18.109375 4.863281 17.734375 4.5 Z M 17.734375 4.5 " fill-opacity="1" fill-rule="nonzero"/></g><g clip-path="url(#924d1b42bc)"><path fill="#324054" d="M 17.746094 4.507812 C 18.109375 4.863281 18.460938 5.214844 18.734375 5.632812 C 19.128906 6.234375 19.386719 6.886719 19.523438 7.59375 C 19.632812 8.167969 19.625 8.75 19.625 9.332031 C 19.621094 9.648438 19.625 9.96875 19.625 10.308594 C 19.808594 10.308594 19.992188 10.308594 20.179688 10.308594 C 20.847656 10.308594 21.421875 10.550781 21.878906 11.023438 C 22.304688 11.464844 22.546875 11.996094 22.546875 12.628906 C 22.542969 15.03125 22.542969 17.4375 22.542969 19.84375 C 22.546875 20.355469 22.359375 20.796875 22.0625 21.199219 C 21.707031 21.671875 21.222656 21.945312 20.65625 22.085938 C 20.605469 22.097656 20.546875 22.09375 20.488281 22.09375 C 16.40625 22.09375 12.328125 22.089844 8.246094 22.097656 C 7.765625 22.097656 7.355469 21.925781 6.980469 21.65625 C 6.453125 21.277344 6.175781 20.738281 6.039062 20.117188 C 6.03125 20.066406 6.039062 20.015625 6.039062 19.964844 C 6.039062 17.519531 6.042969 15.074219 6.035156 12.628906 C 6.035156 12.109375 6.210938 11.660156 6.503906 11.253906 C 6.859375 10.761719 7.355469 10.472656 7.9375 10.347656 C 8.191406 10.296875 8.460938 10.316406 8.722656 10.308594 C 8.796875 10.304688 8.871094 10.308594 8.957031 10.308594 C 8.957031 10.242188 8.957031 10.1875 8.957031 10.132812 C 8.957031 9.605469 8.949219 9.082031 8.960938 8.554688 C 8.984375 7.625 9.195312 6.746094 9.667969 5.929688 C 10.265625 4.90625 11.097656 4.15625 12.175781 3.679688 C 12.769531 3.417969 13.386719 3.246094 14.046875 3.277344 C 14.25 3.285156 14.457031 3.28125 14.660156 3.277344 C 15.207031 3.269531 15.726562 3.410156 16.230469 3.605469 C 16.75 3.808594 17.230469 4.074219 17.652344 4.445312 C 17.675781 4.46875 17.707031 4.480469 17.746094 4.507812 M 15.578125 15.4375 C 15.742188 15.425781 15.902344 15.402344 16.0625 15.402344 C 16.285156 15.402344 16.507812 15.417969 16.730469 15.4375 C 16.816406 15.445312 16.898438 15.492188 16.980469 15.519531 C 16.984375 15.542969 16.988281 15.5625 16.988281 15.585938 C 16.351562 15.808594 15.71875 16.027344 15.046875 16.261719 C 15.355469 16.292969 15.621094 16.296875 15.871094 16.359375 C 16.144531 16.429688 16.402344 16.542969 16.660156 16.660156 C 16.945312 16.792969 17.136719 17.074219 17.46875 17.148438 C 17.640625 17.183594 17.75 17.140625 17.847656 17.023438 C 17.960938 16.878906 17.960938 16.707031 17.960938 16.535156 C 17.964844 16.285156 18 16.046875 18.195312 15.851562 C 18.261719 15.785156 18.3125 15.640625 18.289062 15.558594 C 18.242188 15.390625 18.171875 15.207031 18.054688 15.085938 C 17.765625 14.777344 17.402344 14.664062 16.964844 14.714844 C 16.394531 14.78125 15.902344 14.976562 15.507812 15.429688 C 15.5 15.441406 15.496094 15.453125 15.492188 15.464844 C 15.511719 15.453125 15.53125 15.445312 15.578125 15.4375 M 15.273438 5.804688 C 14.671875 5.609375 14.0625 5.582031 13.460938 5.761719 C 12.800781 5.953125 12.273438 6.339844 11.878906 6.910156 C 11.574219 7.355469 11.398438 7.847656 11.375 8.378906 C 11.351562 8.980469 11.371094 9.578125 11.371094 10.179688 C 11.371094 10.222656 11.378906 10.265625 11.378906 10.296875 C 13.332031 10.296875 15.269531 10.296875 17.179688 10.296875 C 17.179688 9.585938 17.207031 8.886719 17.164062 8.191406 C 17.148438 7.871094 17.039062 7.542969 16.898438 7.253906 C 16.558594 6.574219 16.019531 6.085938 15.273438 5.804688 M 13.257812 14.25 C 13.351562 14.429688 13.390625 14.617188 13.359375 14.875 C 13.246094 14.792969 13.128906 14.753906 13.082031 14.671875 C 12.871094 14.3125 12.535156 14.140625 12.164062 14.015625 C 11.964844 13.949219 11.777344 13.960938 11.613281 14.117188 C 11.570312 14.15625 11.492188 14.171875 11.429688 14.175781 C 11.160156 14.191406 11.136719 14.207031 11.097656 14.472656 C 11.066406 14.675781 10.960938 14.839844 10.792969 14.960938 C 10.59375 15.105469 10.382812 15.234375 10.308594 15.492188 C 10.222656 15.769531 10.195312 16.023438 10.410156 16.269531 C 10.535156 16.40625 10.679688 16.53125 10.710938 16.75 C 10.730469 16.894531 10.859375 17.039062 11.023438 17.054688 C 11.207031 17.074219 11.402344 17.0625 11.585938 17.035156 C 11.941406 16.980469 12.226562 16.765625 12.535156 16.605469 C 12.703125 16.515625 12.882812 16.480469 13.085938 16.585938 C 13.050781 16.648438 13.027344 16.726562 12.972656 16.761719 C 12.769531 16.90625 12.5625 17.058594 12.335938 17.164062 C 11.875 17.382812 11.457031 17.648438 11.242188 18.136719 C 11.160156 18.324219 11.109375 18.535156 11.261719 18.691406 C 11.414062 18.851562 11.460938 19.03125 11.511719 19.234375 C 11.644531 19.789062 11.976562 19.988281 12.558594 19.835938 C 12.84375 19.757812 13.121094 19.675781 13.40625 19.859375 C 13.523438 19.933594 13.75 19.871094 13.847656 19.765625 C 14.195312 19.398438 14.277344 18.933594 14.285156 18.453125 C 14.289062 18.230469 14.253906 18 14.21875 17.777344 C 14.191406 17.585938 14.132812 17.398438 14.089844 17.207031 C 14.074219 17.207031 14.058594 17.210938 14.042969 17.210938 C 14.023438 17.3125 14.015625 17.414062 13.984375 17.511719 C 13.929688 17.683594 13.871094 17.851562 13.792969 18.015625 C 13.773438 18.0625 13.691406 18.082031 13.636719 18.117188 C 13.617188 18.0625 13.589844 18.007812 13.578125 17.953125 C 13.570312 17.902344 13.578125 17.847656 13.578125 17.792969 C 13.441406 18.050781 13.332031 18.316406 13.054688 18.480469 C 12.945312 18.179688 13.109375 17.917969 13.113281 17.636719 C 12.742188 17.898438 12.421875 18.210938 12.007812 18.457031 C 12.117188 17.867188 12.453125 17.492188 12.863281 17.167969 C 13.097656 16.980469 13.339844 16.796875 13.574219 16.617188 C 13.054688 16.171875 12.453125 16.226562 11.8125 16.355469 C 12.070312 16.019531 12.382812 15.878906 12.792969 15.828125 C 12.667969 15.703125 12.570312 15.585938 12.457031 15.492188 C 12.347656 15.398438 12.21875 15.328125 12.085938 15.238281 C 12.566406 14.988281 13.222656 15.246094 13.792969 15.894531 C 13.953125 15.097656 13.710938 14.359375 13.589844 13.589844 C 13.941406 13.683594 14.066406 13.980469 14.214844 14.253906 C 14.230469 14.253906 14.246094 14.253906 14.261719 14.253906 C 14.328125 13.980469 14.394531 13.710938 14.460938 13.421875 C 14.589844 13.503906 14.648438 13.644531 14.660156 13.777344 C 14.679688 14.054688 14.664062 14.332031 14.664062 14.609375 C 14.664062 14.65625 14.671875 14.707031 14.671875 14.757812 C 14.765625 14.667969 14.8125 14.570312 14.871094 14.480469 C 14.957031 14.347656 15.03125 14.191406 15.148438 14.09375 C 15.414062 13.882812 15.546875 13.640625 15.480469 13.300781 C 15.375 12.757812 15.039062 12.359375 14.621094 12.042969 C 14.34375 11.835938 13.804688 11.960938 13.515625 12.257812 C 13.394531 12.386719 13.277344 12.414062 13.105469 12.40625 C 12.695312 12.386719 12.46875 12.667969 12.589844 13.042969 C 12.734375 13.480469 13.003906 13.847656 13.257812 14.25 M 14.800781 18.210938 C 14.8125 18.320312 14.84375 18.433594 14.832031 18.539062 C 14.804688 18.785156 14.761719 19.03125 14.714844 19.273438 C 14.675781 19.472656 14.785156 19.777344 14.957031 19.890625 C 15.234375 20.074219 15.5625 20.046875 15.792969 19.898438 C 15.863281 19.855469 15.957031 19.816406 16.035156 19.824219 C 16.164062 19.835938 16.285156 19.894531 16.414062 19.917969 C 16.738281 19.976562 17.042969 19.710938 17.039062 19.375 C 17.039062 19.179688 17.089844 19.015625 17.238281 18.886719 C 17.285156 18.847656 17.328125 18.792969 17.339844 18.738281 C 17.414062 18.375 17.378906 18.03125 17.167969 17.714844 C 16.964844 17.410156 16.664062 17.25 16.332031 17.132812 C 15.941406 16.996094 15.542969 16.902344 15.078125 16.894531 C 15.398438 17.03125 15.660156 17.179688 15.839844 17.417969 C 15.960938 17.578125 16.035156 17.769531 16.121094 17.949219 C 16.136719 17.988281 16.101562 18.050781 16.085938 18.105469 C 16.039062 18.089844 15.984375 18.085938 15.949219 18.054688 C 15.851562 17.980469 15.765625 17.890625 15.667969 17.816406 C 15.550781 17.726562 15.425781 17.644531 15.324219 17.570312 C 15.347656 17.859375 15.371094 18.136719 15.394531 18.417969 C 15.371094 18.425781 15.34375 18.4375 15.320312 18.445312 C 15.117188 18.171875 14.917969 17.894531 14.714844 17.621094 C 14.699219 17.632812 14.679688 17.640625 14.660156 17.652344 C 14.707031 17.828125 14.753906 18.003906 14.800781 18.210938 M 14.394531 15.832031 C 14.328125 15.960938 14.253906 16.089844 14.203125 16.226562 C 14.183594 16.28125 14.21875 16.355469 14.226562 16.421875 C 14.289062 16.410156 14.375 16.417969 14.40625 16.378906 C 14.503906 16.269531 14.601562 16.152344 14.660156 16.019531 C 14.898438 15.492188 15.179688 14.992188 15.578125 14.570312 C 15.671875 14.46875 15.753906 14.355469 15.839844 14.246094 C 15.824219 14.234375 15.8125 14.222656 15.800781 14.210938 C 15.703125 14.289062 15.585938 14.351562 15.507812 14.441406 C 15.136719 14.894531 14.773438 15.355469 14.394531 15.832031 M 16.871094 12.925781 C 16.871094 12.730469 16.792969 12.636719 16.671875 12.703125 C 16.621094 12.730469 16.582031 12.808594 16.574219 12.867188 C 16.570312 12.90625 16.625 12.988281 16.660156 12.992188 C 16.726562 13.003906 16.792969 12.96875 16.871094 12.925781 M 17.285156 13.613281 C 17.273438 13.625 17.253906 13.632812 17.25 13.648438 C 17.234375 13.714844 17.1875 13.800781 17.210938 13.84375 C 17.242188 13.894531 17.335938 13.90625 17.398438 13.933594 C 17.429688 13.863281 17.484375 13.785156 17.472656 13.71875 C 17.464844 13.671875 17.367188 13.640625 17.285156 13.613281 M 16.601562 14.09375 C 16.625 14.191406 16.695312 14.234375 16.785156 14.207031 C 16.832031 14.195312 16.894531 14.132812 16.894531 14.089844 C 16.894531 14.039062 16.855469 13.960938 16.808594 13.933594 C 16.679688 13.863281 16.644531 13.980469 16.601562 14.09375 M 16.308594 13.292969 C 16.238281 13.300781 16.15625 13.285156 16.105469 13.316406 C 16.078125 13.335938 16.085938 13.457031 16.117188 13.496094 C 16.144531 13.53125 16.246094 13.53125 16.296875 13.507812 C 16.371094 13.46875 16.398438 13.390625 16.308594 13.292969 M 17.449219 13.007812 C 17.390625 13 17.3125 12.960938 17.277344 12.988281 C 17.238281 13.015625 17.21875 13.105469 17.234375 13.15625 C 17.246094 13.199219 17.332031 13.253906 17.371094 13.246094 C 17.472656 13.21875 17.503906 13.132812 17.449219 13.007812 Z M 17.449219 13.007812 " fill-opacity="1" fill-rule="nonzero"/></g><path fill="#ffffff" d="M 15.285156 5.8125 C 16.019531 6.085938 16.558594 6.574219 16.898438 7.253906 C 17.039062 7.542969 17.148438 7.871094 17.164062 8.191406 C 17.207031 8.886719 17.179688 9.585938 17.179688 10.296875 C 15.269531 10.296875 13.332031 10.296875 11.378906 10.296875 C 11.378906 10.265625 11.371094 10.222656 11.371094 10.179688 C 11.371094 9.578125 11.351562 8.980469 11.375 8.378906 C 11.398438 7.847656 11.574219 7.355469 11.878906 6.910156 C 12.273438 6.339844 12.800781 5.953125 13.460938 5.761719 C 14.0625 5.582031 14.671875 5.609375 15.285156 5.8125 Z M 15.285156 5.8125 " fill-opacity="1" fill-rule="nonzero"/><path fill="#ffffff" d="M 13.25 14.242188 C 13.003906 13.847656 12.734375 13.480469 12.589844 13.042969 C 12.46875 12.667969 12.695312 12.386719 13.105469 12.40625 C 13.277344 12.414062 13.394531 12.386719 13.515625 12.257812 C 13.804688 11.960938 14.34375 11.835938 14.621094 12.042969 C 15.039062 12.359375 15.375 12.757812 15.480469 13.300781 C 15.546875 13.640625 15.414062 13.882812 15.148438 14.09375 C 15.03125 14.191406 14.957031 14.347656 14.871094 14.480469 C 14.8125 14.570312 14.765625 14.667969 14.671875 14.757812 C 14.671875 14.707031 14.664062 14.65625 14.664062 14.609375 C 14.664062 14.332031 14.679688 14.054688 14.660156 13.777344 C 14.648438 13.644531 14.589844 13.503906 14.460938 13.421875 C 14.394531 13.710938 14.328125 13.980469 14.261719 14.253906 C 14.246094 14.253906 14.230469 14.253906 14.214844 14.253906 C 14.066406 13.980469 13.941406 13.683594 13.589844 13.589844 C 13.710938 14.359375 13.953125 15.097656 13.792969 15.894531 C 13.222656 15.246094 12.566406 14.988281 12.085938 15.238281 C 12.21875 15.328125 12.347656 15.398438 12.457031 15.492188 C 12.570312 15.585938 12.667969 15.703125 12.792969 15.828125 C 12.382812 15.878906 12.070312 16.019531 11.8125 16.355469 C 12.453125 16.226562 13.054688 16.171875 13.574219 16.617188 C 13.339844 16.796875 13.097656 16.980469 12.863281 17.167969 C 12.453125 17.492188 12.117188 17.867188 12.007812 18.457031 C 12.421875 18.210938 12.742188 17.898438 13.113281 17.636719 C 13.109375 17.917969 12.945312 18.179688 13.054688 18.480469 C 13.332031 18.316406 13.441406 18.050781 13.578125 17.792969 C 13.578125 17.847656 13.570312 17.902344 13.578125 17.953125 C 13.589844 18.007812 13.617188 18.0625 13.636719 18.117188 C 13.691406 18.082031 13.773438 18.0625 13.792969 18.015625 C 13.871094 17.851562 13.929688 17.683594 13.984375 17.511719 C 14.015625 17.414062 14.023438 17.3125 14.042969 17.210938 C 14.058594 17.210938 14.074219 17.207031 14.089844 17.207031 C 14.132812 17.398438 14.191406 17.585938 14.21875 17.777344 C 14.253906 18 14.289062 18.230469 14.285156 18.453125 C 14.277344 18.933594 14.195312 19.398438 13.847656 19.765625 C 13.75 19.871094 13.523438 19.933594 13.40625 19.859375 C 13.121094 19.675781 12.84375 19.757812 12.558594 19.835938 C 11.976562 19.988281 11.644531 19.789062 11.511719 19.234375 C 11.460938 19.03125 11.414062 18.851562 11.261719 18.691406 C 11.109375 18.535156 11.160156 18.324219 11.242188 18.136719 C 11.457031 17.648438 11.875 17.382812 12.335938 17.164062 C 12.5625 17.058594 12.769531 16.90625 12.972656 16.761719 C 13.027344 16.726562 13.050781 16.648438 13.085938 16.585938 C 12.882812 16.480469 12.703125 16.515625 12.535156 16.605469 C 12.226562 16.765625 11.941406 16.980469 11.585938 17.035156 C 11.402344 17.0625 11.207031 17.074219 11.023438 17.054688 C 10.859375 17.039062 10.730469 16.894531 10.710938 16.75 C 10.679688 16.53125 10.535156 16.40625 10.410156 16.269531 C 10.195312 16.023438 10.222656 15.769531 10.308594 15.492188 C 10.382812 15.234375 10.59375 15.105469 10.792969 14.960938 C 10.960938 14.839844 11.066406 14.675781 11.097656 14.472656 C 11.136719 14.207031 11.160156 14.191406 11.429688 14.175781 C 11.492188 14.171875 11.570312 14.15625 11.613281 14.117188 C 11.777344 13.960938 11.964844 13.949219 12.164062 14.015625 C 12.535156 14.140625 12.871094 14.3125 13.082031 14.671875 C 13.128906 14.753906 13.246094 14.792969 13.359375 14.875 C 13.390625 14.617188 13.351562 14.429688 13.25 14.242188 Z M 13.25 14.242188 " fill-opacity="1" fill-rule="nonzero"/><path fill="#ffffff" d="M 14.800781 18.195312 C 14.753906 18.003906 14.707031 17.828125 14.660156 17.652344 C 14.679688 17.640625 14.699219 17.632812 14.714844 17.621094 C 14.917969 17.894531 15.117188 18.171875 15.320312 18.445312 C 15.34375 18.4375 15.371094 18.425781 15.394531 18.417969 C 15.371094 18.136719 15.347656 17.859375 15.324219 17.570312 C 15.425781 17.644531 15.550781 17.726562 15.667969 17.816406 C 15.765625 17.890625 15.851562 17.980469 15.949219 18.054688 C 15.984375 18.085938 16.039062 18.089844 16.085938 18.105469 C 16.101562 18.050781 16.136719 17.988281 16.121094 17.949219 C 16.035156 17.769531 15.960938 17.578125 15.839844 17.417969 C 15.660156 17.179688 15.398438 17.03125 15.078125 16.894531 C 15.542969 16.902344 15.941406 16.996094 16.332031 17.132812 C 16.664062 17.25 16.964844 17.410156 17.167969 17.714844 C 17.378906 18.03125 17.414062 18.375 17.339844 18.738281 C 17.328125 18.792969 17.285156 18.847656 17.238281 18.886719 C 17.089844 19.015625 17.039062 19.179688 17.039062 19.375 C 17.042969 19.710938 16.738281 19.976562 16.414062 19.917969 C 16.285156 19.894531 16.164062 19.835938 16.035156 19.824219 C 15.957031 19.816406 15.863281 19.855469 15.792969 19.898438 C 15.5625 20.046875 15.234375 20.074219 14.957031 19.890625 C 14.785156 19.777344 14.675781 19.472656 14.714844 19.273438 C 14.761719 19.03125 14.804688 18.785156 14.832031 18.539062 C 14.84375 18.433594 14.8125 18.320312 14.800781 18.195312 Z M 14.800781 18.195312 " fill-opacity="1" fill-rule="nonzero"/><path fill="#ffffff" d="M 15.519531 15.414062 C 15.902344 14.976562 16.394531 14.78125 16.964844 14.714844 C 17.402344 14.664062 17.765625 14.777344 18.054688 15.085938 C 18.171875 15.207031 18.242188 15.390625 18.289062 15.558594 C 18.3125 15.640625 18.261719 15.785156 18.195312 15.851562 C 18 16.046875 17.964844 16.285156 17.960938 16.535156 C 17.960938 16.707031 17.960938 16.878906 17.847656 17.023438 C 17.75 17.140625 17.640625 17.183594 17.46875 17.148438 C 17.136719 17.074219 16.945312 16.792969 16.660156 16.660156 C 16.402344 16.542969 16.144531 16.429688 15.871094 16.359375 C 15.621094 16.296875 15.355469 16.292969 15.046875 16.261719 C 15.71875 16.027344 16.351562 15.808594 16.988281 15.585938 C 16.988281 15.5625 16.984375 15.542969 16.980469 15.519531 C 16.898438 15.492188 16.816406 15.445312 16.730469 15.4375 C 16.507812 15.417969 16.285156 15.402344 16.0625 15.402344 C 15.902344 15.402344 15.742188 15.425781 15.558594 15.429688 C 15.53125 15.421875 15.527344 15.417969 15.519531 15.414062 Z M 15.519531 15.414062 " fill-opacity="1" fill-rule="nonzero"/><path fill="#ffffff" d="M 14.402344 15.820312 C 14.773438 15.355469 15.136719 14.894531 15.507812 14.441406 C 15.585938 14.351562 15.703125 14.289062 15.800781 14.210938 C 15.8125 14.222656 15.824219 14.234375 15.839844 14.246094 C 15.753906 14.355469 15.671875 14.46875 15.578125 14.570312 C 15.179688 14.992188 14.898438 15.492188 14.660156 16.019531 C 14.601562 16.152344 14.503906 16.269531 14.40625 16.378906 C 14.375 16.417969 14.289062 16.410156 14.226562 16.421875 C 14.21875 16.355469 14.183594 16.28125 14.203125 16.226562 C 14.253906 16.089844 14.328125 15.960938 14.402344 15.820312 Z M 14.402344 15.820312 " fill-opacity="1" fill-rule="nonzero"/><path fill="#ffffff" d="M 16.867188 12.9375 C 16.792969 12.96875 16.726562 13.003906 16.660156 12.992188 C 16.625 12.988281 16.570312 12.90625 16.574219 12.867188 C 16.582031 12.808594 16.621094 12.730469 16.671875 12.703125 C 16.792969 12.636719 16.871094 12.730469 16.867188 12.9375 Z M 16.867188 12.9375 " fill-opacity="1" fill-rule="nonzero"/><path fill="#ffffff" d="M 17.296875 13.605469 C 17.367188 13.640625 17.464844 13.671875 17.472656 13.71875 C 17.484375 13.785156 17.429688 13.863281 17.398438 13.933594 C 17.335938 13.90625 17.242188 13.894531 17.210938 13.84375 C 17.1875 13.800781 17.234375 13.714844 17.25 13.648438 C 17.253906 13.632812 17.273438 13.625 17.296875 13.605469 Z M 17.296875 13.605469 " fill-opacity="1" fill-rule="nonzero"/><path fill="#ffffff" d="M 16.601562 14.078125 C 16.644531 13.980469 16.679688 13.863281 16.808594 13.933594 C 16.855469 13.960938 16.894531 14.039062 16.894531 14.089844 C 16.894531 14.132812 16.832031 14.195312 16.785156 14.207031 C 16.695312 14.234375 16.625 14.191406 16.601562 14.078125 Z M 16.601562 14.078125 " fill-opacity="1" fill-rule="nonzero"/><path fill="#ffffff" d="M 16.320312 13.304688 C 16.398438 13.390625 16.371094 13.46875 16.296875 13.507812 C 16.246094 13.53125 16.144531 13.53125 16.117188 13.496094 C 16.085938 13.457031 16.078125 13.335938 16.105469 13.316406 C 16.15625 13.285156 16.238281 13.300781 16.320312 13.304688 Z M 16.320312 13.304688 " fill-opacity="1" fill-rule="nonzero"/><path fill="#ffffff" d="M 17.460938 13.019531 C 17.503906 13.132812 17.472656 13.21875 17.371094 13.246094 C 17.332031 13.253906 17.246094 13.199219 17.234375 13.15625 C 17.21875 13.105469 17.238281 13.015625 17.277344 12.988281 C 17.3125 12.960938 17.390625 13 17.460938 13.019531 Z M 17.460938 13.019531 " fill-opacity="1" fill-rule="nonzero"/><path fill="#ffffff" d="M 15.542969 15.433594 C 15.53125 15.445312 15.511719 15.453125 15.492188 15.464844 C 15.496094 15.453125 15.5 15.441406 15.515625 15.421875 C 15.527344 15.417969 15.53125 15.421875 15.542969 15.433594 Z M 15.542969 15.433594 " fill-opacity="1" fill-rule="nonzero"/><g fill="#64768f" fill-opacity="1"><g transform="translate(24.307064, 19.596776)"><g><path d="M 12.4375 -10.1875 L 12.4375 0 L 9.953125 0 L 9.953125 -6.109375 L 7.671875 0 L 5.671875 0 L 3.375 -6.125 L 3.375 0 L 0.90625 0 L 0.90625 -10.1875 L 3.828125 -10.1875 L 6.6875 -3.140625 L 9.515625 -10.1875 Z M 12.4375 -10.1875 "/></g></g></g><g fill="#64768f" fill-opacity="1"><g transform="translate(38.01028, 19.596776)"><g><path d="M 9.640625 -10.1875 L 6.109375 -3.375 L 6.109375 0 L 3.625 0 L 3.625 -3.375 L 0.109375 -10.1875 L 2.921875 -10.1875 L 4.890625 -5.921875 L 6.84375 -10.1875 Z M 9.640625 -10.1875 "/></g></g></g><g fill="#455469" fill-opacity="1"><g transform="translate(48.133929, 19.596776)"><g><path d="M 9.71875 -10.1875 L 9.71875 0 L 7.25 0 L 7.25 -4.1875 L 3.375 -4.1875 L 3.375 0 L 0.90625 0 L 0.90625 -10.1875 L 3.375 -10.1875 L 3.375 -6.203125 L 7.25 -6.203125 L 7.25 -10.1875 Z M 9.71875 -10.1875 "/></g></g></g><g fill="#455469" fill-opacity="1"><g transform="translate(59.122624, 19.596776)"><g><path d="M 7.25 -1.796875 L 3.4375 -1.796875 L 2.828125 0 L 0.234375 0 L 3.921875 -10.1875 L 6.796875 -10.1875 L 10.484375 0 L 7.859375 0 Z M 6.609375 -3.71875 L 5.34375 -7.453125 L 4.09375 -3.71875 Z M 6.609375 -3.71875 "/></g></g></g><g fill="#455469" fill-opacity="1"><g transform="translate(70.198424, 19.596776)"><g><path d="M 14.921875 -10.1875 L 12.265625 0 L 9.265625 0 L 7.640625 -6.703125 L 5.953125 0 L 2.953125 0 L 0.359375 -10.1875 L 3.015625 -10.1875 L 4.484375 -2.765625 L 6.296875 -10.1875 L 9.03125 -10.1875 L 10.765625 -2.765625 L 12.25 -10.1875 Z M 14.921875 -10.1875 "/></g></g></g><g fill="#455469" fill-opacity="1"><g transform="translate(85.846795, 19.596776)"><g><path d="M 7.25 -1.796875 L 3.4375 -1.796875 L 2.828125 0 L 0.234375 0 L 3.921875 -10.1875 L 6.796875 -10.1875 L 10.484375 0 L 7.859375 0 Z M 6.609375 -3.71875 L 5.34375 -7.453125 L 4.09375 -3.71875 Z M 6.609375 -3.71875 "/></g></g></g><g fill="#455469" fill-opacity="1"><g transform="translate(96.922594, 19.596776)"><g><path d="M 3.375 -10.1875 L 3.375 0 L 0.90625 0 L 0.90625 -10.1875 Z M 3.375 -10.1875 "/></g></g></g><g fill="#455469" fill-opacity="1"><g transform="translate(101.582265, 19.596776)"><g><path d="M 3.375 -10.1875 L 3.375 0 L 0.90625 0 L 0.90625 -10.1875 Z M 3.375 -10.1875 "/></g></g></g></svg>