<svg xmlns="http://www.w3.org/2000/svg" xmlns:xlink="http://www.w3.org/1999/xlink" width="200" zoomAndPan="magnify" viewBox="0 0 150 30.000001" height="40" preserveAspectRatio="xMidYMid meet" version="1.0"><defs><g/><clipPath id="fb06a55b4e"><path d="M 3.433594 0 L 26.660156 0 L 26.660156 26.128906 L 3.433594 26.128906 Z M 3.433594 0 " clip-rule="nonzero"/></clipPath></defs><g clip-path="url(#fb06a55b4e)"><path fill="none" d="M 17.183594 26.503906 C 12.050781 26.503906 6.945312 26.503906 1.835938 26.503906 C 1.835938 17.683594 1.835938 8.867188 1.835938 0.046875 C 10.667969 0.046875 19.503906 0.046875 28.339844 0.046875 C 28.339844 8.867188 28.339844 17.683594 28.339844 26.503906 C 24.628906 26.503906 20.917969 26.503906 17.183594 26.503906 M 19.785156 2.164062 C 19.746094 2.140625 19.703125 2.125 19.671875 2.09375 C 19.101562 1.59375 18.445312 1.226562 17.742188 0.953125 C 17.058594 0.6875 16.355469 0.496094 15.609375 0.507812 C 15.332031 0.511719 15.054688 0.515625 14.78125 0.503906 C 13.882812 0.464844 13.042969 0.699219 12.238281 1.054688 C 10.777344 1.699219 9.644531 2.71875 8.835938 4.109375 C 8.191406 5.214844 7.90625 6.40625 7.875 7.671875 C 7.859375 8.382812 7.871094 9.097656 7.871094 9.8125 C 7.871094 9.886719 7.871094 9.960938 7.871094 10.046875 C 7.75 10.046875 7.652344 10.046875 7.554688 10.050781 C 7.199219 10.0625 6.832031 10.03125 6.484375 10.105469 C 5.695312 10.273438 5.023438 10.664062 4.542969 11.332031 C 4.140625 11.886719 3.902344 12.496094 3.90625 13.199219 C 3.914062 16.519531 3.910156 19.835938 3.910156 23.15625 C 3.910156 23.222656 3.898438 23.296875 3.910156 23.363281 C 4.09375 24.203125 4.472656 24.933594 5.1875 25.449219 C 5.699219 25.820312 6.253906 26.046875 6.90625 26.046875 C 12.445312 26.039062 17.984375 26.042969 23.519531 26.042969 C 23.597656 26.042969 23.675781 26.050781 23.75 26.03125 C 24.519531 25.84375 25.175781 25.472656 25.65625 24.828125 C 26.058594 24.285156 26.3125 23.683594 26.3125 22.992188 C 26.308594 19.726562 26.308594 16.460938 26.3125 13.195312 C 26.3125 12.339844 25.984375 11.621094 25.40625 11.023438 C 24.785156 10.378906 24.003906 10.050781 23.097656 10.046875 C 22.847656 10.046875 22.597656 10.046875 22.347656 10.046875 C 22.347656 9.585938 22.34375 9.15625 22.347656 8.726562 C 22.347656 7.9375 22.359375 7.148438 22.210938 6.367188 C 22.023438 5.410156 21.675781 4.519531 21.140625 3.703125 C 20.769531 3.136719 20.292969 2.660156 19.785156 2.164062 Z M 19.785156 2.164062 " fill-opacity="1" fill-rule="nonzero"/><path fill="#324054" d="M 19.796875 2.175781 C 20.292969 2.660156 20.769531 3.136719 21.140625 3.703125 C 21.675781 4.519531 22.023438 5.410156 22.210938 6.367188 C 22.359375 7.148438 22.347656 7.9375 22.347656 8.726562 C 22.34375 9.15625 22.347656 9.585938 22.347656 10.046875 C 22.597656 10.046875 22.847656 10.046875 23.097656 10.046875 C 24.003906 10.050781 24.785156 10.378906 25.40625 11.023438 C 25.984375 11.621094 26.3125 12.339844 26.3125 13.195312 C 26.308594 16.460938 26.308594 19.726562 26.3125 22.992188 C 26.3125 23.683594 26.058594 24.285156 25.65625 24.828125 C 25.175781 25.472656 24.519531 25.84375 23.75 26.03125 C 23.675781 26.050781 23.597656 26.042969 23.519531 26.042969 C 17.984375 26.042969 12.445312 26.039062 6.90625 26.046875 C 6.253906 26.046875 5.699219 25.820312 5.1875 25.449219 C 4.472656 24.933594 4.09375 24.203125 3.910156 23.363281 C 3.898438 23.296875 3.910156 23.222656 3.910156 23.15625 C 3.910156 19.835938 3.914062 16.519531 3.90625 13.199219 C 3.902344 12.496094 4.140625 11.886719 4.542969 11.332031 C 5.023438 10.664062 5.695312 10.273438 6.484375 10.105469 C 6.832031 10.03125 7.199219 10.0625 7.554688 10.050781 C 7.652344 10.046875 7.75 10.046875 7.871094 10.046875 C 7.871094 9.960938 7.871094 9.886719 7.871094 9.8125 C 7.871094 9.097656 7.859375 8.382812 7.875 7.671875 C 7.90625 6.40625 8.191406 5.214844 8.835938 4.109375 C 9.644531 2.71875 10.777344 1.699219 12.238281 1.054688 C 13.042969 0.699219 13.882812 0.464844 14.78125 0.503906 C 15.054688 0.515625 15.332031 0.511719 15.609375 0.507812 C 16.355469 0.496094 17.058594 0.6875 17.742188 0.953125 C 18.445312 1.226562 19.101562 1.59375 19.671875 2.09375 C 19.703125 2.125 19.746094 2.140625 19.796875 2.175781 M 16.859375 17.007812 C 17.078125 16.992188 17.292969 16.964844 17.511719 16.964844 C 17.816406 16.964844 18.117188 16.980469 18.417969 17.011719 C 18.535156 17.023438 18.648438 17.082031 18.761719 17.121094 C 18.765625 17.152344 18.765625 17.183594 18.769531 17.210938 C 17.910156 17.511719 17.046875 17.8125 16.136719 18.128906 C 16.554688 18.175781 16.914062 18.175781 17.253906 18.261719 C 17.621094 18.355469 17.976562 18.511719 18.324219 18.671875 C 18.710938 18.847656 18.96875 19.234375 19.421875 19.332031 C 19.65625 19.382812 19.800781 19.324219 19.933594 19.160156 C 20.089844 18.96875 20.089844 18.734375 20.089844 18.5 C 20.09375 18.160156 20.144531 17.839844 20.40625 17.574219 C 20.496094 17.480469 20.566406 17.289062 20.535156 17.171875 C 20.472656 16.945312 20.375 16.699219 20.214844 16.53125 C 19.824219 16.113281 19.332031 15.964844 18.742188 16.03125 C 17.964844 16.117188 17.296875 16.386719 16.757812 17 C 16.753906 17.015625 16.746094 17.03125 16.742188 17.046875 C 16.765625 17.035156 16.792969 17.023438 16.859375 17.007812 M 16.441406 3.9375 C 15.628906 3.671875 14.800781 3.636719 13.980469 3.878906 C 13.089844 4.140625 12.367188 4.664062 11.835938 5.4375 C 11.421875 6.039062 11.183594 6.710938 11.152344 7.433594 C 11.121094 8.246094 11.144531 9.0625 11.144531 9.875 C 11.144531 9.933594 11.15625 9.988281 11.160156 10.03125 C 13.808594 10.03125 16.4375 10.03125 19.027344 10.03125 C 19.027344 9.070312 19.066406 8.121094 19.011719 7.175781 C 18.984375 6.746094 18.839844 6.296875 18.648438 5.90625 C 18.1875 4.980469 17.457031 4.320312 16.441406 3.9375 M 13.710938 15.398438 C 13.835938 15.644531 13.886719 15.898438 13.847656 16.25 C 13.691406 16.140625 13.53125 16.082031 13.464844 15.972656 C 13.179688 15.484375 12.726562 15.25 12.226562 15.082031 C 11.953125 14.988281 11.699219 15.007812 11.476562 15.21875 C 11.417969 15.273438 11.3125 15.296875 11.226562 15.300781 C 10.859375 15.316406 10.828125 15.34375 10.777344 15.699219 C 10.734375 15.980469 10.59375 16.199219 10.363281 16.363281 C 10.09375 16.558594 9.808594 16.734375 9.703125 17.085938 C 9.589844 17.464844 9.546875 17.808594 9.84375 18.140625 C 10.011719 18.328125 10.210938 18.496094 10.25 18.792969 C 10.277344 18.992188 10.449219 19.183594 10.671875 19.207031 C 10.925781 19.234375 11.1875 19.214844 11.441406 19.175781 C 11.917969 19.101562 12.304688 18.8125 12.726562 18.59375 C 12.953125 18.476562 13.199219 18.425781 13.476562 18.570312 C 13.425781 18.65625 13.394531 18.761719 13.324219 18.8125 C 13.042969 19.003906 12.765625 19.207031 12.457031 19.351562 C 11.828125 19.648438 11.265625 20.011719 10.972656 20.675781 C 10.859375 20.925781 10.789062 21.214844 10.996094 21.429688 C 11.203125 21.644531 11.269531 21.890625 11.335938 22.164062 C 11.519531 22.917969 11.96875 23.1875 12.761719 22.976562 C 13.144531 22.878906 13.523438 22.765625 13.90625 23.011719 C 14.066406 23.113281 14.375 23.027344 14.507812 22.886719 C 14.976562 22.382812 15.089844 21.757812 15.101562 21.105469 C 15.109375 20.800781 15.0625 20.492188 15.011719 20.1875 C 14.972656 19.925781 14.898438 19.671875 14.835938 19.414062 C 14.816406 19.414062 14.792969 19.417969 14.773438 19.417969 C 14.746094 19.554688 14.734375 19.695312 14.691406 19.828125 C 14.617188 20.058594 14.539062 20.289062 14.433594 20.507812 C 14.40625 20.574219 14.292969 20.601562 14.21875 20.648438 C 14.195312 20.574219 14.160156 20.5 14.144531 20.421875 C 14.132812 20.355469 14.140625 20.28125 14.140625 20.207031 C 13.957031 20.558594 13.808594 20.917969 13.433594 21.140625 C 13.28125 20.730469 13.503906 20.375 13.511719 20 C 13.007812 20.347656 12.574219 20.773438 12.011719 21.109375 C 12.15625 20.308594 12.617188 19.800781 13.167969 19.359375 C 13.492188 19.105469 13.820312 18.859375 14.136719 18.613281 C 13.429688 18.003906 12.617188 18.082031 11.746094 18.257812 C 12.097656 17.800781 12.519531 17.609375 13.078125 17.542969 C 12.90625 17.371094 12.777344 17.214844 12.621094 17.085938 C 12.472656 16.960938 12.300781 16.863281 12.117188 16.742188 C 12.769531 16.402344 13.660156 16.75 14.433594 17.632812 C 14.652344 16.546875 14.320312 15.550781 14.15625 14.5 C 14.632812 14.632812 14.804688 15.03125 15.007812 15.40625 C 15.027344 15.40625 15.050781 15.40625 15.070312 15.40625 C 15.160156 15.035156 15.246094 14.667969 15.339844 14.273438 C 15.515625 14.386719 15.59375 14.578125 15.609375 14.757812 C 15.636719 15.132812 15.617188 15.507812 15.617188 15.886719 C 15.617188 15.953125 15.625 16.019531 15.628906 16.089844 C 15.753906 15.964844 15.816406 15.832031 15.894531 15.710938 C 16.011719 15.53125 16.113281 15.320312 16.273438 15.191406 C 16.632812 14.902344 16.8125 14.574219 16.722656 14.109375 C 16.582031 13.375 16.128906 12.835938 15.558594 12.40625 C 15.179688 12.125 14.449219 12.292969 14.058594 12.699219 C 13.894531 12.867188 13.734375 12.910156 13.5 12.898438 C 12.941406 12.871094 12.636719 13.253906 12.800781 13.765625 C 12.996094 14.355469 13.359375 14.855469 13.710938 15.398438 M 15.800781 20.773438 C 15.816406 20.921875 15.859375 21.074219 15.839844 21.222656 C 15.804688 21.554688 15.75 21.886719 15.683594 22.214844 C 15.628906 22.488281 15.777344 22.898438 16.015625 23.054688 C 16.390625 23.300781 16.835938 23.265625 17.148438 23.066406 C 17.242188 23.003906 17.371094 22.953125 17.476562 22.960938 C 17.648438 22.976562 17.816406 23.058594 17.988281 23.089844 C 18.429688 23.171875 18.847656 22.8125 18.839844 22.355469 C 18.835938 22.089844 18.90625 21.867188 19.109375 21.691406 C 19.171875 21.640625 19.234375 21.566406 19.25 21.492188 C 19.351562 21 19.300781 20.53125 19.011719 20.101562 C 18.734375 19.6875 18.328125 19.472656 17.878906 19.3125 C 17.347656 19.128906 16.808594 19 16.179688 18.988281 C 16.613281 19.171875 16.96875 19.375 17.214844 19.699219 C 17.375 19.914062 17.480469 20.175781 17.589844 20.421875 C 17.617188 20.472656 17.5625 20.558594 17.546875 20.628906 C 17.484375 20.609375 17.40625 20.605469 17.359375 20.566406 C 17.226562 20.464844 17.109375 20.34375 16.980469 20.242188 C 16.820312 20.117188 16.652344 20.003906 16.511719 19.90625 C 16.542969 20.300781 16.574219 20.675781 16.609375 21.054688 C 16.574219 21.066406 16.539062 21.082031 16.503906 21.09375 C 16.230469 20.722656 15.960938 20.347656 15.6875 19.976562 C 15.660156 19.988281 15.636719 20.003906 15.613281 20.015625 C 15.675781 20.253906 15.738281 20.492188 15.800781 20.773438 M 15.25 17.546875 C 15.160156 17.722656 15.058594 17.898438 14.992188 18.082031 C 14.964844 18.15625 15.007812 18.257812 15.023438 18.34375 C 15.105469 18.328125 15.222656 18.339844 15.269531 18.289062 C 15.398438 18.140625 15.53125 17.980469 15.613281 17.800781 C 15.929688 17.082031 16.316406 16.410156 16.859375 15.832031 C 16.984375 15.695312 17.09375 15.542969 17.210938 15.394531 C 17.191406 15.378906 17.175781 15.363281 17.15625 15.347656 C 17.023438 15.449219 16.867188 15.535156 16.761719 15.660156 C 16.257812 16.273438 15.765625 16.898438 15.25 17.546875 M 18.613281 13.601562 C 18.613281 13.335938 18.503906 13.210938 18.339844 13.300781 C 18.273438 13.339844 18.21875 13.445312 18.207031 13.523438 C 18.199219 13.578125 18.277344 13.6875 18.324219 13.695312 C 18.414062 13.707031 18.507812 13.660156 18.613281 13.601562 M 19.171875 14.535156 C 19.15625 14.550781 19.132812 14.5625 19.125 14.582031 C 19.101562 14.671875 19.039062 14.789062 19.074219 14.847656 C 19.113281 14.914062 19.238281 14.933594 19.328125 14.972656 C 19.367188 14.871094 19.441406 14.769531 19.429688 14.679688 C 19.417969 14.617188 19.285156 14.574219 19.171875 14.535156 M 18.242188 15.1875 C 18.273438 15.320312 18.371094 15.378906 18.492188 15.34375 C 18.558594 15.324219 18.644531 15.238281 18.644531 15.183594 C 18.644531 15.109375 18.585938 15.003906 18.523438 14.96875 C 18.347656 14.875 18.300781 15.03125 18.242188 15.1875 M 17.847656 14.101562 C 17.753906 14.109375 17.640625 14.085938 17.574219 14.132812 C 17.535156 14.160156 17.542969 14.324219 17.589844 14.378906 C 17.628906 14.421875 17.765625 14.425781 17.828125 14.394531 C 17.933594 14.339844 17.96875 14.234375 17.847656 14.101562 M 19.398438 13.714844 C 19.316406 13.703125 19.210938 13.652344 19.164062 13.6875 C 19.113281 13.722656 19.082031 13.847656 19.101562 13.914062 C 19.121094 13.972656 19.238281 14.050781 19.289062 14.035156 C 19.429688 14 19.472656 13.882812 19.398438 13.714844 Z M 19.398438 13.714844 " fill-opacity="1" fill-rule="nonzero"/></g><path fill="none" d="M 16.457031 3.949219 C 17.457031 4.320312 18.1875 4.980469 18.648438 5.90625 C 18.839844 6.296875 18.984375 6.746094 19.011719 7.175781 C 19.066406 8.121094 19.027344 9.070312 19.027344 10.03125 C 16.4375 10.03125 13.808594 10.03125 11.160156 10.03125 C 11.15625 9.988281 11.144531 9.933594 11.144531 9.875 C 11.144531 9.0625 11.121094 8.246094 11.152344 7.433594 C 11.183594 6.710938 11.421875 6.039062 11.835938 5.4375 C 12.367188 4.664062 13.089844 4.140625 13.980469 3.878906 C 14.800781 3.636719 15.628906 3.671875 16.457031 3.949219 Z M 16.457031 3.949219 " fill-opacity="1" fill-rule="nonzero"/><path fill="none" d="M 13.695312 15.386719 C 13.359375 14.855469 12.996094 14.355469 12.800781 13.765625 C 12.636719 13.253906 12.941406 12.871094 13.5 12.898438 C 13.734375 12.910156 13.894531 12.867188 14.058594 12.699219 C 14.449219 12.292969 15.179688 12.125 15.558594 12.40625 C 16.128906 12.835938 16.582031 13.375 16.722656 14.109375 C 16.8125 14.574219 16.632812 14.902344 16.273438 15.191406 C 16.113281 15.320312 16.011719 15.53125 15.894531 15.710938 C 15.816406 15.832031 15.753906 15.964844 15.628906 16.089844 C 15.625 16.019531 15.617188 15.953125 15.617188 15.886719 C 15.617188 15.507812 15.636719 15.132812 15.609375 14.757812 C 15.59375 14.578125 15.515625 14.386719 15.339844 14.273438 C 15.246094 14.667969 15.160156 15.035156 15.070312 15.40625 C 15.050781 15.40625 15.027344 15.40625 15.007812 15.40625 C 14.804688 15.03125 14.632812 14.632812 14.15625 14.5 C 14.320312 15.550781 14.652344 16.546875 14.433594 17.632812 C 13.660156 16.75 12.769531 16.402344 12.117188 16.742188 C 12.300781 16.863281 12.472656 16.960938 12.621094 17.085938 C 12.777344 17.214844 12.90625 17.371094 13.078125 17.542969 C 12.519531 17.609375 12.097656 17.800781 11.746094 18.257812 C 12.617188 18.082031 13.429688 18.003906 14.136719 18.613281 C 13.820312 18.859375 13.492188 19.105469 13.167969 19.359375 C 12.617188 19.800781 12.15625 20.308594 12.011719 21.109375 C 12.574219 20.773438 13.007812 20.347656 13.511719 20 C 13.503906 20.375 13.28125 20.730469 13.433594 21.140625 C 13.808594 20.917969 13.957031 20.558594 14.140625 20.207031 C 14.140625 20.28125 14.132812 20.355469 14.144531 20.421875 C 14.160156 20.5 14.195312 20.574219 14.21875 20.648438 C 14.292969 20.601562 14.40625 20.574219 14.433594 20.507812 C 14.539062 20.289062 14.617188 20.058594 14.691406 19.828125 C 14.734375 19.695312 14.746094 19.554688 14.773438 19.417969 C 14.792969 19.417969 14.816406 19.414062 14.835938 19.414062 C 14.898438 19.671875 14.972656 19.925781 15.011719 20.1875 C 15.0625 20.492188 15.109375 20.800781 15.101562 21.105469 C 15.089844 21.757812 14.976562 22.382812 14.507812 22.886719 C 14.375 23.027344 14.066406 23.113281 13.90625 23.011719 C 13.523438 22.765625 13.144531 22.878906 12.761719 22.976562 C 11.96875 23.1875 11.519531 22.917969 11.335938 22.164062 C 11.269531 21.890625 11.203125 21.644531 10.996094 21.429688 C 10.789062 21.214844 10.859375 20.925781 10.972656 20.675781 C 11.265625 20.011719 11.828125 19.648438 12.457031 19.351562 C 12.765625 19.207031 13.042969 19.003906 13.324219 18.8125 C 13.394531 18.761719 13.425781 18.65625 13.476562 18.570312 C 13.199219 18.425781 12.953125 18.476562 12.726562 18.59375 C 12.304688 18.8125 11.917969 19.101562 11.441406 19.175781 C 11.1875 19.214844 10.925781 19.234375 10.671875 19.207031 C 10.449219 19.183594 10.277344 18.992188 10.25 18.792969 C 10.210938 18.496094 10.011719 18.328125 9.84375 18.140625 C 9.546875 17.808594 9.589844 17.464844 9.703125 17.085938 C 9.808594 16.734375 10.09375 16.558594 10.363281 16.363281 C 10.59375 16.199219 10.734375 15.980469 10.777344 15.699219 C 10.828125 15.34375 10.859375 15.316406 11.226562 15.300781 C 11.3125 15.296875 11.417969 15.273438 11.476562 15.21875 C 11.699219 15.007812 11.953125 14.988281 12.226562 15.082031 C 12.726562 15.25 13.179688 15.484375 13.464844 15.972656 C 13.53125 16.082031 13.691406 16.140625 13.847656 16.25 C 13.886719 15.898438 13.835938 15.644531 13.695312 15.386719 Z M 13.695312 15.386719 " fill-opacity="1" fill-rule="nonzero"/><path fill="none" d="M 15.800781 20.753906 C 15.738281 20.492188 15.675781 20.253906 15.613281 20.015625 C 15.636719 20.003906 15.660156 19.988281 15.6875 19.976562 C 15.960938 20.347656 16.230469 20.722656 16.503906 21.09375 C 16.539062 21.082031 16.574219 21.066406 16.609375 21.054688 C 16.574219 20.675781 16.542969 20.300781 16.511719 19.90625 C 16.652344 20.003906 16.820312 20.117188 16.980469 20.242188 C 17.109375 20.34375 17.226562 20.464844 17.359375 20.566406 C 17.40625 20.605469 17.484375 20.609375 17.546875 20.628906 C 17.5625 20.558594 17.617188 20.472656 17.589844 20.421875 C 17.480469 20.175781 17.375 19.914062 17.214844 19.699219 C 16.96875 19.375 16.613281 19.171875 16.179688 18.988281 C 16.808594 19 17.347656 19.128906 17.878906 19.3125 C 18.328125 19.472656 18.734375 19.6875 19.011719 20.101562 C 19.300781 20.53125 19.351562 21 19.25 21.492188 C 19.234375 21.566406 19.171875 21.640625 19.109375 21.691406 C 18.90625 21.867188 18.835938 22.089844 18.839844 22.355469 C 18.847656 22.8125 18.429688 23.171875 17.988281 23.089844 C 17.816406 23.058594 17.648438 22.976562 17.476562 22.960938 C 17.371094 22.953125 17.242188 23.003906 17.148438 23.066406 C 16.835938 23.265625 16.390625 23.300781 16.015625 23.054688 C 15.777344 22.898438 15.628906 22.488281 15.683594 22.214844 C 15.75 21.886719 15.804688 21.554688 15.839844 21.222656 C 15.859375 21.074219 15.816406 20.921875 15.800781 20.753906 Z M 15.800781 20.753906 " fill-opacity="1" fill-rule="nonzero"/><path fill="none" d="M 16.777344 16.980469 C 17.296875 16.386719 17.964844 16.117188 18.742188 16.03125 C 19.332031 15.964844 19.824219 16.113281 20.214844 16.53125 C 20.375 16.699219 20.472656 16.945312 20.535156 17.171875 C 20.566406 17.289062 20.496094 17.480469 20.40625 17.574219 C 20.144531 17.839844 20.09375 18.160156 20.089844 18.5 C 20.089844 18.734375 20.089844 18.96875 19.933594 19.160156 C 19.800781 19.324219 19.65625 19.382812 19.421875 19.332031 C 18.96875 19.234375 18.710938 18.847656 18.324219 18.671875 C 17.976562 18.511719 17.621094 18.355469 17.253906 18.261719 C 16.914062 18.175781 16.554688 18.175781 16.136719 18.128906 C 17.046875 17.8125 17.910156 17.511719 18.769531 17.210938 C 18.765625 17.183594 18.765625 17.152344 18.761719 17.121094 C 18.648438 17.082031 18.535156 17.023438 18.417969 17.011719 C 18.117188 16.980469 17.816406 16.964844 17.511719 16.964844 C 17.292969 16.964844 17.078125 16.992188 16.828125 17.003906 C 16.792969 16.992188 16.785156 16.988281 16.777344 16.980469 Z M 16.777344 16.980469 " fill-opacity="1" fill-rule="nonzero"/><path fill="none" d="M 15.257812 17.53125 C 15.765625 16.898438 16.257812 16.273438 16.761719 15.660156 C 16.867188 15.535156 17.023438 15.449219 17.15625 15.347656 C 17.175781 15.363281 17.191406 15.378906 17.210938 15.394531 C 17.09375 15.542969 16.984375 15.695312 16.859375 15.832031 C 16.316406 16.410156 15.929688 17.082031 15.613281 17.800781 C 15.53125 17.980469 15.398438 18.140625 15.269531 18.289062 C 15.222656 18.339844 15.105469 18.328125 15.023438 18.34375 C 15.007812 18.257812 14.964844 18.15625 14.992188 18.082031 C 15.058594 17.898438 15.160156 17.722656 15.257812 17.53125 Z M 15.257812 17.53125 " fill-opacity="1" fill-rule="nonzero"/><path fill="none" d="M 18.605469 13.617188 C 18.507812 13.660156 18.414062 13.707031 18.324219 13.695312 C 18.277344 13.6875 18.199219 13.578125 18.207031 13.523438 C 18.21875 13.445312 18.273438 13.339844 18.339844 13.300781 C 18.503906 13.210938 18.613281 13.335938 18.605469 13.617188 Z M 18.605469 13.617188 " fill-opacity="1" fill-rule="nonzero"/><path fill="none" d="M 19.191406 14.527344 C 19.285156 14.574219 19.417969 14.617188 19.429688 14.679688 C 19.441406 14.769531 19.367188 14.871094 19.328125 14.972656 C 19.238281 14.933594 19.113281 14.914062 19.074219 14.847656 C 19.039062 14.789062 19.101562 14.671875 19.125 14.582031 C 19.132812 14.5625 19.15625 14.550781 19.191406 14.527344 Z M 19.191406 14.527344 " fill-opacity="1" fill-rule="nonzero"/><path fill="none" d="M 18.242188 15.167969 C 18.300781 15.03125 18.347656 14.875 18.523438 14.96875 C 18.585938 15.003906 18.644531 15.109375 18.644531 15.183594 C 18.644531 15.238281 18.558594 15.324219 18.492188 15.34375 C 18.371094 15.378906 18.273438 15.320312 18.242188 15.167969 Z M 18.242188 15.167969 " fill-opacity="1" fill-rule="nonzero"/><path fill="none" d="M 17.863281 14.117188 C 17.96875 14.234375 17.933594 14.339844 17.828125 14.394531 C 17.765625 14.425781 17.628906 14.421875 17.589844 14.378906 C 17.542969 14.324219 17.535156 14.160156 17.574219 14.132812 C 17.640625 14.085938 17.753906 14.109375 17.863281 14.117188 Z M 17.863281 14.117188 " fill-opacity="1" fill-rule="nonzero"/><path fill="none" d="M 19.410156 13.726562 C 19.472656 13.882812 19.429688 14 19.289062 14.035156 C 19.238281 14.050781 19.121094 13.972656 19.101562 13.914062 C 19.082031 13.847656 19.113281 13.722656 19.164062 13.6875 C 19.210938 13.652344 19.316406 13.703125 19.410156 13.726562 Z M 19.410156 13.726562 " fill-opacity="1" fill-rule="nonzero"/><path fill="none" d="M 16.808594 17.003906 C 16.792969 17.023438 16.765625 17.035156 16.742188 17.046875 C 16.746094 17.03125 16.753906 17.015625 16.769531 16.992188 C 16.785156 16.988281 16.792969 16.992188 16.808594 17.003906 Z M 16.808594 17.003906 " fill-opacity="1" fill-rule="nonzero"/><g fill="#318fce" fill-opacity="1"><g transform="translate(31.194459, 21.566457)"><g><path d="M 16.109375 -11.734375 C 17.546875 -11.734375 18.691406 -11.296875 19.546875 -10.421875 C 20.398438 -9.546875 20.828125 -8.332031 20.828125 -6.78125 L 20.828125 0 L 17.296875 0 L 17.296875 -6.3125 C 17.296875 -7.0625 17.097656 -7.640625 16.703125 -8.046875 C 16.304688 -8.453125 15.757812 -8.65625 15.0625 -8.65625 C 14.375 -8.65625 13.832031 -8.453125 13.4375 -8.046875 C 13.039062 -7.640625 12.84375 -7.0625 12.84375 -6.3125 L 12.84375 0 L 9.296875 0 L 9.296875 -6.3125 C 9.296875 -7.0625 9.097656 -7.640625 8.703125 -8.046875 C 8.304688 -8.453125 7.765625 -8.65625 7.078125 -8.65625 C 6.378906 -8.65625 5.832031 -8.453125 5.4375 -8.046875 C 5.039062 -7.640625 4.84375 -7.0625 4.84375 -6.3125 L 4.84375 0 L 1.296875 0 L 1.296875 -11.609375 L 4.84375 -11.609375 L 4.84375 -10.15625 C 5.207031 -10.644531 5.679688 -11.03125 6.265625 -11.3125 C 6.847656 -11.59375 7.503906 -11.734375 8.234375 -11.734375 C 9.109375 -11.734375 9.890625 -11.546875 10.578125 -11.171875 C 11.265625 -10.796875 11.804688 -10.265625 12.203125 -9.578125 C 12.597656 -10.210938 13.140625 -10.726562 13.828125 -11.125 C 14.523438 -11.53125 15.285156 -11.734375 16.109375 -11.734375 Z M 16.109375 -11.734375 "/></g></g></g><g fill="#318fce" fill-opacity="1"><g transform="translate(53.390463, 21.566457)"><g><path d="M 13.15625 -11.609375 L 5.875 5.515625 L 2.046875 5.515625 L 4.703125 -0.390625 L -0.015625 -11.609375 L 3.953125 -11.609375 L 6.640625 -4.34375 L 9.296875 -11.609375 Z M 13.15625 -11.609375 "/></g></g></g><g fill="#455469" fill-opacity="1"><g transform="translate(66.709409, 21.566457)"><g><path d="M 13.9375 -14.609375 L 13.9375 0 L 10.390625 0 L 10.390625 -6.015625 L 4.84375 -6.015625 L 4.84375 0 L 1.296875 0 L 1.296875 -14.609375 L 4.84375 -14.609375 L 4.84375 -8.890625 L 10.390625 -8.890625 L 10.390625 -14.609375 Z M 13.9375 -14.609375 "/></g></g></g><g fill="#455469" fill-opacity="1"><g transform="translate(82.082301, 21.566457)"><g><path d="M 10.390625 -2.578125 L 4.9375 -2.578125 L 4.0625 0 L 0.328125 0 L 5.625 -14.609375 L 9.734375 -14.609375 L 15.03125 0 L 11.265625 0 Z M 9.46875 -5.328125 L 7.65625 -10.671875 L 5.875 -5.328125 Z M 9.46875 -5.328125 "/></g></g></g><g fill="#455469" fill-opacity="1"><g transform="translate(97.580001, 21.566457)"><g><path d="M 21.390625 -14.609375 L 17.59375 0 L 13.28125 0 L 10.953125 -9.609375 L 8.53125 0 L 4.21875 0 L 0.515625 -14.609375 L 4.328125 -14.609375 L 6.4375 -3.96875 L 9.03125 -14.609375 L 12.953125 -14.609375 L 15.4375 -3.96875 L 17.5625 -14.609375 Z M 21.390625 -14.609375 "/></g></g></g><g fill="#455469" fill-opacity="1"><g transform="translate(119.630396, 21.566457)"><g><path d="M 10.390625 -2.578125 L 4.9375 -2.578125 L 4.0625 0 L 0.328125 0 L 5.625 -14.609375 L 9.734375 -14.609375 L 15.03125 0 L 11.265625 0 Z M 9.46875 -5.328125 L 7.65625 -10.671875 L 5.875 -5.328125 Z M 9.46875 -5.328125 "/></g></g></g><g fill="#455469" fill-opacity="1"><g transform="translate(135.128095, 21.566457)"><g><path d="M 4.84375 -14.609375 L 4.84375 0 L 1.296875 0 L 1.296875 -14.609375 Z M 4.84375 -14.609375 "/></g></g></g><g fill="#455469" fill-opacity="1"><g transform="translate(141.431234, 21.566457)"><g><path d="M 4.84375 -14.609375 L 4.84375 0 L 1.296875 0 L 1.296875 -14.609375 Z M 4.84375 -14.609375 "/></g></g></g></svg>