<svg xmlns="http://www.w3.org/2000/svg" xmlns:xlink="http://www.w3.org/1999/xlink" width="150" zoomAndPan="magnify" viewBox="0 0 112.5 30.000001" height="40" preserveAspectRatio="xMidYMid meet" version="1.0"><defs><g/><clipPath id="173c0519b0"><path d="M 4.476562 4.472656 L 22.621094 4.472656 L 22.621094 22.621094 L 4.476562 22.621094 Z M 4.476562 4.472656 " clip-rule="nonzero"/></clipPath><clipPath id="809489ca6b"><path d="M 5 4.472656 L 22 4.472656 L 22 22.621094 L 5 22.621094 Z M 5 4.472656 " clip-rule="nonzero"/></clipPath></defs><g clip-path="url(#173c0519b0)"><path fill="#ffffff" d="M 14.917969 22.445312 C 11.4375 22.445312 7.972656 22.445312 4.507812 22.445312 C 4.507812 16.464844 4.507812 10.484375 4.507812 4.503906 C 10.5 4.503906 16.488281 4.503906 22.480469 4.503906 C 22.480469 10.484375 22.480469 16.464844 22.480469 22.445312 C 19.964844 22.445312 17.449219 22.445312 14.917969 22.445312 M 16.679688 5.941406 C 16.65625 5.925781 16.625 5.914062 16.605469 5.894531 C 16.21875 5.554688 15.773438 5.308594 15.296875 5.121094 C 14.832031 4.941406 14.355469 4.808594 13.847656 4.816406 C 13.660156 4.820312 13.472656 4.824219 13.285156 4.816406 C 12.679688 4.789062 12.109375 4.949219 11.5625 5.1875 C 10.570312 5.625 9.804688 6.316406 9.257812 7.257812 C 8.820312 8.007812 8.625 8.816406 8.605469 9.675781 C 8.59375 10.160156 8.601562 10.644531 8.601562 11.128906 C 8.601562 11.179688 8.601562 11.230469 8.601562 11.289062 C 8.519531 11.289062 8.453125 11.285156 8.386719 11.289062 C 8.144531 11.296875 7.894531 11.277344 7.664062 11.328125 C 7.128906 11.441406 6.671875 11.707031 6.34375 12.15625 C 6.074219 12.535156 5.910156 12.949219 5.914062 13.425781 C 5.917969 15.675781 5.914062 17.925781 5.914062 20.175781 C 5.914062 20.222656 5.90625 20.269531 5.917969 20.316406 C 6.042969 20.886719 6.296875 21.382812 6.78125 21.730469 C 7.128906 21.980469 7.503906 22.136719 7.949219 22.136719 C 11.703125 22.132812 15.457031 22.132812 19.214844 22.132812 C 19.265625 22.132812 19.320312 22.140625 19.367188 22.125 C 19.890625 22 20.335938 21.746094 20.660156 21.308594 C 20.933594 20.941406 21.105469 20.535156 21.105469 20.0625 C 21.105469 17.851562 21.101562 15.636719 21.105469 13.421875 C 21.109375 12.84375 20.882812 12.355469 20.492188 11.949219 C 20.070312 11.511719 19.542969 11.289062 18.929688 11.289062 C 18.757812 11.289062 18.589844 11.289062 18.417969 11.289062 C 18.417969 10.976562 18.417969 10.683594 18.417969 10.390625 C 18.417969 9.855469 18.425781 9.320312 18.324219 8.789062 C 18.199219 8.140625 17.960938 7.539062 17.601562 6.984375 C 17.347656 6.601562 17.023438 6.277344 16.679688 5.941406 Z M 16.679688 5.941406 " fill-opacity="1" fill-rule="nonzero"/></g><g clip-path="url(#809489ca6b)"><path fill="#324054" d="M 16.6875 5.949219 C 17.023438 6.277344 17.347656 6.601562 17.601562 6.984375 C 17.960938 7.539062 18.199219 8.140625 18.324219 8.789062 C 18.425781 9.320312 18.417969 9.855469 18.417969 10.390625 C 18.417969 10.683594 18.417969 10.976562 18.417969 11.289062 C 18.589844 11.289062 18.757812 11.289062 18.929688 11.289062 C 19.542969 11.289062 20.070312 11.511719 20.492188 11.949219 C 20.882812 12.355469 21.109375 12.84375 21.105469 13.421875 C 21.101562 15.636719 21.105469 17.851562 21.105469 20.0625 C 21.105469 20.535156 20.933594 20.941406 20.660156 21.308594 C 20.335938 21.746094 19.890625 22 19.367188 22.125 C 19.320312 22.140625 19.265625 22.132812 19.214844 22.132812 C 15.457031 22.132812 11.703125 22.132812 7.949219 22.136719 C 7.503906 22.136719 7.128906 21.980469 6.78125 21.730469 C 6.296875 21.382812 6.042969 20.886719 5.917969 20.316406 C 5.90625 20.269531 5.914062 20.222656 5.914062 20.175781 C 5.914062 17.925781 5.917969 15.675781 5.914062 13.425781 C 5.910156 12.949219 6.074219 12.535156 6.34375 12.15625 C 6.671875 11.707031 7.128906 11.441406 7.664062 11.328125 C 7.894531 11.277344 8.144531 11.296875 8.386719 11.289062 C 8.453125 11.285156 8.519531 11.289062 8.601562 11.289062 C 8.601562 11.230469 8.601562 11.179688 8.601562 11.128906 C 8.601562 10.644531 8.59375 10.160156 8.605469 9.675781 C 8.625 8.816406 8.820312 8.007812 9.257812 7.257812 C 9.804688 6.316406 10.570312 5.625 11.5625 5.1875 C 12.109375 4.949219 12.679688 4.789062 13.285156 4.816406 C 13.472656 4.824219 13.660156 4.820312 13.847656 4.816406 C 14.355469 4.808594 14.832031 4.941406 15.296875 5.121094 C 15.773438 5.308594 16.21875 5.554688 16.605469 5.894531 C 16.625 5.914062 16.65625 5.925781 16.6875 5.949219 M 14.695312 16.007812 C 14.84375 15.996094 14.992188 15.976562 15.140625 15.976562 C 15.34375 15.980469 15.550781 15.988281 15.753906 16.007812 C 15.832031 16.015625 15.910156 16.058594 15.984375 16.085938 C 15.988281 16.105469 15.992188 16.125 15.992188 16.144531 C 15.40625 16.347656 14.824219 16.554688 14.207031 16.765625 C 14.488281 16.796875 14.734375 16.800781 14.964844 16.859375 C 15.214844 16.921875 15.453125 17.027344 15.691406 17.136719 C 15.953125 17.253906 16.128906 17.515625 16.433594 17.582031 C 16.59375 17.617188 16.691406 17.578125 16.78125 17.46875 C 16.886719 17.335938 16.886719 17.179688 16.886719 17.019531 C 16.890625 16.789062 16.925781 16.570312 17.101562 16.390625 C 17.164062 16.328125 17.210938 16.199219 17.1875 16.121094 C 17.148438 15.964844 17.082031 15.796875 16.972656 15.683594 C 16.707031 15.402344 16.375 15.296875 15.972656 15.34375 C 15.445312 15.40625 14.996094 15.585938 14.628906 16 C 14.625 16.011719 14.621094 16.023438 14.617188 16.03125 C 14.632812 16.023438 14.652344 16.019531 14.695312 16.007812 M 14.414062 7.144531 C 13.863281 6.964844 13.300781 6.941406 12.746094 7.105469 C 12.140625 7.28125 11.652344 7.636719 11.289062 8.160156 C 11.007812 8.570312 10.847656 9.023438 10.828125 9.515625 C 10.804688 10.066406 10.820312 10.617188 10.824219 11.171875 C 10.824219 11.210938 10.828125 11.25 10.832031 11.277344 C 12.628906 11.277344 14.410156 11.277344 16.167969 11.277344 C 16.167969 10.625 16.191406 9.980469 16.15625 9.339844 C 16.140625 9.046875 16.039062 8.742188 15.910156 8.480469 C 15.597656 7.851562 15.101562 7.402344 14.414062 7.144531 M 12.5625 14.917969 C 12.644531 15.082031 12.683594 15.257812 12.652344 15.492188 C 12.546875 15.417969 12.441406 15.378906 12.394531 15.304688 C 12.203125 14.976562 11.894531 14.816406 11.554688 14.699219 C 11.371094 14.636719 11.199219 14.648438 11.046875 14.792969 C 11.007812 14.832031 10.933594 14.847656 10.878906 14.847656 C 10.628906 14.863281 10.609375 14.878906 10.570312 15.121094 C 10.542969 15.308594 10.445312 15.457031 10.292969 15.570312 C 10.109375 15.703125 9.914062 15.824219 9.84375 16.0625 C 9.769531 16.316406 9.738281 16.550781 9.941406 16.773438 C 10.050781 16.902344 10.1875 17.019531 10.214844 17.21875 C 10.234375 17.351562 10.351562 17.484375 10.5 17.5 C 10.671875 17.515625 10.851562 17.503906 11.023438 17.476562 C 11.347656 17.425781 11.609375 17.230469 11.894531 17.082031 C 12.046875 17.003906 12.214844 16.96875 12.402344 17.066406 C 12.367188 17.125 12.347656 17.195312 12.296875 17.230469 C 12.109375 17.359375 11.917969 17.5 11.710938 17.597656 C 11.285156 17.800781 10.902344 18.042969 10.703125 18.492188 C 10.628906 18.664062 10.582031 18.859375 10.722656 19.003906 C 10.859375 19.152344 10.90625 19.320312 10.953125 19.503906 C 11.074219 20.015625 11.378906 20.199219 11.917969 20.054688 C 12.175781 19.988281 12.433594 19.910156 12.695312 20.078125 C 12.804688 20.148438 13.011719 20.089844 13.101562 19.992188 C 13.421875 19.652344 13.496094 19.226562 13.507812 18.785156 C 13.507812 18.578125 13.476562 18.367188 13.445312 18.164062 C 13.417969 17.984375 13.367188 17.8125 13.324219 17.636719 C 13.3125 17.640625 13.296875 17.640625 13.28125 17.640625 C 13.265625 17.734375 13.253906 17.828125 13.226562 17.917969 C 13.175781 18.074219 13.121094 18.230469 13.054688 18.378906 C 13.03125 18.425781 12.957031 18.445312 12.90625 18.476562 C 12.890625 18.425781 12.867188 18.375 12.855469 18.324219 C 12.847656 18.277344 12.855469 18.226562 12.855469 18.175781 C 12.730469 18.414062 12.628906 18.660156 12.375 18.808594 C 12.269531 18.53125 12.421875 18.289062 12.425781 18.035156 C 12.085938 18.273438 11.789062 18.5625 11.410156 18.789062 C 11.507812 18.246094 11.820312 17.902344 12.195312 17.601562 C 12.414062 17.429688 12.636719 17.261719 12.851562 17.097656 C 12.371094 16.683594 11.820312 16.738281 11.230469 16.855469 C 11.464844 16.546875 11.753906 16.414062 12.132812 16.371094 C 12.015625 16.253906 11.925781 16.144531 11.824219 16.058594 C 11.722656 15.976562 11.605469 15.910156 11.480469 15.828125 C 11.921875 15.59375 12.527344 15.832031 13.050781 16.429688 C 13.199219 15.695312 12.976562 15.019531 12.863281 14.308594 C 13.1875 14.394531 13.304688 14.667969 13.441406 14.921875 C 13.457031 14.921875 13.46875 14.921875 13.484375 14.921875 C 13.542969 14.671875 13.605469 14.417969 13.667969 14.152344 C 13.785156 14.230469 13.839844 14.359375 13.847656 14.484375 C 13.867188 14.734375 13.855469 14.992188 13.855469 15.246094 C 13.855469 15.292969 13.859375 15.335938 13.859375 15.382812 C 13.949219 15.300781 13.988281 15.210938 14.042969 15.128906 C 14.125 15.003906 14.191406 14.863281 14.300781 14.773438 C 14.542969 14.582031 14.664062 14.355469 14.605469 14.042969 C 14.507812 13.542969 14.199219 13.179688 13.8125 12.886719 C 13.558594 12.695312 13.0625 12.808594 12.796875 13.085938 C 12.6875 13.199219 12.578125 13.226562 12.417969 13.222656 C 12.039062 13.203125 11.832031 13.460938 11.945312 13.808594 C 12.074219 14.210938 12.324219 14.546875 12.5625 14.917969 M 13.980469 18.558594 C 13.988281 18.660156 14.015625 18.765625 14.007812 18.863281 C 13.980469 19.089844 13.945312 19.316406 13.898438 19.539062 C 13.863281 19.722656 13.964844 20.003906 14.125 20.109375 C 14.378906 20.273438 14.679688 20.25 14.894531 20.113281 C 14.957031 20.074219 15.042969 20.039062 15.117188 20.046875 C 15.234375 20.054688 15.347656 20.109375 15.464844 20.132812 C 15.761719 20.1875 16.042969 19.941406 16.039062 19.632812 C 16.039062 19.453125 16.085938 19.304688 16.222656 19.183594 C 16.265625 19.148438 16.308594 19.097656 16.316406 19.046875 C 16.386719 18.714844 16.351562 18.398438 16.15625 18.105469 C 15.96875 17.824219 15.691406 17.679688 15.386719 17.570312 C 15.027344 17.445312 14.660156 17.355469 14.234375 17.347656 C 14.53125 17.476562 14.769531 17.609375 14.9375 17.832031 C 15.046875 17.980469 15.117188 18.152344 15.191406 18.320312 C 15.210938 18.355469 15.175781 18.414062 15.164062 18.464844 C 15.121094 18.449219 15.070312 18.445312 15.035156 18.417969 C 14.945312 18.351562 14.867188 18.269531 14.777344 18.199219 C 14.671875 18.117188 14.554688 18.039062 14.460938 17.972656 C 14.484375 18.238281 14.503906 18.496094 14.527344 18.75 C 14.503906 18.761719 14.480469 18.769531 14.457031 18.777344 C 14.269531 18.523438 14.085938 18.273438 13.902344 18.019531 C 13.882812 18.027344 13.867188 18.039062 13.851562 18.046875 C 13.894531 18.210938 13.9375 18.371094 13.980469 18.558594 M 13.605469 16.371094 C 13.546875 16.492188 13.476562 16.609375 13.429688 16.734375 C 13.410156 16.785156 13.441406 16.855469 13.449219 16.914062 C 13.507812 16.902344 13.585938 16.910156 13.617188 16.875 C 13.707031 16.777344 13.796875 16.667969 13.851562 16.546875 C 14.066406 16.058594 14.328125 15.601562 14.695312 15.210938 C 14.78125 15.117188 14.855469 15.011719 14.933594 14.914062 C 14.921875 14.902344 14.910156 14.890625 14.898438 14.878906 C 14.808594 14.953125 14.703125 15.007812 14.632812 15.09375 C 14.289062 15.507812 13.953125 15.933594 13.605469 16.371094 M 15.886719 13.695312 C 15.886719 13.519531 15.8125 13.433594 15.703125 13.496094 C 15.65625 13.519531 15.617188 13.589844 15.609375 13.644531 C 15.605469 13.679688 15.65625 13.753906 15.691406 13.761719 C 15.75 13.769531 15.8125 13.734375 15.886719 13.695312 M 16.265625 14.328125 C 16.253906 14.339844 16.238281 14.351562 16.234375 14.363281 C 16.21875 14.421875 16.175781 14.503906 16.199219 14.542969 C 16.226562 14.585938 16.3125 14.597656 16.371094 14.625 C 16.398438 14.558594 16.449219 14.488281 16.4375 14.425781 C 16.433594 14.386719 16.339844 14.355469 16.265625 14.328125 M 15.636719 14.773438 C 15.65625 14.863281 15.722656 14.902344 15.804688 14.878906 C 15.847656 14.863281 15.90625 14.808594 15.90625 14.769531 C 15.90625 14.722656 15.867188 14.648438 15.824219 14.625 C 15.707031 14.5625 15.675781 14.667969 15.636719 14.773438 M 15.367188 14.035156 C 15.304688 14.042969 15.226562 14.027344 15.179688 14.058594 C 15.15625 14.074219 15.160156 14.1875 15.191406 14.222656 C 15.21875 14.253906 15.3125 14.257812 15.355469 14.234375 C 15.425781 14.199219 15.449219 14.128906 15.367188 14.035156 M 16.417969 13.773438 C 16.363281 13.765625 16.289062 13.730469 16.257812 13.753906 C 16.222656 13.78125 16.203125 13.863281 16.21875 13.910156 C 16.230469 13.949219 16.308594 14 16.34375 13.992188 C 16.4375 13.96875 16.46875 13.886719 16.417969 13.773438 Z M 16.417969 13.773438 " fill-opacity="1" fill-rule="nonzero"/></g><path fill="#ffffff" d="M 14.425781 7.152344 C 15.101562 7.402344 15.597656 7.851562 15.910156 8.480469 C 16.039062 8.742188 16.140625 9.046875 16.15625 9.339844 C 16.191406 9.980469 16.167969 10.625 16.167969 11.277344 C 14.410156 11.277344 12.628906 11.277344 10.832031 11.277344 C 10.828125 11.25 10.824219 11.210938 10.824219 11.171875 C 10.820312 10.617188 10.804688 10.066406 10.828125 9.515625 C 10.847656 9.023438 11.007812 8.570312 11.289062 8.160156 C 11.652344 7.636719 12.140625 7.28125 12.746094 7.105469 C 13.300781 6.941406 13.863281 6.964844 14.425781 7.152344 Z M 14.425781 7.152344 " fill-opacity="1" fill-rule="nonzero"/><path fill="#ffffff" d="M 12.550781 14.910156 C 12.324219 14.546875 12.074219 14.210938 11.945312 13.808594 C 11.832031 13.460938 12.039062 13.203125 12.417969 13.222656 C 12.578125 13.226562 12.6875 13.199219 12.796875 13.085938 C 13.0625 12.808594 13.558594 12.695312 13.8125 12.886719 C 14.199219 13.179688 14.507812 13.542969 14.605469 14.042969 C 14.664062 14.355469 14.542969 14.582031 14.300781 14.773438 C 14.191406 14.863281 14.125 15.003906 14.042969 15.128906 C 13.988281 15.210938 13.949219 15.300781 13.859375 15.382812 C 13.859375 15.335938 13.855469 15.292969 13.855469 15.246094 C 13.855469 14.992188 13.867188 14.734375 13.847656 14.484375 C 13.839844 14.359375 13.785156 14.230469 13.667969 14.152344 C 13.605469 14.417969 13.542969 14.671875 13.484375 14.921875 C 13.46875 14.921875 13.457031 14.921875 13.441406 14.921875 C 13.304688 14.667969 13.1875 14.394531 12.863281 14.308594 C 12.976562 15.019531 13.199219 15.695312 13.050781 16.429688 C 12.527344 15.832031 11.921875 15.59375 11.480469 15.828125 C 11.605469 15.910156 11.722656 15.976562 11.824219 16.058594 C 11.925781 16.144531 12.015625 16.253906 12.132812 16.371094 C 11.753906 16.414062 11.464844 16.546875 11.230469 16.855469 C 11.820312 16.738281 12.371094 16.683594 12.851562 17.097656 C 12.636719 17.261719 12.414062 17.429688 12.195312 17.601562 C 11.820312 17.902344 11.507812 18.246094 11.410156 18.789062 C 11.789062 18.5625 12.085938 18.273438 12.425781 18.035156 C 12.421875 18.289062 12.269531 18.53125 12.375 18.808594 C 12.628906 18.660156 12.730469 18.414062 12.855469 18.175781 C 12.855469 18.226562 12.847656 18.277344 12.855469 18.324219 C 12.867188 18.375 12.890625 18.425781 12.90625 18.476562 C 12.957031 18.445312 13.03125 18.425781 13.054688 18.378906 C 13.121094 18.230469 13.175781 18.074219 13.226562 17.917969 C 13.253906 17.828125 13.265625 17.734375 13.28125 17.640625 C 13.296875 17.640625 13.3125 17.640625 13.324219 17.636719 C 13.367188 17.8125 13.417969 17.984375 13.445312 18.164062 C 13.476562 18.367188 13.507812 18.578125 13.507812 18.785156 C 13.496094 19.226562 13.421875 19.652344 13.101562 19.992188 C 13.011719 20.089844 12.804688 20.148438 12.695312 20.078125 C 12.433594 19.910156 12.175781 19.988281 11.917969 20.054688 C 11.378906 20.199219 11.074219 20.015625 10.953125 19.503906 C 10.90625 19.320312 10.859375 19.152344 10.722656 19.003906 C 10.582031 18.859375 10.628906 18.664062 10.703125 18.492188 C 10.902344 18.042969 11.285156 17.800781 11.710938 17.597656 C 11.917969 17.5 12.109375 17.359375 12.296875 17.230469 C 12.347656 17.195312 12.367188 17.125 12.402344 17.066406 C 12.214844 16.96875 12.046875 17.003906 11.894531 17.082031 C 11.609375 17.230469 11.347656 17.425781 11.023438 17.476562 C 10.851562 17.503906 10.671875 17.515625 10.5 17.5 C 10.351562 17.484375 10.234375 17.351562 10.214844 17.21875 C 10.1875 17.019531 10.050781 16.902344 9.941406 16.773438 C 9.738281 16.550781 9.769531 16.316406 9.84375 16.0625 C 9.914062 15.824219 10.109375 15.703125 10.292969 15.570312 C 10.445312 15.457031 10.542969 15.308594 10.570312 15.121094 C 10.609375 14.878906 10.628906 14.863281 10.878906 14.847656 C 10.933594 14.847656 11.007812 14.832031 11.046875 14.792969 C 11.199219 14.648438 11.371094 14.636719 11.554688 14.699219 C 11.894531 14.816406 12.203125 14.976562 12.394531 15.304688 C 12.441406 15.378906 12.546875 15.417969 12.652344 15.492188 C 12.683594 15.257812 12.644531 15.082031 12.550781 14.910156 Z M 12.550781 14.910156 " fill-opacity="1" fill-rule="nonzero"/><path fill="#ffffff" d="M 13.980469 18.546875 C 13.9375 18.371094 13.894531 18.210938 13.851562 18.046875 C 13.867188 18.039062 13.882812 18.027344 13.902344 18.019531 C 14.085938 18.273438 14.269531 18.523438 14.457031 18.777344 C 14.480469 18.769531 14.503906 18.761719 14.527344 18.75 C 14.503906 18.496094 14.484375 18.238281 14.460938 17.972656 C 14.554688 18.039062 14.671875 18.117188 14.777344 18.199219 C 14.867188 18.269531 14.945312 18.351562 15.035156 18.417969 C 15.070312 18.445312 15.121094 18.449219 15.164062 18.464844 C 15.175781 18.414062 15.210938 18.355469 15.191406 18.320312 C 15.117188 18.152344 15.046875 17.980469 14.9375 17.832031 C 14.769531 17.609375 14.53125 17.476562 14.234375 17.347656 C 14.660156 17.355469 15.027344 17.445312 15.386719 17.570312 C 15.691406 17.679688 15.96875 17.824219 16.15625 18.105469 C 16.351562 18.398438 16.386719 18.714844 16.316406 19.046875 C 16.308594 19.097656 16.265625 19.148438 16.222656 19.183594 C 16.085938 19.304688 16.039062 19.453125 16.039062 19.632812 C 16.042969 19.941406 15.761719 20.1875 15.464844 20.132812 C 15.347656 20.109375 15.234375 20.054688 15.117188 20.046875 C 15.042969 20.039062 14.957031 20.074219 14.894531 20.113281 C 14.679688 20.25 14.378906 20.273438 14.125 20.109375 C 13.964844 20.003906 13.863281 19.722656 13.898438 19.539062 C 13.945312 19.316406 13.980469 19.089844 14.007812 18.863281 C 14.015625 18.765625 13.988281 18.660156 13.980469 18.546875 Z M 13.980469 18.546875 " fill-opacity="1" fill-rule="nonzero"/><path fill="#ffffff" d="M 14.640625 15.988281 C 14.996094 15.585938 15.445312 15.40625 15.972656 15.34375 C 16.375 15.296875 16.707031 15.402344 16.972656 15.683594 C 17.082031 15.796875 17.148438 15.964844 17.1875 16.121094 C 17.210938 16.199219 17.164062 16.328125 17.101562 16.390625 C 16.925781 16.570312 16.890625 16.789062 16.886719 17.019531 C 16.886719 17.179688 16.886719 17.335938 16.78125 17.46875 C 16.691406 17.578125 16.59375 17.617188 16.433594 17.582031 C 16.128906 17.515625 15.953125 17.253906 15.691406 17.136719 C 15.453125 17.027344 15.214844 16.921875 14.964844 16.859375 C 14.734375 16.800781 14.488281 16.796875 14.207031 16.765625 C 14.824219 16.554688 15.40625 16.347656 15.992188 16.144531 C 15.992188 16.125 15.988281 16.105469 15.984375 16.085938 C 15.910156 16.058594 15.832031 16.015625 15.753906 16.007812 C 15.550781 15.988281 15.34375 15.980469 15.140625 15.976562 C 14.992188 15.976562 14.84375 15.996094 14.675781 16.003906 C 14.652344 15.996094 14.648438 15.992188 14.640625 15.988281 Z M 14.640625 15.988281 " fill-opacity="1" fill-rule="nonzero"/><path fill="#ffffff" d="M 13.613281 16.363281 C 13.953125 15.933594 14.289062 15.507812 14.632812 15.09375 C 14.703125 15.007812 14.808594 14.953125 14.898438 14.878906 C 14.910156 14.890625 14.921875 14.902344 14.933594 14.914062 C 14.855469 15.011719 14.78125 15.117188 14.695312 15.210938 C 14.328125 15.601562 14.066406 16.058594 13.851562 16.546875 C 13.796875 16.667969 13.707031 16.777344 13.617188 16.875 C 13.585938 16.910156 13.507812 16.902344 13.449219 16.914062 C 13.441406 16.855469 13.410156 16.785156 13.429688 16.734375 C 13.476562 16.609375 13.546875 16.492188 13.613281 16.363281 Z M 13.613281 16.363281 " fill-opacity="1" fill-rule="nonzero"/><path fill="#ffffff" d="M 15.878906 13.707031 C 15.8125 13.734375 15.75 13.769531 15.691406 13.761719 C 15.65625 13.753906 15.605469 13.679688 15.609375 13.644531 C 15.617188 13.589844 15.65625 13.519531 15.703125 13.496094 C 15.8125 13.433594 15.886719 13.519531 15.878906 13.707031 Z M 15.878906 13.707031 " fill-opacity="1" fill-rule="nonzero"/><path fill="#ffffff" d="M 16.277344 14.324219 C 16.339844 14.355469 16.433594 14.386719 16.4375 14.425781 C 16.449219 14.488281 16.398438 14.558594 16.371094 14.625 C 16.3125 14.597656 16.226562 14.585938 16.199219 14.542969 C 16.175781 14.503906 16.21875 14.421875 16.234375 14.363281 C 16.238281 14.351562 16.253906 14.339844 16.277344 14.324219 Z M 16.277344 14.324219 " fill-opacity="1" fill-rule="nonzero"/><path fill="#ffffff" d="M 15.636719 14.757812 C 15.675781 14.667969 15.707031 14.5625 15.824219 14.625 C 15.867188 14.648438 15.90625 14.722656 15.90625 14.769531 C 15.90625 14.808594 15.847656 14.863281 15.804688 14.878906 C 15.722656 14.902344 15.65625 14.863281 15.636719 14.757812 Z M 15.636719 14.757812 " fill-opacity="1" fill-rule="nonzero"/><path fill="#ffffff" d="M 15.375 14.046875 C 15.449219 14.128906 15.425781 14.199219 15.355469 14.234375 C 15.3125 14.257812 15.21875 14.253906 15.191406 14.222656 C 15.160156 14.1875 15.15625 14.074219 15.179688 14.058594 C 15.226562 14.027344 15.304688 14.042969 15.375 14.046875 Z M 15.375 14.046875 " fill-opacity="1" fill-rule="nonzero"/><path fill="#ffffff" d="M 16.425781 13.78125 C 16.46875 13.886719 16.4375 13.96875 16.34375 13.992188 C 16.308594 14 16.230469 13.949219 16.21875 13.910156 C 16.203125 13.863281 16.222656 13.78125 16.257812 13.753906 C 16.289062 13.730469 16.363281 13.765625 16.425781 13.78125 Z M 16.425781 13.78125 " fill-opacity="1" fill-rule="nonzero"/><path fill="#ffffff" d="M 14.664062 16.003906 C 14.652344 16.019531 14.632812 16.023438 14.617188 16.03125 C 14.621094 16.023438 14.625 16.011719 14.636719 15.996094 C 14.648438 15.992188 14.652344 15.996094 14.664062 16.003906 Z M 14.664062 16.003906 " fill-opacity="1" fill-rule="nonzero"/><g fill="#64768f" fill-opacity="1"><g transform="translate(24.426732, 20.968034)"><g><path d="M 12.46875 -10.21875 L 12.46875 0 L 9.984375 0 L 9.984375 -6.125 L 7.6875 0 L 5.6875 0 L 3.390625 -6.140625 L 3.390625 0 L 0.90625 0 L 0.90625 -10.21875 L 3.84375 -10.21875 L 6.703125 -3.140625 L 9.546875 -10.21875 Z M 12.46875 -10.21875 "/></g></g></g><g fill="#64768f" fill-opacity="1"><g transform="translate(38.23752, 20.968034)"><g><path d="M 9.65625 -10.21875 L 6.125 -3.375 L 6.125 0 L 3.640625 0 L 3.640625 -3.375 L 0.109375 -10.21875 L 2.921875 -10.21875 L 4.90625 -5.9375 L 6.859375 -10.21875 Z M 9.65625 -10.21875 "/></g></g></g><g fill="#455469" fill-opacity="1"><g transform="translate(48.467871, 20.968034)"><g><path d="M 9.75 -10.21875 L 9.75 0 L 7.265625 0 L 7.265625 -4.203125 L 3.390625 -4.203125 L 3.390625 0 L 0.90625 0 L 0.90625 -10.21875 L 3.390625 -10.21875 L 3.390625 -6.21875 L 7.265625 -6.21875 L 7.265625 -10.21875 Z M 9.75 -10.21875 "/></g></g></g><g fill="#455469" fill-opacity="1"><g transform="translate(59.560188, 20.968034)"><g><path d="M 7.265625 -1.796875 L 3.453125 -1.796875 L 2.84375 0 L 0.234375 0 L 3.921875 -10.21875 L 6.8125 -10.21875 L 10.5 0 L 7.875 0 Z M 6.625 -3.71875 L 5.359375 -7.46875 L 4.109375 -3.71875 Z M 6.625 -3.71875 "/></g></g></g><g fill="#455469" fill-opacity="1"><g transform="translate(70.739723, 20.968034)"><g><path d="M 14.953125 -10.21875 L 12.296875 0 L 9.28125 0 L 7.65625 -6.71875 L 5.96875 0 L 2.953125 0 L 0.359375 -10.21875 L 3.03125 -10.21875 L 4.5 -2.78125 L 6.3125 -10.21875 L 9.046875 -10.21875 L 10.796875 -2.78125 L 12.28125 -10.21875 Z M 14.953125 -10.21875 "/></g></g></g><g fill="#455469" fill-opacity="1"><g transform="translate(86.498518, 20.968034)"><g><path d="M 7.265625 -1.796875 L 3.453125 -1.796875 L 2.84375 0 L 0.234375 0 L 3.921875 -10.21875 L 6.8125 -10.21875 L 10.5 0 L 7.875 0 Z M 6.625 -3.71875 L 5.359375 -7.46875 L 4.109375 -3.71875 Z M 6.625 -3.71875 "/></g></g></g><g fill="#455469" fill-opacity="1"><g transform="translate(97.678053, 20.968034)"><g><path d="M 3.390625 -10.21875 L 3.390625 0 L 0.90625 0 L 0.90625 -10.21875 Z M 3.390625 -10.21875 "/></g></g></g><g fill="#455469" fill-opacity="1"><g transform="translate(102.432105, 20.968034)"><g><path d="M 3.390625 -10.21875 L 3.390625 0 L 0.90625 0 L 0.90625 -10.21875 Z M 3.390625 -10.21875 "/></g></g></g></svg>