<svg xmlns="http://www.w3.org/2000/svg" xmlns:xlink="http://www.w3.org/1999/xlink" width="200" zoomAndPan="magnify" viewBox="0 0 150 30.000001" height="40" preserveAspectRatio="xMidYMid meet" version="1.0"><defs><g/><clipPath id="4b80dff046"><path d="M 3.433594 1.011719 L 27.386719 1.011719 L 27.386719 27.867188 L 3.433594 27.867188 Z M 3.433594 1.011719 " clip-rule="nonzero"/></clipPath><clipPath id="6aafa4c108"><path d="M 3.433594 1.011719 L 27 1.011719 L 27 27.867188 L 3.433594 27.867188 Z M 3.433594 1.011719 " clip-rule="nonzero"/></clipPath><clipPath id="76c8c1dfb9"><path d="M 55 14 L 69 14 L 69 29.03125 L 55 29.03125 Z M 55 14 " clip-rule="nonzero"/></clipPath></defs><g clip-path="url(#4b80dff046)"><path fill="none" d="M 17.464844 28.058594 C 12.230469 28.058594 7.015625 28.058594 1.800781 28.058594 C 1.800781 19.058594 1.800781 10.058594 1.800781 1.058594 C 10.816406 1.058594 19.832031 1.058594 28.847656 1.058594 C 28.847656 10.058594 28.847656 19.058594 28.847656 28.058594 C 25.0625 28.058594 21.277344 28.058594 17.464844 28.058594 M 20.121094 3.222656 C 20.082031 3.199219 20.039062 3.179688 20.003906 3.152344 C 19.421875 2.636719 18.753906 2.265625 18.035156 1.988281 C 17.339844 1.714844 16.621094 1.519531 15.859375 1.53125 C 15.578125 1.535156 15.292969 1.539062 15.011719 1.527344 C 14.097656 1.488281 13.242188 1.726562 12.421875 2.085938 C 10.925781 2.746094 9.769531 3.785156 8.945312 5.203125 C 8.289062 6.332031 7.996094 7.550781 7.96875 8.839844 C 7.949219 9.570312 7.964844 10.296875 7.964844 11.027344 C 7.964844 11.101562 7.964844 11.179688 7.964844 11.265625 C 7.839844 11.265625 7.738281 11.265625 7.640625 11.269531 C 7.273438 11.28125 6.898438 11.25 6.546875 11.324219 C 5.742188 11.496094 5.058594 11.898438 4.566406 12.578125 C 4.15625 13.144531 3.914062 13.765625 3.914062 14.484375 C 3.921875 17.871094 3.917969 21.257812 3.917969 24.640625 C 3.917969 24.714844 3.90625 24.785156 3.921875 24.855469 C 4.109375 25.714844 4.496094 26.460938 5.222656 26.984375 C 5.746094 27.363281 6.3125 27.597656 6.976562 27.59375 C 12.628906 27.585938 18.28125 27.589844 23.933594 27.589844 C 24.011719 27.589844 24.09375 27.597656 24.167969 27.578125 C 24.953125 27.386719 25.621094 27.007812 26.113281 26.351562 C 26.523438 25.796875 26.78125 25.183594 26.78125 24.476562 C 26.777344 21.144531 26.777344 17.8125 26.78125 14.480469 C 26.785156 13.605469 26.445312 12.871094 25.859375 12.261719 C 25.222656 11.605469 24.429688 11.269531 23.503906 11.265625 C 23.246094 11.265625 22.992188 11.265625 22.734375 11.265625 C 22.734375 10.796875 22.734375 10.359375 22.734375 9.917969 C 22.738281 9.113281 22.75 8.308594 22.59375 7.507812 C 22.40625 6.53125 22.050781 5.625 21.503906 4.792969 C 21.125 4.210938 20.636719 3.726562 20.121094 3.222656 Z M 20.121094 3.222656 " fill-opacity="1" fill-rule="nonzero"/></g><g clip-path="url(#6aafa4c108)"><path fill="#324054" d="M 20.132812 3.234375 C 20.636719 3.726562 21.125 4.210938 21.503906 4.792969 C 22.050781 5.625 22.40625 6.53125 22.59375 7.507812 C 22.75 8.308594 22.738281 9.113281 22.734375 9.917969 C 22.734375 10.359375 22.734375 10.796875 22.734375 11.265625 C 22.992188 11.265625 23.246094 11.265625 23.503906 11.265625 C 24.429688 11.269531 25.222656 11.605469 25.859375 12.261719 C 26.445312 12.871094 26.785156 13.605469 26.78125 14.480469 C 26.777344 17.8125 26.777344 21.144531 26.78125 24.476562 C 26.78125 25.183594 26.523438 25.796875 26.113281 26.351562 C 25.621094 27.007812 24.953125 27.386719 24.167969 27.578125 C 24.09375 27.597656 24.011719 27.589844 23.933594 27.589844 C 18.28125 27.589844 12.628906 27.585938 6.976562 27.59375 C 6.3125 27.597656 5.746094 27.363281 5.222656 26.984375 C 4.496094 26.460938 4.109375 25.714844 3.921875 24.855469 C 3.90625 24.785156 3.917969 24.714844 3.917969 24.640625 C 3.917969 21.257812 3.921875 17.871094 3.914062 14.484375 C 3.914062 13.765625 4.15625 13.144531 4.566406 12.578125 C 5.058594 11.898438 5.742188 11.496094 6.546875 11.324219 C 6.898438 11.25 7.273438 11.28125 7.640625 11.269531 C 7.738281 11.265625 7.839844 11.265625 7.964844 11.265625 C 7.964844 11.179688 7.964844 11.101562 7.964844 11.027344 C 7.964844 10.296875 7.949219 9.570312 7.96875 8.839844 C 7.996094 7.550781 8.289062 6.332031 8.945312 5.203125 C 9.769531 3.785156 10.925781 2.746094 12.421875 2.085938 C 13.242188 1.726562 14.097656 1.488281 15.011719 1.527344 C 15.292969 1.539062 15.578125 1.535156 15.859375 1.53125 C 16.621094 1.519531 17.339844 1.714844 18.035156 1.988281 C 18.753906 2.265625 19.421875 2.636719 20.003906 3.152344 C 20.039062 3.179688 20.082031 3.199219 20.132812 3.234375 M 17.132812 18.371094 C 17.355469 18.355469 17.578125 18.324219 17.800781 18.324219 C 18.109375 18.328125 18.417969 18.34375 18.726562 18.371094 C 18.84375 18.382812 18.960938 18.445312 19.074219 18.484375 C 19.078125 18.515625 19.082031 18.546875 19.085938 18.578125 C 18.207031 18.882812 17.324219 19.191406 16.398438 19.511719 C 16.824219 19.5625 17.191406 19.5625 17.539062 19.652344 C 17.914062 19.746094 18.277344 19.90625 18.628906 20.066406 C 19.027344 20.246094 19.289062 20.640625 19.75 20.742188 C 19.988281 20.792969 20.136719 20.734375 20.273438 20.566406 C 20.433594 20.371094 20.429688 20.132812 20.433594 19.894531 C 20.4375 19.546875 20.488281 19.21875 20.753906 18.945312 C 20.847656 18.851562 20.917969 18.65625 20.886719 18.539062 C 20.820312 18.304688 20.722656 18.054688 20.558594 17.882812 C 20.160156 17.457031 19.65625 17.304688 19.054688 17.371094 C 18.261719 17.460938 17.582031 17.738281 17.03125 18.359375 C 17.027344 18.375 17.019531 18.394531 17.015625 18.410156 C 17.039062 18.398438 17.066406 18.386719 17.132812 18.371094 M 16.710938 5.03125 C 15.878906 4.761719 15.035156 4.722656 14.199219 4.96875 C 13.289062 5.238281 12.550781 5.773438 12.007812 6.5625 C 11.585938 7.175781 11.34375 7.859375 11.3125 8.597656 C 11.277344 9.425781 11.304688 10.257812 11.304688 11.089844 C 11.304688 11.148438 11.3125 11.207031 11.316406 11.25 C 14.023438 11.25 16.707031 11.25 19.347656 11.25 C 19.347656 10.269531 19.386719 9.296875 19.332031 8.335938 C 19.304688 7.894531 19.15625 7.4375 18.960938 7.039062 C 18.488281 6.09375 17.746094 5.421875 16.710938 5.03125 M 13.921875 16.726562 C 14.046875 16.976562 14.101562 17.238281 14.058594 17.59375 C 13.902344 17.484375 13.738281 17.425781 13.671875 17.3125 C 13.382812 16.816406 12.917969 16.578125 12.40625 16.402344 C 12.128906 16.308594 11.871094 16.328125 11.640625 16.542969 C 11.582031 16.597656 11.472656 16.621094 11.386719 16.625 C 11.011719 16.644531 10.980469 16.671875 10.925781 17.035156 C 10.882812 17.320312 10.738281 17.542969 10.503906 17.710938 C 10.230469 17.910156 9.9375 18.089844 9.832031 18.449219 C 9.71875 18.835938 9.671875 19.1875 9.976562 19.523438 C 10.144531 19.714844 10.347656 19.890625 10.390625 20.191406 C 10.417969 20.394531 10.59375 20.589844 10.820312 20.613281 C 11.078125 20.640625 11.347656 20.625 11.605469 20.582031 C 12.09375 20.507812 12.488281 20.210938 12.914062 19.988281 C 13.148438 19.867188 13.398438 19.816406 13.683594 19.964844 C 13.628906 20.050781 13.597656 20.160156 13.527344 20.210938 C 13.238281 20.40625 12.957031 20.617188 12.644531 20.761719 C 12 21.066406 11.425781 21.433594 11.125 22.113281 C 11.011719 22.367188 10.941406 22.660156 11.152344 22.882812 C 11.363281 23.101562 11.429688 23.351562 11.5 23.632812 C 11.683594 24.398438 12.144531 24.675781 12.953125 24.460938 C 13.34375 24.359375 13.730469 24.246094 14.121094 24.496094 C 14.285156 24.601562 14.597656 24.511719 14.734375 24.367188 C 15.214844 23.855469 15.332031 23.214844 15.34375 22.550781 C 15.347656 22.238281 15.300781 21.925781 15.25 21.613281 C 15.210938 21.347656 15.132812 21.085938 15.070312 20.824219 C 15.050781 20.824219 15.027344 20.828125 15.003906 20.828125 C 14.980469 20.96875 14.964844 21.113281 14.921875 21.246094 C 14.847656 21.484375 14.765625 21.71875 14.660156 21.941406 C 14.628906 22.007812 14.515625 22.039062 14.441406 22.082031 C 14.414062 22.007812 14.378906 21.933594 14.363281 21.855469 C 14.351562 21.785156 14.363281 21.710938 14.363281 21.636719 C 14.175781 21.992188 14.023438 22.363281 13.640625 22.585938 C 13.484375 22.167969 13.710938 21.804688 13.714844 21.421875 C 13.203125 21.78125 12.761719 22.214844 12.1875 22.554688 C 12.335938 21.738281 12.804688 21.222656 13.371094 20.769531 C 13.699219 20.507812 14.035156 20.257812 14.359375 20.007812 C 13.632812 19.386719 12.804688 19.46875 11.917969 19.648438 C 12.273438 19.179688 12.707031 18.984375 13.277344 18.914062 C 13.101562 18.738281 12.96875 18.578125 12.808594 18.449219 C 12.65625 18.320312 12.480469 18.222656 12.292969 18.097656 C 12.960938 17.75 13.867188 18.105469 14.660156 19.007812 C 14.882812 17.902344 14.546875 16.882812 14.375 15.8125 C 14.863281 15.945312 15.039062 16.355469 15.246094 16.734375 C 15.265625 16.734375 15.289062 16.734375 15.3125 16.734375 C 15.402344 16.355469 15.488281 15.980469 15.585938 15.582031 C 15.761719 15.695312 15.84375 15.890625 15.859375 16.074219 C 15.886719 16.457031 15.867188 16.839844 15.867188 17.222656 C 15.867188 17.292969 15.875 17.363281 15.878906 17.429688 C 16.007812 17.308594 16.070312 17.171875 16.152344 17.046875 C 16.273438 16.863281 16.375 16.648438 16.539062 16.515625 C 16.902344 16.222656 17.085938 15.882812 16.996094 15.414062 C 16.851562 14.660156 16.386719 14.113281 15.804688 13.675781 C 15.421875 13.382812 14.675781 13.554688 14.277344 13.972656 C 14.109375 14.144531 13.945312 14.1875 13.707031 14.175781 C 13.136719 14.148438 12.824219 14.539062 12.996094 15.058594 C 13.191406 15.664062 13.5625 16.171875 13.921875 16.726562 M 16.054688 22.210938 C 16.070312 22.363281 16.113281 22.519531 16.097656 22.667969 C 16.058594 23.007812 16.003906 23.347656 15.9375 23.683594 C 15.878906 23.960938 16.03125 24.382812 16.273438 24.539062 C 16.65625 24.792969 17.113281 24.757812 17.429688 24.550781 C 17.527344 24.488281 17.65625 24.4375 17.765625 24.445312 C 17.941406 24.460938 18.113281 24.542969 18.289062 24.578125 C 18.738281 24.660156 19.164062 24.292969 19.15625 23.824219 C 19.152344 23.554688 19.222656 23.328125 19.433594 23.148438 C 19.492188 23.097656 19.558594 23.019531 19.574219 22.945312 C 19.675781 22.445312 19.625 21.96875 19.332031 21.527344 C 19.050781 21.101562 18.632812 20.886719 18.175781 20.722656 C 17.632812 20.535156 17.082031 20.402344 16.441406 20.390625 C 16.882812 20.578125 17.246094 20.785156 17.496094 21.117188 C 17.660156 21.335938 17.765625 21.601562 17.882812 21.851562 C 17.90625 21.90625 17.855469 21.992188 17.835938 22.066406 C 17.773438 22.042969 17.695312 22.039062 17.644531 22 C 17.507812 21.898438 17.390625 21.773438 17.257812 21.667969 C 17.09375 21.542969 16.921875 21.429688 16.777344 21.324219 C 16.8125 21.730469 16.847656 22.113281 16.878906 22.5 C 16.84375 22.511719 16.808594 22.527344 16.773438 22.539062 C 16.496094 22.160156 16.214844 21.777344 15.9375 21.398438 C 15.914062 21.414062 15.886719 21.425781 15.863281 21.441406 C 15.925781 21.683594 15.992188 21.925781 16.054688 22.210938 M 15.492188 18.917969 C 15.402344 19.101562 15.296875 19.277344 15.226562 19.464844 C 15.199219 19.542969 15.246094 19.644531 15.261719 19.734375 C 15.347656 19.71875 15.464844 19.730469 15.511719 19.675781 C 15.644531 19.527344 15.78125 19.363281 15.863281 19.179688 C 16.1875 18.445312 16.578125 17.757812 17.132812 17.171875 C 17.265625 17.03125 17.375 16.875 17.492188 16.722656 C 17.476562 16.707031 17.457031 16.691406 17.4375 16.675781 C 17.304688 16.78125 17.144531 16.867188 17.035156 16.996094 C 16.519531 17.621094 16.019531 18.257812 15.492188 18.917969 M 18.921875 14.890625 C 18.925781 14.625 18.8125 14.496094 18.648438 14.589844 C 18.578125 14.625 18.519531 14.730469 18.511719 14.8125 C 18.503906 14.871094 18.582031 14.980469 18.632812 14.988281 C 18.71875 15 18.816406 14.953125 18.921875 14.890625 M 19.496094 15.84375 C 19.480469 15.863281 19.453125 15.875 19.449219 15.894531 C 19.421875 15.988281 19.359375 16.105469 19.394531 16.164062 C 19.4375 16.234375 19.566406 16.25 19.65625 16.292969 C 19.695312 16.191406 19.769531 16.085938 19.757812 15.992188 C 19.746094 15.929688 19.609375 15.882812 19.496094 15.84375 M 18.546875 16.511719 C 18.578125 16.648438 18.679688 16.707031 18.800781 16.671875 C 18.867188 16.652344 18.957031 16.566406 18.957031 16.507812 C 18.957031 16.433594 18.898438 16.324219 18.832031 16.289062 C 18.65625 16.195312 18.605469 16.351562 18.546875 16.511719 M 18.144531 15.40625 C 18.046875 15.410156 17.929688 15.390625 17.863281 15.4375 C 17.824219 15.464844 17.835938 15.632812 17.882812 15.6875 C 17.917969 15.730469 18.058594 15.734375 18.125 15.699219 C 18.230469 15.648438 18.269531 15.539062 18.144531 15.40625 M 19.726562 15.011719 C 19.644531 14.996094 19.535156 14.945312 19.488281 14.980469 C 19.433594 15.019531 19.402344 15.144531 19.425781 15.210938 C 19.445312 15.269531 19.5625 15.351562 19.613281 15.335938 C 19.757812 15.300781 19.800781 15.179688 19.726562 15.011719 Z M 19.726562 15.011719 " fill-opacity="1" fill-rule="nonzero"/></g><path fill="none" d="M 16.722656 5.042969 C 17.746094 5.421875 18.488281 6.09375 18.960938 7.039062 C 19.15625 7.4375 19.304688 7.894531 19.332031 8.335938 C 19.386719 9.296875 19.347656 10.269531 19.347656 11.25 C 16.707031 11.25 14.023438 11.25 11.316406 11.25 C 11.3125 11.207031 11.304688 11.148438 11.304688 11.089844 C 11.304688 10.257812 11.277344 9.425781 11.3125 8.597656 C 11.34375 7.859375 11.585938 7.175781 12.007812 6.5625 C 12.550781 5.773438 13.289062 5.238281 14.199219 4.96875 C 15.035156 4.722656 15.878906 4.761719 16.722656 5.042969 Z M 16.722656 5.042969 " fill-opacity="1" fill-rule="nonzero"/><path fill="none" d="M 13.90625 16.714844 C 13.5625 16.171875 13.191406 15.664062 12.996094 15.058594 C 12.824219 14.539062 13.136719 14.148438 13.707031 14.175781 C 13.945312 14.1875 14.109375 14.144531 14.277344 13.972656 C 14.675781 13.554688 15.421875 13.382812 15.804688 13.675781 C 16.386719 14.113281 16.851562 14.660156 16.996094 15.414062 C 17.085938 15.882812 16.902344 16.222656 16.539062 16.515625 C 16.375 16.648438 16.273438 16.863281 16.152344 17.046875 C 16.070312 17.171875 16.007812 17.308594 15.878906 17.429688 C 15.875 17.363281 15.867188 17.292969 15.867188 17.222656 C 15.867188 16.839844 15.886719 16.457031 15.859375 16.074219 C 15.84375 15.890625 15.761719 15.695312 15.585938 15.582031 C 15.488281 15.980469 15.402344 16.355469 15.3125 16.734375 C 15.289062 16.734375 15.265625 16.734375 15.246094 16.734375 C 15.039062 16.355469 14.863281 15.945312 14.375 15.8125 C 14.546875 16.882812 14.882812 17.902344 14.660156 19.007812 C 13.867188 18.105469 12.960938 17.75 12.292969 18.097656 C 12.480469 18.222656 12.65625 18.320312 12.808594 18.449219 C 12.96875 18.578125 13.101562 18.738281 13.277344 18.914062 C 12.707031 18.984375 12.273438 19.179688 11.917969 19.648438 C 12.804688 19.46875 13.632812 19.386719 14.359375 20.007812 C 14.035156 20.257812 13.699219 20.507812 13.371094 20.769531 C 12.804688 21.222656 12.335938 21.738281 12.1875 22.554688 C 12.761719 22.214844 13.203125 21.78125 13.714844 21.421875 C 13.710938 21.804688 13.484375 22.167969 13.640625 22.585938 C 14.023438 22.363281 14.175781 21.992188 14.363281 21.636719 C 14.363281 21.710938 14.351562 21.785156 14.363281 21.855469 C 14.378906 21.933594 14.414062 22.007812 14.441406 22.082031 C 14.515625 22.039062 14.628906 22.007812 14.660156 21.941406 C 14.765625 21.71875 14.847656 21.484375 14.921875 21.246094 C 14.964844 21.113281 14.980469 20.96875 15.003906 20.828125 C 15.027344 20.828125 15.050781 20.824219 15.070312 20.824219 C 15.132812 21.085938 15.210938 21.347656 15.25 21.613281 C 15.300781 21.925781 15.347656 22.238281 15.34375 22.550781 C 15.332031 23.214844 15.214844 23.855469 14.734375 24.367188 C 14.597656 24.511719 14.285156 24.601562 14.121094 24.496094 C 13.730469 24.246094 13.34375 24.359375 12.953125 24.460938 C 12.144531 24.675781 11.683594 24.398438 11.5 23.632812 C 11.429688 23.351562 11.363281 23.101562 11.152344 22.882812 C 10.941406 22.660156 11.011719 22.367188 11.125 22.113281 C 11.425781 21.433594 12 21.066406 12.644531 20.761719 C 12.957031 20.617188 13.238281 20.40625 13.527344 20.210938 C 13.597656 20.160156 13.628906 20.050781 13.683594 19.964844 C 13.398438 19.816406 13.148438 19.867188 12.914062 19.988281 C 12.488281 20.210938 12.09375 20.507812 11.605469 20.582031 C 11.347656 20.625 11.078125 20.640625 10.820312 20.613281 C 10.59375 20.589844 10.417969 20.394531 10.390625 20.191406 C 10.347656 19.890625 10.144531 19.714844 9.976562 19.523438 C 9.671875 19.1875 9.71875 18.835938 9.832031 18.449219 C 9.9375 18.089844 10.230469 17.910156 10.503906 17.710938 C 10.738281 17.542969 10.882812 17.320312 10.925781 17.035156 C 10.980469 16.671875 11.011719 16.644531 11.386719 16.625 C 11.472656 16.621094 11.582031 16.597656 11.640625 16.542969 C 11.871094 16.328125 12.128906 16.308594 12.40625 16.402344 C 12.917969 16.578125 13.382812 16.816406 13.671875 17.3125 C 13.738281 17.425781 13.902344 17.484375 14.058594 17.59375 C 14.101562 17.238281 14.046875 16.976562 13.90625 16.714844 Z M 13.90625 16.714844 " fill-opacity="1" fill-rule="nonzero"/><path fill="none" d="M 16.054688 22.191406 C 15.992188 21.925781 15.925781 21.683594 15.863281 21.441406 C 15.886719 21.425781 15.914062 21.414062 15.9375 21.398438 C 16.214844 21.777344 16.496094 22.160156 16.773438 22.539062 C 16.808594 22.527344 16.84375 22.511719 16.878906 22.5 C 16.847656 22.113281 16.8125 21.730469 16.777344 21.324219 C 16.921875 21.429688 17.09375 21.542969 17.257812 21.667969 C 17.390625 21.773438 17.507812 21.898438 17.644531 22 C 17.695312 22.039062 17.773438 22.042969 17.835938 22.066406 C 17.855469 21.992188 17.90625 21.90625 17.882812 21.851562 C 17.765625 21.601562 17.660156 21.335938 17.496094 21.117188 C 17.246094 20.785156 16.882812 20.578125 16.441406 20.390625 C 17.082031 20.402344 17.632812 20.535156 18.175781 20.722656 C 18.632812 20.886719 19.050781 21.101562 19.332031 21.527344 C 19.625 21.96875 19.675781 22.445312 19.574219 22.945312 C 19.558594 23.019531 19.492188 23.097656 19.433594 23.148438 C 19.222656 23.328125 19.152344 23.554688 19.15625 23.824219 C 19.164062 24.292969 18.738281 24.660156 18.289062 24.578125 C 18.113281 24.542969 17.941406 24.460938 17.765625 24.445312 C 17.65625 24.4375 17.527344 24.488281 17.429688 24.550781 C 17.113281 24.757812 16.65625 24.792969 16.273438 24.539062 C 16.03125 24.382812 15.878906 23.960938 15.9375 23.683594 C 16.003906 23.347656 16.058594 23.007812 16.097656 22.667969 C 16.113281 22.519531 16.070312 22.363281 16.054688 22.191406 Z M 16.054688 22.191406 " fill-opacity="1" fill-rule="nonzero"/><path fill="none" d="M 17.054688 18.34375 C 17.582031 17.738281 18.261719 17.460938 19.054688 17.371094 C 19.65625 17.304688 20.160156 17.457031 20.558594 17.882812 C 20.722656 18.054688 20.820312 18.304688 20.886719 18.539062 C 20.917969 18.65625 20.847656 18.851562 20.753906 18.945312 C 20.488281 19.21875 20.4375 19.546875 20.433594 19.894531 C 20.429688 20.132812 20.433594 20.371094 20.273438 20.566406 C 20.136719 20.734375 19.988281 20.792969 19.75 20.742188 C 19.289062 20.640625 19.027344 20.246094 18.628906 20.066406 C 18.277344 19.90625 17.914062 19.746094 17.539062 19.652344 C 17.191406 19.5625 16.824219 19.5625 16.398438 19.511719 C 17.324219 19.191406 18.207031 18.882812 19.085938 18.578125 C 19.082031 18.546875 19.078125 18.515625 19.074219 18.484375 C 18.960938 18.445312 18.84375 18.382812 18.726562 18.371094 C 18.417969 18.34375 18.109375 18.328125 17.800781 18.324219 C 17.578125 18.324219 17.355469 18.355469 17.105469 18.363281 C 17.066406 18.351562 17.058594 18.347656 17.054688 18.34375 Z M 17.054688 18.34375 " fill-opacity="1" fill-rule="nonzero"/><path fill="none" d="M 15.5 18.90625 C 16.019531 18.257812 16.519531 17.621094 17.035156 16.996094 C 17.144531 16.867188 17.304688 16.78125 17.4375 16.675781 C 17.457031 16.691406 17.476562 16.707031 17.492188 16.722656 C 17.375 16.875 17.265625 17.03125 17.132812 17.171875 C 16.578125 17.757812 16.1875 18.445312 15.863281 19.179688 C 15.78125 19.363281 15.644531 19.527344 15.511719 19.675781 C 15.464844 19.730469 15.347656 19.71875 15.261719 19.734375 C 15.246094 19.644531 15.199219 19.542969 15.226562 19.464844 C 15.296875 19.277344 15.402344 19.101562 15.5 18.90625 Z M 15.5 18.90625 " fill-opacity="1" fill-rule="nonzero"/><path fill="none" d="M 18.917969 14.910156 C 18.816406 14.953125 18.71875 15 18.632812 14.988281 C 18.582031 14.980469 18.503906 14.871094 18.511719 14.8125 C 18.519531 14.730469 18.578125 14.625 18.648438 14.589844 C 18.8125 14.496094 18.925781 14.625 18.917969 14.910156 Z M 18.917969 14.910156 " fill-opacity="1" fill-rule="nonzero"/><path fill="none" d="M 19.511719 15.839844 C 19.609375 15.882812 19.746094 15.929688 19.757812 15.992188 C 19.769531 16.085938 19.695312 16.191406 19.65625 16.292969 C 19.566406 16.25 19.4375 16.234375 19.394531 16.164062 C 19.359375 16.105469 19.421875 15.988281 19.449219 15.894531 C 19.453125 15.875 19.480469 15.863281 19.511719 15.839844 Z M 19.511719 15.839844 " fill-opacity="1" fill-rule="nonzero"/><path fill="none" d="M 18.546875 16.492188 C 18.605469 16.351562 18.65625 16.195312 18.832031 16.289062 C 18.898438 16.324219 18.957031 16.433594 18.957031 16.507812 C 18.957031 16.566406 18.867188 16.652344 18.800781 16.671875 C 18.679688 16.707031 18.578125 16.648438 18.546875 16.492188 Z M 18.546875 16.492188 " fill-opacity="1" fill-rule="nonzero"/><path fill="none" d="M 18.160156 15.417969 C 18.269531 15.539062 18.230469 15.648438 18.125 15.699219 C 18.058594 15.734375 17.917969 15.730469 17.882812 15.6875 C 17.835938 15.632812 17.824219 15.464844 17.863281 15.4375 C 17.929688 15.390625 18.046875 15.410156 18.160156 15.417969 Z M 18.160156 15.417969 " fill-opacity="1" fill-rule="nonzero"/><path fill="none" d="M 19.738281 15.023438 C 19.800781 15.179688 19.757812 15.300781 19.613281 15.335938 C 19.5625 15.351562 19.445312 15.269531 19.425781 15.210938 C 19.402344 15.144531 19.433594 15.019531 19.488281 14.980469 C 19.535156 14.945312 19.644531 14.996094 19.738281 15.023438 Z M 19.738281 15.023438 " fill-opacity="1" fill-rule="nonzero"/><path fill="none" d="M 17.082031 18.367188 C 17.066406 18.386719 17.039062 18.398438 17.015625 18.410156 C 17.019531 18.394531 17.027344 18.375 17.042969 18.351562 C 17.058594 18.347656 17.066406 18.351562 17.082031 18.367188 Z M 17.082031 18.367188 " fill-opacity="1" fill-rule="nonzero"/><g fill="#318fce" fill-opacity="1"><g transform="translate(33.564272, 25.433056)"><g><path d="M 15.78125 -11.5 C 17.195312 -11.5 18.320312 -11.070312 19.15625 -10.21875 C 19.988281 -9.363281 20.40625 -8.171875 20.40625 -6.640625 L 20.40625 0 L 16.9375 0 L 16.9375 -6.171875 C 16.9375 -6.910156 16.742188 -7.476562 16.359375 -7.875 C 15.972656 -8.28125 15.441406 -8.484375 14.765625 -8.484375 C 14.085938 -8.484375 13.550781 -8.28125 13.15625 -7.875 C 12.769531 -7.476562 12.578125 -6.910156 12.578125 -6.171875 L 12.578125 0 L 9.109375 0 L 9.109375 -6.171875 C 9.109375 -6.910156 8.914062 -7.476562 8.53125 -7.875 C 8.144531 -8.28125 7.613281 -8.484375 6.9375 -8.484375 C 6.25 -8.484375 5.710938 -8.28125 5.328125 -7.875 C 4.941406 -7.476562 4.75 -6.910156 4.75 -6.171875 L 4.75 0 L 1.265625 0 L 1.265625 -11.375 L 4.75 -11.375 L 4.75 -9.953125 C 5.101562 -10.429688 5.566406 -10.804688 6.140625 -11.078125 C 6.710938 -11.359375 7.359375 -11.5 8.078125 -11.5 C 8.929688 -11.5 9.691406 -11.316406 10.359375 -10.953125 C 11.035156 -10.585938 11.566406 -10.0625 11.953125 -9.375 C 12.347656 -10 12.882812 -10.507812 13.5625 -10.90625 C 14.238281 -11.300781 14.976562 -11.5 15.78125 -11.5 Z M 15.78125 -11.5 "/></g></g></g><g clip-path="url(#76c8c1dfb9)"><g fill="#318fce" fill-opacity="1"><g transform="translate(55.309004, 25.433056)"><g><path d="M 12.890625 -11.375 L 5.75 5.40625 L 2 5.40625 L 4.609375 -0.390625 L -0.015625 -11.375 L 3.875 -11.375 L 6.5 -4.265625 L 9.109375 -11.375 Z M 12.890625 -11.375 "/></g></g></g></g><g fill="#455469" fill-opacity="1"><g transform="translate(68.357619, 25.433056)"><g><path d="M 13.65625 -14.3125 L 13.65625 0 L 10.171875 0 L 10.171875 -5.890625 L 4.75 -5.890625 L 4.75 0 L 1.265625 0 L 1.265625 -14.3125 L 4.75 -14.3125 L 4.75 -8.703125 L 10.171875 -8.703125 L 10.171875 -14.3125 Z M 13.65625 -14.3125 "/></g></g></g><g fill="#455469" fill-opacity="1"><g transform="translate(83.417956, 25.433056)"><g><path d="M 10.171875 -2.53125 L 4.828125 -2.53125 L 3.96875 0 L 0.328125 0 L 5.5 -14.3125 L 9.546875 -14.3125 L 14.71875 0 L 11.03125 0 Z M 9.28125 -5.21875 L 7.5 -10.453125 L 5.75 -5.21875 Z M 9.28125 -5.21875 "/></g></g></g><g fill="#455469" fill-opacity="1"><g transform="translate(98.600571, 25.433056)"><g><path d="M 20.96875 -14.3125 L 17.234375 0 L 13.015625 0 L 10.71875 -9.421875 L 8.359375 0 L 4.140625 0 L 0.515625 -14.3125 L 4.234375 -14.3125 L 6.296875 -3.890625 L 8.84375 -14.3125 L 12.6875 -14.3125 L 15.125 -3.890625 L 17.203125 -14.3125 Z M 20.96875 -14.3125 "/></g></g></g><g fill="#455469" fill-opacity="1"><g transform="translate(120.202655, 25.433056)"><g><path d="M 10.171875 -2.53125 L 4.828125 -2.53125 L 3.96875 0 L 0.328125 0 L 5.5 -14.3125 L 9.546875 -14.3125 L 14.71875 0 L 11.03125 0 Z M 9.28125 -5.21875 L 7.5 -10.453125 L 5.75 -5.21875 Z M 9.28125 -5.21875 "/></g></g></g><g fill="#455469" fill-opacity="1"><g transform="translate(135.385273, 25.433056)"><g><path d="M 4.75 -14.3125 L 4.75 0 L 1.265625 0 L 1.265625 -14.3125 Z M 4.75 -14.3125 "/></g></g></g><g fill="#455469" fill-opacity="1"><g transform="translate(141.560265, 25.433056)"><g><path d="M 4.75 -14.3125 L 4.75 0 L 1.265625 0 L 1.265625 -14.3125 Z M 4.75 -14.3125 "/></g></g></g></svg>