<svg xmlns="http://www.w3.org/2000/svg" xmlns:xlink="http://www.w3.org/1999/xlink" width="150" zoomAndPan="magnify" viewBox="0 0 112.5 30.000001" height="40" preserveAspectRatio="xMidYMid meet" version="1.0"><defs><g/><clipPath id="21c0efb7a0"><path d="M 1.851562 2.902344 L 22.171875 2.902344 L 22.171875 23.226562 L 1.851562 23.226562 Z M 1.851562 2.902344 " clip-rule="nonzero"/></clipPath><clipPath id="2976ec7e89"><path d="M 3 3 L 21 3 L 21 23.226562 L 3 23.226562 Z M 3 3 " clip-rule="nonzero"/></clipPath></defs><g clip-path="url(#21c0efb7a0)"><path fill="#ffffff" d="M 13.839844 23.535156 C 9.84375 23.535156 5.867188 23.535156 1.890625 23.535156 C 1.890625 16.667969 1.890625 9.804688 1.890625 2.9375 C 8.769531 2.9375 15.644531 2.9375 22.519531 2.9375 C 22.519531 9.804688 22.519531 16.667969 22.519531 23.535156 C 19.632812 23.535156 16.746094 23.535156 13.839844 23.535156 M 15.863281 4.589844 C 15.832031 4.570312 15.800781 4.554688 15.773438 4.535156 C 15.332031 4.140625 14.820312 3.859375 14.273438 3.644531 C 13.742188 3.4375 13.191406 3.289062 12.613281 3.296875 C 12.398438 3.300781 12.183594 3.304688 11.96875 3.296875 C 11.269531 3.265625 10.617188 3.445312 9.988281 3.722656 C 8.851562 4.226562 7.96875 5.019531 7.339844 6.101562 C 6.839844 6.960938 6.617188 7.890625 6.59375 8.875 C 6.582031 9.429688 6.589844 9.984375 6.589844 10.542969 C 6.589844 10.597656 6.589844 10.65625 6.589844 10.726562 C 6.496094 10.726562 6.417969 10.722656 6.34375 10.726562 C 6.066406 10.738281 5.78125 10.710938 5.511719 10.769531 C 4.898438 10.902344 4.375 11.203125 4 11.722656 C 3.6875 12.15625 3.5 12.628906 3.503906 13.175781 C 3.507812 15.761719 3.503906 18.34375 3.503906 20.925781 C 3.503906 20.980469 3.496094 21.035156 3.507812 21.085938 C 3.648438 21.746094 3.945312 22.3125 4.5 22.714844 C 4.898438 23 5.332031 23.179688 5.839844 23.179688 C 10.148438 23.171875 14.460938 23.175781 18.773438 23.175781 C 18.832031 23.175781 18.894531 23.179688 18.949219 23.167969 C 19.546875 23.019531 20.058594 22.730469 20.433594 22.230469 C 20.746094 21.804688 20.945312 21.339844 20.945312 20.800781 C 20.941406 18.257812 20.941406 15.71875 20.945312 13.175781 C 20.945312 12.507812 20.6875 11.949219 20.238281 11.484375 C 19.753906 10.980469 19.148438 10.726562 18.441406 10.726562 C 18.25 10.726562 18.054688 10.726562 17.855469 10.726562 C 17.855469 10.367188 17.855469 10.03125 17.855469 9.695312 C 17.859375 9.082031 17.867188 8.464844 17.75 7.859375 C 17.605469 7.113281 17.335938 6.421875 16.917969 5.785156 C 16.628906 5.34375 16.257812 4.972656 15.863281 4.589844 Z M 15.863281 4.589844 " fill-opacity="1" fill-rule="nonzero"/></g><g clip-path="url(#2976ec7e89)"><path fill="#324054" d="M 15.871094 4.597656 C 16.257812 4.972656 16.628906 5.34375 16.917969 5.785156 C 17.335938 6.421875 17.605469 7.113281 17.75 7.859375 C 17.867188 8.464844 17.859375 9.082031 17.855469 9.695312 C 17.855469 10.03125 17.855469 10.367188 17.855469 10.726562 C 18.054688 10.726562 18.25 10.726562 18.441406 10.726562 C 19.148438 10.726562 19.753906 10.980469 20.238281 11.484375 C 20.6875 11.949219 20.945312 12.507812 20.945312 13.175781 C 20.941406 15.71875 20.941406 18.257812 20.945312 20.800781 C 20.945312 21.339844 20.746094 21.804688 20.433594 22.230469 C 20.058594 22.730469 19.546875 23.019531 18.949219 23.167969 C 18.894531 23.179688 18.832031 23.175781 18.773438 23.175781 C 14.460938 23.175781 10.148438 23.171875 5.839844 23.179688 C 5.332031 23.179688 4.898438 23 4.5 22.714844 C 3.945312 22.3125 3.648438 21.746094 3.507812 21.085938 C 3.496094 21.035156 3.503906 20.980469 3.503906 20.925781 C 3.503906 18.34375 3.507812 15.761719 3.503906 13.175781 C 3.5 12.628906 3.6875 12.15625 4 11.722656 C 4.375 11.203125 4.898438 10.902344 5.511719 10.769531 C 5.78125 10.710938 6.066406 10.738281 6.34375 10.726562 C 6.417969 10.722656 6.496094 10.726562 6.589844 10.726562 C 6.589844 10.65625 6.589844 10.597656 6.589844 10.542969 C 6.589844 9.984375 6.582031 9.429688 6.59375 8.875 C 6.617188 7.890625 6.839844 6.960938 7.339844 6.101562 C 7.96875 5.019531 8.851562 4.226562 9.988281 3.722656 C 10.617188 3.445312 11.269531 3.265625 11.96875 3.296875 C 12.183594 3.304688 12.398438 3.300781 12.613281 3.296875 C 13.191406 3.289062 13.742188 3.4375 14.273438 3.644531 C 14.820312 3.859375 15.332031 4.140625 15.773438 4.535156 C 15.800781 4.554688 15.832031 4.570312 15.871094 4.597656 M 13.585938 16.144531 C 13.753906 16.128906 13.925781 16.105469 14.09375 16.109375 C 14.332031 16.109375 14.566406 16.121094 14.800781 16.144531 C 14.890625 16.152344 14.976562 16.199219 15.066406 16.230469 C 15.070312 16.253906 15.070312 16.277344 15.074219 16.300781 C 14.402344 16.535156 13.730469 16.769531 13.023438 17.015625 C 13.347656 17.050781 13.628906 17.050781 13.894531 17.121094 C 14.179688 17.191406 14.457031 17.3125 14.726562 17.4375 C 15.027344 17.574219 15.230469 17.875 15.582031 17.949219 C 15.761719 17.988281 15.875 17.945312 15.980469 17.820312 C 16.101562 17.667969 16.101562 17.488281 16.101562 17.304688 C 16.105469 17.039062 16.144531 16.789062 16.347656 16.582031 C 16.417969 16.511719 16.472656 16.363281 16.445312 16.269531 C 16.398438 16.09375 16.320312 15.902344 16.199219 15.769531 C 15.894531 15.445312 15.511719 15.328125 15.050781 15.382812 C 14.445312 15.449219 13.929688 15.660156 13.507812 16.136719 C 13.503906 16.148438 13.5 16.160156 13.492188 16.171875 C 13.515625 16.164062 13.535156 16.15625 13.585938 16.144531 M 13.261719 5.96875 C 12.628906 5.761719 11.984375 5.734375 11.34375 5.921875 C 10.652344 6.128906 10.089844 6.535156 9.675781 7.136719 C 9.351562 7.605469 9.167969 8.125 9.144531 8.6875 C 9.117188 9.320312 9.136719 9.957031 9.140625 10.589844 C 9.140625 10.632812 9.144531 10.679688 9.148438 10.710938 C 11.210938 10.710938 13.257812 10.710938 15.273438 10.710938 C 15.273438 9.960938 15.304688 9.222656 15.261719 8.488281 C 15.242188 8.152344 15.128906 7.804688 14.976562 7.5 C 14.617188 6.78125 14.050781 6.265625 13.261719 5.96875 M 11.132812 14.890625 C 11.230469 15.082031 11.273438 15.28125 11.242188 15.550781 C 11.121094 15.464844 10.996094 15.421875 10.945312 15.335938 C 10.722656 14.957031 10.371094 14.773438 9.980469 14.644531 C 9.769531 14.570312 9.570312 14.582031 9.394531 14.75 C 9.351562 14.792969 9.269531 14.808594 9.203125 14.8125 C 8.917969 14.828125 8.890625 14.847656 8.851562 15.125 C 8.820312 15.339844 8.707031 15.511719 8.53125 15.640625 C 8.320312 15.792969 8.097656 15.929688 8.015625 16.203125 C 7.929688 16.496094 7.894531 16.765625 8.125 17.023438 C 8.253906 17.167969 8.410156 17.300781 8.441406 17.53125 C 8.464844 17.6875 8.597656 17.835938 8.769531 17.855469 C 8.964844 17.875 9.171875 17.863281 9.367188 17.832031 C 9.742188 17.773438 10.042969 17.546875 10.367188 17.375 C 10.546875 17.285156 10.738281 17.246094 10.953125 17.359375 C 10.914062 17.425781 10.886719 17.507812 10.832031 17.546875 C 10.613281 17.695312 10.398438 17.855469 10.160156 17.96875 C 9.667969 18.199219 9.230469 18.480469 9.003906 18.996094 C 8.914062 19.191406 8.863281 19.417969 9.023438 19.582031 C 9.183594 19.753906 9.234375 19.941406 9.285156 20.15625 C 9.429688 20.742188 9.777344 20.953125 10.394531 20.789062 C 10.691406 20.710938 10.988281 20.625 11.289062 20.816406 C 11.410156 20.894531 11.652344 20.828125 11.753906 20.71875 C 12.121094 20.328125 12.210938 19.839844 12.21875 19.332031 C 12.222656 19.09375 12.1875 18.851562 12.148438 18.617188 C 12.117188 18.414062 12.058594 18.214844 12.011719 18.015625 C 11.996094 18.015625 11.980469 18.015625 11.960938 18.019531 C 11.941406 18.125 11.929688 18.234375 11.898438 18.335938 C 11.839844 18.515625 11.777344 18.695312 11.699219 18.867188 C 11.675781 18.917969 11.589844 18.941406 11.53125 18.976562 C 11.511719 18.917969 11.484375 18.859375 11.472656 18.800781 C 11.460938 18.746094 11.46875 18.691406 11.46875 18.632812 C 11.328125 18.90625 11.210938 19.1875 10.917969 19.359375 C 10.800781 19.039062 10.972656 18.761719 10.980469 18.46875 C 10.585938 18.742188 10.25 19.074219 9.8125 19.335938 C 9.925781 18.710938 10.285156 18.316406 10.714844 17.972656 C 10.964844 17.773438 11.21875 17.582031 11.46875 17.390625 C 10.917969 16.917969 10.285156 16.980469 9.605469 17.117188 C 9.878906 16.761719 10.207031 16.609375 10.640625 16.558594 C 10.507812 16.421875 10.40625 16.300781 10.285156 16.203125 C 10.171875 16.105469 10.035156 16.03125 9.894531 15.933594 C 10.402344 15.667969 11.09375 15.941406 11.699219 16.628906 C 11.867188 15.785156 11.609375 15.007812 11.480469 14.191406 C 11.851562 14.292969 11.988281 14.605469 12.144531 14.894531 C 12.160156 14.894531 12.179688 14.894531 12.195312 14.894531 C 12.261719 14.605469 12.332031 14.320312 12.402344 14.015625 C 12.539062 14.101562 12.601562 14.25 12.613281 14.390625 C 12.632812 14.683594 12.617188 14.976562 12.621094 15.269531 C 12.621094 15.320312 12.625 15.375 12.628906 15.425781 C 12.726562 15.332031 12.773438 15.226562 12.835938 15.132812 C 12.929688 14.992188 13.003906 14.828125 13.132812 14.726562 C 13.410156 14.503906 13.550781 14.246094 13.480469 13.886719 C 13.371094 13.3125 13.015625 12.894531 12.574219 12.5625 C 12.28125 12.339844 11.710938 12.46875 11.40625 12.785156 C 11.277344 12.917969 11.152344 12.953125 10.972656 12.945312 C 10.535156 12.921875 10.296875 13.21875 10.425781 13.617188 C 10.578125 14.078125 10.863281 14.464844 11.132812 14.890625 M 12.761719 19.074219 C 12.773438 19.1875 12.804688 19.308594 12.792969 19.421875 C 12.765625 19.679688 12.722656 19.941406 12.671875 20.195312 C 12.628906 20.40625 12.746094 20.730469 12.929688 20.847656 C 13.21875 21.042969 13.566406 21.015625 13.8125 20.855469 C 13.882812 20.808594 13.984375 20.769531 14.066406 20.777344 C 14.203125 20.789062 14.332031 20.851562 14.464844 20.875 C 14.808594 20.9375 15.132812 20.660156 15.128906 20.304688 C 15.125 20.097656 15.179688 19.925781 15.339844 19.789062 C 15.386719 19.746094 15.433594 19.691406 15.445312 19.632812 C 15.523438 19.25 15.484375 18.886719 15.261719 18.550781 C 15.046875 18.226562 14.730469 18.0625 14.378906 17.9375 C 13.964844 17.792969 13.546875 17.691406 13.058594 17.683594 C 13.394531 17.828125 13.671875 17.984375 13.863281 18.238281 C 13.988281 18.40625 14.070312 18.605469 14.15625 18.800781 C 14.175781 18.839844 14.132812 18.90625 14.121094 18.960938 C 14.070312 18.945312 14.011719 18.941406 13.972656 18.910156 C 13.871094 18.832031 13.78125 18.738281 13.679688 18.660156 C 13.554688 18.5625 13.425781 18.476562 13.3125 18.398438 C 13.339844 18.703125 13.367188 19 13.390625 19.292969 C 13.363281 19.300781 13.335938 19.3125 13.308594 19.324219 C 13.097656 19.03125 12.886719 18.742188 12.671875 18.453125 C 12.652344 18.464844 12.632812 18.472656 12.613281 18.484375 C 12.664062 18.671875 12.714844 18.855469 12.761719 19.074219 M 12.332031 16.5625 C 12.265625 16.699219 12.183594 16.835938 12.132812 16.976562 C 12.109375 17.035156 12.144531 17.113281 12.15625 17.183594 C 12.222656 17.171875 12.3125 17.179688 12.347656 17.140625 C 12.449219 17.023438 12.554688 16.898438 12.613281 16.761719 C 12.863281 16.199219 13.164062 15.675781 13.585938 15.226562 C 13.683594 15.121094 13.769531 15 13.859375 14.886719 C 13.84375 14.875 13.832031 14.863281 13.816406 14.847656 C 13.714844 14.929688 13.59375 14.996094 13.511719 15.09375 C 13.117188 15.570312 12.734375 16.054688 12.332031 16.5625 M 14.949219 13.488281 C 14.949219 13.285156 14.867188 13.1875 14.738281 13.257812 C 14.6875 13.285156 14.644531 13.367188 14.636719 13.429688 C 14.628906 13.472656 14.6875 13.558594 14.726562 13.5625 C 14.792969 13.574219 14.867188 13.535156 14.949219 13.488281 M 15.386719 14.214844 C 15.375 14.230469 15.355469 14.238281 15.351562 14.253906 C 15.332031 14.324219 15.28125 14.414062 15.308594 14.460938 C 15.339844 14.511719 15.4375 14.527344 15.507812 14.558594 C 15.539062 14.480469 15.597656 14.398438 15.585938 14.328125 C 15.578125 14.28125 15.472656 14.246094 15.386719 14.214844 M 14.664062 14.722656 C 14.6875 14.828125 14.761719 14.875 14.859375 14.847656 C 14.90625 14.832031 14.976562 14.765625 14.976562 14.722656 C 14.976562 14.664062 14.929688 14.582031 14.882812 14.554688 C 14.746094 14.484375 14.707031 14.605469 14.664062 14.722656 M 14.355469 13.878906 C 14.28125 13.886719 14.195312 13.867188 14.140625 13.90625 C 14.113281 13.925781 14.121094 14.054688 14.15625 14.09375 C 14.183594 14.128906 14.289062 14.132812 14.339844 14.105469 C 14.421875 14.066406 14.449219 13.984375 14.355469 13.878906 M 15.5625 13.578125 C 15.5 13.570312 15.417969 13.53125 15.378906 13.554688 C 15.339844 13.585938 15.316406 13.679688 15.332031 13.734375 C 15.347656 13.777344 15.4375 13.839844 15.476562 13.828125 C 15.585938 13.800781 15.621094 13.710938 15.5625 13.578125 Z M 15.5625 13.578125 " fill-opacity="1" fill-rule="nonzero"/></g><path fill="#ffffff" d="M 13.273438 5.976562 C 14.050781 6.265625 14.617188 6.78125 14.976562 7.5 C 15.128906 7.804688 15.242188 8.152344 15.261719 8.488281 C 15.304688 9.222656 15.273438 9.960938 15.273438 10.710938 C 13.257812 10.710938 11.210938 10.710938 9.148438 10.710938 C 9.144531 10.679688 9.140625 10.632812 9.140625 10.589844 C 9.136719 9.957031 9.117188 9.320312 9.144531 8.6875 C 9.167969 8.125 9.351562 7.605469 9.675781 7.136719 C 10.089844 6.535156 10.652344 6.128906 11.34375 5.921875 C 11.984375 5.734375 12.628906 5.761719 13.273438 5.976562 Z M 13.273438 5.976562 " fill-opacity="1" fill-rule="nonzero"/><path fill="#ffffff" d="M 11.125 14.882812 C 10.863281 14.464844 10.578125 14.078125 10.425781 13.617188 C 10.296875 13.21875 10.535156 12.921875 10.972656 12.945312 C 11.152344 12.953125 11.277344 12.917969 11.40625 12.785156 C 11.710938 12.46875 12.28125 12.339844 12.574219 12.5625 C 13.015625 12.894531 13.371094 13.3125 13.480469 13.886719 C 13.550781 14.246094 13.410156 14.503906 13.132812 14.726562 C 13.003906 14.828125 12.929688 14.992188 12.835938 15.132812 C 12.773438 15.226562 12.726562 15.332031 12.628906 15.425781 C 12.625 15.375 12.621094 15.320312 12.621094 15.269531 C 12.617188 14.976562 12.632812 14.683594 12.613281 14.390625 C 12.601562 14.25 12.539062 14.101562 12.402344 14.015625 C 12.332031 14.320312 12.261719 14.605469 12.195312 14.894531 C 12.179688 14.894531 12.160156 14.894531 12.144531 14.894531 C 11.988281 14.605469 11.851562 14.292969 11.480469 14.191406 C 11.609375 15.007812 11.867188 15.785156 11.699219 16.628906 C 11.09375 15.941406 10.402344 15.667969 9.894531 15.933594 C 10.035156 16.03125 10.171875 16.105469 10.285156 16.203125 C 10.40625 16.300781 10.507812 16.421875 10.640625 16.558594 C 10.207031 16.609375 9.878906 16.761719 9.605469 17.117188 C 10.285156 16.980469 10.917969 16.917969 11.46875 17.390625 C 11.21875 17.582031 10.964844 17.773438 10.714844 17.972656 C 10.285156 18.316406 9.925781 18.710938 9.8125 19.335938 C 10.25 19.074219 10.585938 18.742188 10.980469 18.46875 C 10.972656 18.761719 10.800781 19.039062 10.917969 19.359375 C 11.210938 19.1875 11.328125 18.90625 11.46875 18.632812 C 11.46875 18.691406 11.460938 18.746094 11.472656 18.800781 C 11.484375 18.859375 11.511719 18.917969 11.53125 18.976562 C 11.589844 18.941406 11.675781 18.917969 11.699219 18.867188 C 11.777344 18.695312 11.839844 18.515625 11.898438 18.335938 C 11.929688 18.234375 11.941406 18.125 11.960938 18.019531 C 11.980469 18.015625 11.996094 18.015625 12.011719 18.015625 C 12.058594 18.214844 12.117188 18.414062 12.148438 18.617188 C 12.1875 18.851562 12.222656 19.09375 12.21875 19.332031 C 12.210938 19.839844 12.121094 20.328125 11.753906 20.71875 C 11.652344 20.828125 11.410156 20.894531 11.289062 20.816406 C 10.988281 20.625 10.691406 20.710938 10.394531 20.789062 C 9.777344 20.953125 9.429688 20.742188 9.285156 20.15625 C 9.234375 19.941406 9.183594 19.753906 9.023438 19.582031 C 8.863281 19.417969 8.914062 19.191406 9.003906 18.996094 C 9.230469 18.480469 9.667969 18.199219 10.160156 17.96875 C 10.398438 17.855469 10.613281 17.695312 10.832031 17.546875 C 10.886719 17.507812 10.914062 17.425781 10.953125 17.359375 C 10.738281 17.246094 10.546875 17.285156 10.367188 17.375 C 10.042969 17.546875 9.742188 17.773438 9.367188 17.832031 C 9.171875 17.863281 8.964844 17.875 8.769531 17.855469 C 8.597656 17.835938 8.464844 17.6875 8.441406 17.53125 C 8.410156 17.300781 8.253906 17.167969 8.125 17.023438 C 7.894531 16.765625 7.929688 16.496094 8.015625 16.203125 C 8.097656 15.929688 8.320312 15.792969 8.53125 15.640625 C 8.707031 15.511719 8.820312 15.339844 8.851562 15.125 C 8.890625 14.847656 8.917969 14.828125 9.203125 14.8125 C 9.269531 14.808594 9.351562 14.792969 9.394531 14.75 C 9.570312 14.582031 9.769531 14.570312 9.980469 14.644531 C 10.371094 14.773438 10.722656 14.957031 10.945312 15.335938 C 10.996094 15.421875 11.121094 15.464844 11.242188 15.550781 C 11.273438 15.28125 11.230469 15.082031 11.125 14.882812 Z M 11.125 14.882812 " fill-opacity="1" fill-rule="nonzero"/><path fill="#ffffff" d="M 12.761719 19.058594 C 12.714844 18.855469 12.664062 18.671875 12.613281 18.484375 C 12.632812 18.472656 12.652344 18.464844 12.671875 18.453125 C 12.886719 18.742188 13.097656 19.03125 13.308594 19.324219 C 13.335938 19.3125 13.363281 19.300781 13.390625 19.292969 C 13.367188 19 13.339844 18.703125 13.3125 18.398438 C 13.425781 18.476562 13.554688 18.5625 13.679688 18.660156 C 13.78125 18.738281 13.871094 18.832031 13.972656 18.910156 C 14.011719 18.941406 14.070312 18.945312 14.121094 18.960938 C 14.132812 18.90625 14.175781 18.839844 14.15625 18.800781 C 14.070312 18.605469 13.988281 18.40625 13.863281 18.238281 C 13.671875 17.984375 13.394531 17.828125 13.058594 17.683594 C 13.546875 17.691406 13.964844 17.792969 14.378906 17.9375 C 14.730469 18.0625 15.046875 18.226562 15.261719 18.550781 C 15.484375 18.886719 15.523438 19.25 15.445312 19.632812 C 15.433594 19.691406 15.386719 19.746094 15.339844 19.789062 C 15.179688 19.925781 15.125 20.097656 15.128906 20.304688 C 15.132812 20.660156 14.808594 20.9375 14.464844 20.875 C 14.332031 20.851562 14.203125 20.789062 14.066406 20.777344 C 13.984375 20.769531 13.882812 20.808594 13.8125 20.855469 C 13.566406 21.015625 13.21875 21.042969 12.929688 20.847656 C 12.746094 20.730469 12.628906 20.40625 12.671875 20.195312 C 12.722656 19.941406 12.765625 19.679688 12.792969 19.421875 C 12.804688 19.308594 12.773438 19.1875 12.761719 19.058594 Z M 12.761719 19.058594 " fill-opacity="1" fill-rule="nonzero"/><path fill="#ffffff" d="M 13.523438 16.121094 C 13.929688 15.660156 14.445312 15.449219 15.050781 15.382812 C 15.511719 15.328125 15.894531 15.445312 16.199219 15.769531 C 16.320312 15.902344 16.398438 16.09375 16.445312 16.269531 C 16.472656 16.363281 16.417969 16.511719 16.347656 16.582031 C 16.144531 16.789062 16.105469 17.039062 16.101562 17.304688 C 16.101562 17.488281 16.101562 17.667969 15.980469 17.820312 C 15.875 17.945312 15.761719 17.988281 15.582031 17.949219 C 15.230469 17.875 15.027344 17.574219 14.726562 17.4375 C 14.457031 17.3125 14.179688 17.191406 13.894531 17.121094 C 13.628906 17.050781 13.347656 17.050781 13.023438 17.015625 C 13.730469 16.769531 14.402344 16.535156 15.074219 16.300781 C 15.070312 16.277344 15.070312 16.253906 15.066406 16.230469 C 14.976562 16.199219 14.890625 16.152344 14.800781 16.144531 C 14.566406 16.121094 14.332031 16.109375 14.09375 16.109375 C 13.925781 16.105469 13.753906 16.128906 13.5625 16.136719 C 13.535156 16.128906 13.527344 16.125 13.523438 16.121094 Z M 13.523438 16.121094 " fill-opacity="1" fill-rule="nonzero"/><path fill="#ffffff" d="M 12.339844 16.550781 C 12.734375 16.054688 13.117188 15.570312 13.511719 15.09375 C 13.59375 14.996094 13.714844 14.929688 13.816406 14.847656 C 13.832031 14.863281 13.84375 14.875 13.859375 14.886719 C 13.769531 15 13.683594 15.121094 13.585938 15.226562 C 13.164062 15.675781 12.863281 16.199219 12.613281 16.761719 C 12.554688 16.898438 12.449219 17.023438 12.347656 17.140625 C 12.3125 17.179688 12.222656 17.171875 12.15625 17.183594 C 12.144531 17.113281 12.109375 17.035156 12.132812 16.976562 C 12.183594 16.835938 12.265625 16.699219 12.339844 16.550781 Z M 12.339844 16.550781 " fill-opacity="1" fill-rule="nonzero"/><path fill="#ffffff" d="M 14.945312 13.503906 C 14.867188 13.535156 14.792969 13.574219 14.726562 13.5625 C 14.6875 13.558594 14.628906 13.472656 14.636719 13.429688 C 14.644531 13.367188 14.6875 13.285156 14.738281 13.257812 C 14.867188 13.1875 14.949219 13.285156 14.945312 13.503906 Z M 14.945312 13.503906 " fill-opacity="1" fill-rule="nonzero"/><path fill="#ffffff" d="M 15.398438 14.210938 C 15.472656 14.246094 15.578125 14.28125 15.585938 14.328125 C 15.597656 14.398438 15.539062 14.480469 15.507812 14.558594 C 15.4375 14.527344 15.339844 14.511719 15.308594 14.460938 C 15.28125 14.414062 15.332031 14.324219 15.351562 14.253906 C 15.355469 14.238281 15.375 14.230469 15.398438 14.210938 Z M 15.398438 14.210938 " fill-opacity="1" fill-rule="nonzero"/><path fill="#ffffff" d="M 14.664062 14.710938 C 14.707031 14.605469 14.746094 14.484375 14.882812 14.554688 C 14.929688 14.582031 14.976562 14.664062 14.976562 14.722656 C 14.976562 14.765625 14.90625 14.832031 14.859375 14.847656 C 14.761719 14.875 14.6875 14.828125 14.664062 14.710938 Z M 14.664062 14.710938 " fill-opacity="1" fill-rule="nonzero"/><path fill="#ffffff" d="M 14.367188 13.890625 C 14.449219 13.984375 14.421875 14.066406 14.339844 14.105469 C 14.289062 14.132812 14.183594 14.128906 14.15625 14.09375 C 14.121094 14.054688 14.113281 13.925781 14.140625 13.90625 C 14.195312 13.867188 14.28125 13.886719 14.367188 13.890625 Z M 14.367188 13.890625 " fill-opacity="1" fill-rule="nonzero"/><path fill="#ffffff" d="M 15.574219 13.589844 C 15.621094 13.710938 15.585938 13.800781 15.476562 13.828125 C 15.4375 13.839844 15.347656 13.777344 15.332031 13.734375 C 15.316406 13.679688 15.339844 13.585938 15.378906 13.554688 C 15.417969 13.53125 15.5 13.570312 15.574219 13.589844 Z M 15.574219 13.589844 " fill-opacity="1" fill-rule="nonzero"/><path fill="#ffffff" d="M 13.546875 16.140625 C 13.535156 16.15625 13.515625 16.164062 13.492188 16.171875 C 13.5 16.160156 13.503906 16.148438 13.515625 16.128906 C 13.527344 16.125 13.535156 16.128906 13.546875 16.140625 Z M 13.546875 16.140625 " fill-opacity="1" fill-rule="nonzero"/><g fill="#64768f" fill-opacity="1"><g transform="translate(25.097399, 19.87895)"><g><path d="M 12.4375 -10.1875 L 12.4375 0 L 9.953125 0 L 9.953125 -6.109375 L 7.671875 0 L 5.671875 0 L 3.375 -6.125 L 3.375 0 L 0.90625 0 L 0.90625 -10.1875 L 3.828125 -10.1875 L 6.6875 -3.140625 L 9.515625 -10.1875 Z M 12.4375 -10.1875 "/></g></g></g><g fill="#64768f" fill-opacity="1"><g transform="translate(38.800615, 19.87895)"><g><path d="M 9.640625 -10.1875 L 6.109375 -3.375 L 6.109375 0 L 3.625 0 L 3.625 -3.375 L 0.109375 -10.1875 L 2.921875 -10.1875 L 4.890625 -5.921875 L 6.84375 -10.1875 Z M 9.640625 -10.1875 "/></g></g></g><g fill="#455469" fill-opacity="1"><g transform="translate(48.924264, 19.87895)"><g><path d="M 9.71875 -10.1875 L 9.71875 0 L 7.25 0 L 7.25 -4.1875 L 3.375 -4.1875 L 3.375 0 L 0.90625 0 L 0.90625 -10.1875 L 3.375 -10.1875 L 3.375 -6.203125 L 7.25 -6.203125 L 7.25 -10.1875 Z M 9.71875 -10.1875 "/></g></g></g><g fill="#455469" fill-opacity="1"><g transform="translate(59.912959, 19.87895)"><g><path d="M 7.25 -1.796875 L 3.4375 -1.796875 L 2.828125 0 L 0.234375 0 L 3.921875 -10.1875 L 6.796875 -10.1875 L 10.484375 0 L 7.859375 0 Z M 6.609375 -3.71875 L 5.34375 -7.453125 L 4.09375 -3.71875 Z M 6.609375 -3.71875 "/></g></g></g><g fill="#455469" fill-opacity="1"><g transform="translate(70.988759, 19.87895)"><g><path d="M 14.921875 -10.1875 L 12.265625 0 L 9.265625 0 L 7.640625 -6.703125 L 5.953125 0 L 2.953125 0 L 0.359375 -10.1875 L 3.015625 -10.1875 L 4.484375 -2.765625 L 6.296875 -10.1875 L 9.03125 -10.1875 L 10.765625 -2.765625 L 12.25 -10.1875 Z M 14.921875 -10.1875 "/></g></g></g><g fill="#455469" fill-opacity="1"><g transform="translate(86.63713, 19.87895)"><g><path d="M 7.25 -1.796875 L 3.4375 -1.796875 L 2.828125 0 L 0.234375 0 L 3.921875 -10.1875 L 6.796875 -10.1875 L 10.484375 0 L 7.859375 0 Z M 6.609375 -3.71875 L 5.34375 -7.453125 L 4.09375 -3.71875 Z M 6.609375 -3.71875 "/></g></g></g><g fill="#455469" fill-opacity="1"><g transform="translate(97.71293, 19.87895)"><g><path d="M 3.375 -10.1875 L 3.375 0 L 0.90625 0 L 0.90625 -10.1875 Z M 3.375 -10.1875 "/></g></g></g><g fill="#455469" fill-opacity="1"><g transform="translate(102.3726, 19.87895)"><g><path d="M 3.375 -10.1875 L 3.375 0 L 0.90625 0 L 0.90625 -10.1875 Z M 3.375 -10.1875 "/></g></g></g></svg>