<svg xmlns="http://www.w3.org/2000/svg" xmlns:xlink="http://www.w3.org/1999/xlink" width="200" zoomAndPan="magnify" viewBox="0 0 150 30.000001" height="40" preserveAspectRatio="xMidYMid meet" version="1.0"><defs><g/><clipPath id="854f4a0f50"><path d="M 3.433594 0 L 27.386719 0 L 27.386719 26.855469 L 3.433594 26.855469 Z M 3.433594 0 " clip-rule="nonzero"/></clipPath><clipPath id="57a4300a1c"><path d="M 3.433594 0 L 27 0 L 27 26.855469 L 3.433594 26.855469 Z M 3.433594 0 " clip-rule="nonzero"/></clipPath></defs><g clip-path="url(#854f4a0f50)"><path fill="none" d="M 17.464844 27.046875 C 12.230469 27.046875 7.015625 27.046875 1.800781 27.046875 C 1.800781 18.046875 1.800781 9.046875 1.800781 0.046875 C 10.816406 0.046875 19.832031 0.046875 28.847656 0.046875 C 28.847656 9.046875 28.847656 18.046875 28.847656 27.046875 C 25.0625 27.046875 21.277344 27.046875 17.464844 27.046875 M 20.121094 2.210938 C 20.082031 2.1875 20.039062 2.167969 20.003906 2.140625 C 19.421875 1.625 18.753906 1.253906 18.035156 0.976562 C 17.339844 0.703125 16.621094 0.507812 15.859375 0.519531 C 15.578125 0.523438 15.292969 0.527344 15.011719 0.515625 C 14.097656 0.476562 13.242188 0.714844 12.421875 1.074219 C 10.925781 1.734375 9.769531 2.773438 8.945312 4.191406 C 8.289062 5.320312 7.996094 6.539062 7.96875 7.828125 C 7.949219 8.558594 7.964844 9.285156 7.964844 10.015625 C 7.964844 10.089844 7.964844 10.167969 7.964844 10.253906 C 7.839844 10.253906 7.738281 10.253906 7.640625 10.257812 C 7.273438 10.269531 6.898438 10.238281 6.546875 10.3125 C 5.742188 10.484375 5.058594 10.882812 4.566406 11.5625 C 4.15625 12.128906 3.914062 12.753906 3.914062 13.472656 C 3.921875 16.859375 3.917969 20.242188 3.917969 23.628906 C 3.917969 23.699219 3.90625 23.773438 3.921875 23.839844 C 4.109375 24.703125 4.496094 25.449219 5.222656 25.972656 C 5.746094 26.347656 6.3125 26.582031 6.976562 26.582031 C 12.628906 26.574219 18.28125 26.578125 23.933594 26.578125 C 24.011719 26.578125 24.09375 26.585938 24.167969 26.566406 C 24.953125 26.375 25.621094 25.996094 26.113281 25.339844 C 26.523438 24.785156 26.78125 24.171875 26.78125 23.464844 C 26.777344 20.132812 26.777344 16.800781 26.78125 13.46875 C 26.785156 12.59375 26.445312 11.859375 25.859375 11.25 C 25.222656 10.59375 24.429688 10.253906 23.503906 10.253906 C 23.246094 10.253906 22.992188 10.253906 22.734375 10.253906 C 22.734375 9.785156 22.734375 9.34375 22.734375 8.90625 C 22.738281 8.101562 22.75 7.292969 22.59375 6.496094 C 22.40625 5.519531 22.050781 4.613281 21.503906 3.78125 C 21.125 3.199219 20.636719 2.714844 20.121094 2.210938 Z M 20.121094 2.210938 " fill-opacity="1" fill-rule="nonzero"/></g><g clip-path="url(#57a4300a1c)"><path fill="#324054" d="M 20.132812 2.222656 C 20.636719 2.714844 21.125 3.199219 21.503906 3.78125 C 22.050781 4.613281 22.40625 5.519531 22.59375 6.496094 C 22.75 7.292969 22.738281 8.101562 22.734375 8.90625 C 22.734375 9.34375 22.734375 9.785156 22.734375 10.253906 C 22.992188 10.253906 23.246094 10.253906 23.503906 10.253906 C 24.429688 10.253906 25.222656 10.59375 25.859375 11.25 C 26.445312 11.859375 26.785156 12.59375 26.78125 13.46875 C 26.777344 16.800781 26.777344 20.132812 26.78125 23.464844 C 26.78125 24.171875 26.523438 24.785156 26.113281 25.339844 C 25.621094 25.996094 24.953125 26.375 24.167969 26.566406 C 24.09375 26.585938 24.011719 26.578125 23.933594 26.578125 C 18.28125 26.578125 12.628906 26.574219 6.976562 26.582031 C 6.3125 26.582031 5.746094 26.347656 5.222656 25.972656 C 4.496094 25.449219 4.109375 24.703125 3.921875 23.839844 C 3.90625 23.773438 3.917969 23.699219 3.917969 23.628906 C 3.917969 20.242188 3.921875 16.859375 3.914062 13.472656 C 3.914062 12.753906 4.15625 12.128906 4.566406 11.5625 C 5.058594 10.882812 5.742188 10.484375 6.546875 10.3125 C 6.898438 10.238281 7.273438 10.269531 7.640625 10.257812 C 7.738281 10.253906 7.839844 10.253906 7.964844 10.253906 C 7.964844 10.167969 7.964844 10.089844 7.964844 10.015625 C 7.964844 9.285156 7.949219 8.558594 7.96875 7.828125 C 7.996094 6.539062 8.289062 5.320312 8.945312 4.191406 C 9.769531 2.773438 10.925781 1.734375 12.421875 1.074219 C 13.242188 0.714844 14.097656 0.476562 15.011719 0.515625 C 15.292969 0.527344 15.578125 0.523438 15.859375 0.519531 C 16.621094 0.507812 17.339844 0.703125 18.035156 0.976562 C 18.753906 1.253906 19.421875 1.625 20.003906 2.140625 C 20.039062 2.167969 20.082031 2.1875 20.132812 2.222656 M 17.132812 17.359375 C 17.355469 17.34375 17.578125 17.3125 17.800781 17.3125 C 18.109375 17.316406 18.417969 17.332031 18.726562 17.359375 C 18.84375 17.371094 18.960938 17.433594 19.074219 17.472656 C 19.078125 17.503906 19.082031 17.535156 19.085938 17.566406 C 18.207031 17.871094 17.324219 18.179688 16.398438 18.5 C 16.824219 18.546875 17.191406 18.550781 17.539062 18.640625 C 17.914062 18.734375 18.277344 18.894531 18.628906 19.054688 C 19.027344 19.234375 19.289062 19.628906 19.75 19.730469 C 19.988281 19.78125 20.136719 19.722656 20.273438 19.554688 C 20.433594 19.359375 20.429688 19.121094 20.433594 18.882812 C 20.4375 18.535156 20.488281 18.207031 20.753906 17.933594 C 20.847656 17.839844 20.917969 17.644531 20.886719 17.527344 C 20.820312 17.292969 20.722656 17.042969 20.558594 16.871094 C 20.160156 16.445312 19.65625 16.292969 19.054688 16.359375 C 18.261719 16.449219 17.582031 16.722656 17.03125 17.347656 C 17.027344 17.363281 17.019531 17.378906 17.015625 17.394531 C 17.039062 17.386719 17.066406 17.375 17.132812 17.359375 M 16.710938 4.019531 C 15.878906 3.75 15.035156 3.710938 14.199219 3.957031 C 13.289062 4.226562 12.550781 4.761719 12.007812 5.550781 C 11.585938 6.164062 11.34375 6.847656 11.3125 7.585938 C 11.277344 8.414062 11.304688 9.246094 11.304688 10.078125 C 11.304688 10.136719 11.3125 10.195312 11.316406 10.238281 C 14.023438 10.238281 16.707031 10.238281 19.347656 10.238281 C 19.347656 9.257812 19.386719 8.285156 19.332031 7.324219 C 19.304688 6.882812 19.15625 6.425781 18.960938 6.027344 C 18.488281 5.082031 17.746094 4.410156 16.710938 4.019531 M 13.921875 15.714844 C 14.046875 15.964844 14.101562 16.226562 14.058594 16.582031 C 13.902344 16.472656 13.738281 16.414062 13.671875 16.300781 C 13.382812 15.804688 12.917969 15.566406 12.40625 15.390625 C 12.128906 15.296875 11.871094 15.316406 11.640625 15.53125 C 11.582031 15.585938 11.472656 15.609375 11.386719 15.613281 C 11.011719 15.632812 10.980469 15.660156 10.925781 16.023438 C 10.882812 16.308594 10.738281 16.53125 10.503906 16.699219 C 10.230469 16.898438 9.9375 17.078125 9.832031 17.4375 C 9.71875 17.824219 9.671875 18.175781 9.976562 18.511719 C 10.144531 18.703125 10.347656 18.878906 10.390625 19.179688 C 10.417969 19.382812 10.59375 19.578125 10.820312 19.601562 C 11.078125 19.628906 11.347656 19.613281 11.605469 19.570312 C 12.09375 19.496094 12.488281 19.199219 12.914062 18.976562 C 13.148438 18.855469 13.398438 18.804688 13.683594 18.953125 C 13.628906 19.039062 13.597656 19.148438 13.527344 19.199219 C 13.238281 19.394531 12.957031 19.605469 12.644531 19.75 C 12 20.054688 11.425781 20.421875 11.125 21.097656 C 11.011719 21.355469 10.941406 21.648438 11.152344 21.871094 C 11.363281 22.089844 11.429688 22.339844 11.5 22.621094 C 11.683594 23.386719 12.144531 23.664062 12.953125 23.449219 C 13.34375 23.347656 13.730469 23.234375 14.121094 23.484375 C 14.285156 23.589844 14.597656 23.5 14.734375 23.355469 C 15.214844 22.84375 15.332031 22.203125 15.34375 21.539062 C 15.347656 21.226562 15.300781 20.910156 15.25 20.601562 C 15.210938 20.335938 15.132812 20.074219 15.070312 19.8125 C 15.050781 19.8125 15.027344 19.816406 15.003906 19.816406 C 14.980469 19.957031 14.964844 20.101562 14.921875 20.234375 C 14.847656 20.46875 14.765625 20.707031 14.660156 20.929688 C 14.628906 20.996094 14.515625 21.027344 14.441406 21.070312 C 14.414062 20.996094 14.378906 20.921875 14.363281 20.84375 C 14.351562 20.773438 14.363281 20.699219 14.363281 20.625 C 14.175781 20.980469 14.023438 21.351562 13.640625 21.574219 C 13.484375 21.15625 13.710938 20.792969 13.714844 20.410156 C 13.203125 20.769531 12.761719 21.203125 12.1875 21.542969 C 12.335938 20.726562 12.804688 20.207031 13.371094 19.757812 C 13.699219 19.496094 14.035156 19.246094 14.359375 18.996094 C 13.632812 18.375 12.804688 18.457031 11.917969 18.632812 C 12.273438 18.167969 12.707031 17.972656 13.277344 17.902344 C 13.101562 17.726562 12.96875 17.566406 12.808594 17.433594 C 12.65625 17.308594 12.480469 17.210938 12.292969 17.085938 C 12.960938 16.738281 13.867188 17.09375 14.660156 17.992188 C 14.882812 16.886719 14.546875 15.867188 14.375 14.800781 C 14.863281 14.933594 15.039062 15.34375 15.246094 15.722656 C 15.265625 15.722656 15.289062 15.722656 15.3125 15.722656 C 15.402344 15.34375 15.488281 14.96875 15.585938 14.570312 C 15.761719 14.679688 15.84375 14.878906 15.859375 15.0625 C 15.886719 15.445312 15.867188 15.828125 15.867188 16.210938 C 15.867188 16.28125 15.875 16.351562 15.878906 16.417969 C 16.007812 16.292969 16.070312 16.160156 16.152344 16.035156 C 16.273438 15.851562 16.375 15.636719 16.539062 15.503906 C 16.902344 15.210938 17.085938 14.871094 16.996094 14.402344 C 16.851562 13.648438 16.386719 13.101562 15.804688 12.660156 C 15.421875 12.371094 14.675781 12.542969 14.277344 12.957031 C 14.109375 13.132812 13.945312 13.175781 13.707031 13.164062 C 13.136719 13.136719 12.824219 13.523438 12.996094 14.046875 C 13.191406 14.652344 13.5625 15.160156 13.921875 15.714844 M 16.054688 21.199219 C 16.070312 21.351562 16.113281 21.507812 16.097656 21.65625 C 16.058594 21.996094 16.003906 22.335938 15.9375 22.671875 C 15.878906 22.949219 16.03125 23.371094 16.273438 23.527344 C 16.65625 23.78125 17.113281 23.746094 17.429688 23.539062 C 17.527344 23.476562 17.65625 23.425781 17.765625 23.433594 C 17.941406 23.449219 18.113281 23.53125 18.289062 23.566406 C 18.738281 23.648438 19.164062 23.28125 19.15625 22.8125 C 19.152344 22.542969 19.222656 22.316406 19.433594 22.136719 C 19.492188 22.085938 19.558594 22.007812 19.574219 21.933594 C 19.675781 21.433594 19.625 20.957031 19.332031 20.515625 C 19.050781 20.089844 18.632812 19.875 18.175781 19.710938 C 17.632812 19.519531 17.082031 19.390625 16.441406 19.378906 C 16.882812 19.566406 17.246094 19.773438 17.496094 20.105469 C 17.660156 20.324219 17.765625 20.589844 17.882812 20.839844 C 17.90625 20.894531 17.855469 20.980469 17.835938 21.054688 C 17.773438 21.03125 17.695312 21.027344 17.644531 20.988281 C 17.507812 20.886719 17.390625 20.761719 17.257812 20.65625 C 17.09375 20.53125 16.921875 20.417969 16.777344 20.3125 C 16.8125 20.71875 16.847656 21.101562 16.878906 21.488281 C 16.84375 21.5 16.808594 21.515625 16.773438 21.527344 C 16.496094 21.148438 16.214844 20.765625 15.9375 20.386719 C 15.914062 20.402344 15.886719 20.414062 15.863281 20.429688 C 15.925781 20.671875 15.992188 20.914062 16.054688 21.199219 M 15.492188 17.90625 C 15.402344 18.089844 15.296875 18.265625 15.226562 18.453125 C 15.199219 18.527344 15.246094 18.632812 15.261719 18.722656 C 15.347656 18.707031 15.464844 18.71875 15.511719 18.664062 C 15.644531 18.515625 15.78125 18.351562 15.863281 18.167969 C 16.1875 17.433594 16.578125 16.746094 17.132812 16.160156 C 17.265625 16.019531 17.375 15.859375 17.492188 15.710938 C 17.476562 15.695312 17.457031 15.679688 17.4375 15.664062 C 17.304688 15.769531 17.144531 15.855469 17.035156 15.984375 C 16.519531 16.609375 16.019531 17.246094 15.492188 17.90625 M 18.921875 13.878906 C 18.925781 13.613281 18.8125 13.484375 18.648438 13.578125 C 18.578125 13.613281 18.519531 13.71875 18.511719 13.800781 C 18.503906 13.855469 18.582031 13.96875 18.632812 13.976562 C 18.71875 13.988281 18.816406 13.941406 18.921875 13.878906 M 19.496094 14.832031 C 19.480469 14.851562 19.453125 14.863281 19.449219 14.882812 C 19.421875 14.972656 19.359375 15.09375 19.394531 15.152344 C 19.4375 15.222656 19.566406 15.238281 19.65625 15.277344 C 19.695312 15.179688 19.769531 15.074219 19.757812 14.980469 C 19.746094 14.917969 19.609375 14.871094 19.496094 14.832031 M 18.546875 15.5 C 18.578125 15.636719 18.679688 15.695312 18.800781 15.660156 C 18.867188 15.640625 18.957031 15.554688 18.957031 15.496094 C 18.957031 15.421875 18.898438 15.3125 18.832031 15.277344 C 18.65625 15.183594 18.605469 15.339844 18.546875 15.5 M 18.144531 14.394531 C 18.046875 14.398438 17.929688 14.378906 17.863281 14.425781 C 17.824219 14.449219 17.835938 14.617188 17.882812 14.675781 C 17.917969 14.71875 18.058594 14.722656 18.125 14.6875 C 18.230469 14.636719 18.269531 14.527344 18.144531 14.394531 M 19.726562 13.996094 C 19.644531 13.984375 19.535156 13.933594 19.488281 13.96875 C 19.433594 14.003906 19.402344 14.132812 19.425781 14.199219 C 19.445312 14.257812 19.5625 14.339844 19.613281 14.324219 C 19.757812 14.289062 19.800781 14.167969 19.726562 13.996094 Z M 19.726562 13.996094 " fill-opacity="1" fill-rule="nonzero"/></g><path fill="none" d="M 16.722656 4.03125 C 17.746094 4.410156 18.488281 5.082031 18.960938 6.027344 C 19.15625 6.425781 19.304688 6.882812 19.332031 7.324219 C 19.386719 8.285156 19.347656 9.257812 19.347656 10.238281 C 16.707031 10.238281 14.023438 10.238281 11.316406 10.238281 C 11.3125 10.195312 11.304688 10.136719 11.304688 10.078125 C 11.304688 9.246094 11.277344 8.414062 11.3125 7.585938 C 11.34375 6.847656 11.585938 6.164062 12.007812 5.550781 C 12.550781 4.761719 13.289062 4.226562 14.199219 3.957031 C 15.035156 3.710938 15.878906 3.75 16.722656 4.03125 Z M 16.722656 4.03125 " fill-opacity="1" fill-rule="nonzero"/><path fill="none" d="M 13.90625 15.703125 C 13.5625 15.160156 13.191406 14.652344 12.996094 14.046875 C 12.824219 13.523438 13.136719 13.136719 13.707031 13.164062 C 13.945312 13.175781 14.109375 13.132812 14.277344 12.957031 C 14.675781 12.542969 15.421875 12.371094 15.804688 12.660156 C 16.386719 13.101562 16.851562 13.648438 16.996094 14.402344 C 17.085938 14.871094 16.902344 15.210938 16.539062 15.503906 C 16.375 15.636719 16.273438 15.851562 16.152344 16.035156 C 16.070312 16.160156 16.007812 16.292969 15.878906 16.417969 C 15.875 16.351562 15.867188 16.28125 15.867188 16.210938 C 15.867188 15.828125 15.886719 15.445312 15.859375 15.0625 C 15.84375 14.878906 15.761719 14.679688 15.585938 14.570312 C 15.488281 14.96875 15.402344 15.34375 15.3125 15.722656 C 15.289062 15.722656 15.265625 15.722656 15.246094 15.722656 C 15.039062 15.34375 14.863281 14.933594 14.375 14.800781 C 14.546875 15.867188 14.882812 16.886719 14.660156 17.992188 C 13.867188 17.09375 12.960938 16.738281 12.292969 17.085938 C 12.480469 17.210938 12.65625 17.308594 12.808594 17.433594 C 12.96875 17.566406 13.101562 17.726562 13.277344 17.902344 C 12.707031 17.972656 12.273438 18.167969 11.917969 18.632812 C 12.804688 18.457031 13.632812 18.375 14.359375 18.996094 C 14.035156 19.246094 13.699219 19.496094 13.371094 19.757812 C 12.804688 20.207031 12.335938 20.726562 12.1875 21.542969 C 12.761719 21.203125 13.203125 20.769531 13.714844 20.410156 C 13.710938 20.792969 13.484375 21.15625 13.640625 21.574219 C 14.023438 21.351562 14.175781 20.980469 14.363281 20.625 C 14.363281 20.699219 14.351562 20.773438 14.363281 20.84375 C 14.378906 20.921875 14.414062 20.996094 14.441406 21.070312 C 14.515625 21.027344 14.628906 20.996094 14.660156 20.929688 C 14.765625 20.707031 14.847656 20.46875 14.921875 20.234375 C 14.964844 20.101562 14.980469 19.957031 15.003906 19.816406 C 15.027344 19.816406 15.050781 19.8125 15.070312 19.8125 C 15.132812 20.074219 15.210938 20.335938 15.25 20.601562 C 15.300781 20.910156 15.347656 21.226562 15.34375 21.539062 C 15.332031 22.203125 15.214844 22.84375 14.734375 23.355469 C 14.597656 23.5 14.285156 23.589844 14.121094 23.484375 C 13.730469 23.234375 13.34375 23.347656 12.953125 23.449219 C 12.144531 23.664062 11.683594 23.386719 11.5 22.621094 C 11.429688 22.339844 11.363281 22.089844 11.152344 21.871094 C 10.941406 21.648438 11.011719 21.355469 11.125 21.097656 C 11.425781 20.421875 12 20.054688 12.644531 19.75 C 12.957031 19.605469 13.238281 19.394531 13.527344 19.199219 C 13.597656 19.148438 13.628906 19.039062 13.683594 18.953125 C 13.398438 18.804688 13.148438 18.855469 12.914062 18.976562 C 12.488281 19.199219 12.09375 19.496094 11.605469 19.570312 C 11.347656 19.613281 11.078125 19.628906 10.820312 19.601562 C 10.59375 19.578125 10.417969 19.382812 10.390625 19.179688 C 10.347656 18.878906 10.144531 18.703125 9.976562 18.511719 C 9.671875 18.175781 9.71875 17.824219 9.832031 17.4375 C 9.9375 17.078125 10.230469 16.898438 10.503906 16.699219 C 10.738281 16.53125 10.882812 16.308594 10.925781 16.023438 C 10.980469 15.660156 11.011719 15.632812 11.386719 15.613281 C 11.472656 15.609375 11.582031 15.585938 11.640625 15.53125 C 11.871094 15.316406 12.128906 15.296875 12.40625 15.390625 C 12.917969 15.566406 13.382812 15.804688 13.671875 16.300781 C 13.738281 16.414062 13.902344 16.472656 14.058594 16.582031 C 14.101562 16.226562 14.046875 15.964844 13.90625 15.703125 Z M 13.90625 15.703125 " fill-opacity="1" fill-rule="nonzero"/><path fill="none" d="M 16.054688 21.179688 C 15.992188 20.914062 15.925781 20.671875 15.863281 20.429688 C 15.886719 20.414062 15.914062 20.402344 15.9375 20.386719 C 16.214844 20.765625 16.496094 21.148438 16.773438 21.527344 C 16.808594 21.515625 16.84375 21.5 16.878906 21.488281 C 16.847656 21.101562 16.8125 20.71875 16.777344 20.3125 C 16.921875 20.417969 17.09375 20.53125 17.257812 20.65625 C 17.390625 20.761719 17.507812 20.886719 17.644531 20.988281 C 17.695312 21.027344 17.773438 21.03125 17.835938 21.054688 C 17.855469 20.980469 17.90625 20.894531 17.882812 20.839844 C 17.765625 20.589844 17.660156 20.324219 17.496094 20.105469 C 17.246094 19.773438 16.882812 19.566406 16.441406 19.378906 C 17.082031 19.390625 17.632812 19.519531 18.175781 19.710938 C 18.632812 19.875 19.050781 20.089844 19.332031 20.515625 C 19.625 20.957031 19.675781 21.433594 19.574219 21.933594 C 19.558594 22.007812 19.492188 22.085938 19.433594 22.136719 C 19.222656 22.316406 19.152344 22.542969 19.15625 22.8125 C 19.164062 23.28125 18.738281 23.648438 18.289062 23.566406 C 18.113281 23.53125 17.941406 23.449219 17.765625 23.433594 C 17.65625 23.425781 17.527344 23.476562 17.429688 23.539062 C 17.113281 23.746094 16.65625 23.78125 16.273438 23.527344 C 16.03125 23.371094 15.878906 22.949219 15.9375 22.671875 C 16.003906 22.335938 16.058594 21.996094 16.097656 21.65625 C 16.113281 21.507812 16.070312 21.351562 16.054688 21.179688 Z M 16.054688 21.179688 " fill-opacity="1" fill-rule="nonzero"/><path fill="none" d="M 17.054688 17.332031 C 17.582031 16.722656 18.261719 16.449219 19.054688 16.359375 C 19.65625 16.292969 20.160156 16.445312 20.558594 16.871094 C 20.722656 17.042969 20.820312 17.292969 20.886719 17.527344 C 20.917969 17.644531 20.847656 17.839844 20.753906 17.933594 C 20.488281 18.207031 20.4375 18.535156 20.433594 18.882812 C 20.429688 19.121094 20.433594 19.359375 20.273438 19.554688 C 20.136719 19.722656 19.988281 19.78125 19.75 19.730469 C 19.289062 19.628906 19.027344 19.234375 18.628906 19.054688 C 18.277344 18.894531 17.914062 18.734375 17.539062 18.640625 C 17.191406 18.550781 16.824219 18.546875 16.398438 18.5 C 17.324219 18.179688 18.207031 17.871094 19.085938 17.566406 C 19.082031 17.535156 19.078125 17.503906 19.074219 17.472656 C 18.960938 17.433594 18.84375 17.371094 18.726562 17.359375 C 18.417969 17.332031 18.109375 17.316406 17.800781 17.3125 C 17.578125 17.3125 17.355469 17.34375 17.105469 17.351562 C 17.066406 17.339844 17.058594 17.335938 17.054688 17.332031 Z M 17.054688 17.332031 " fill-opacity="1" fill-rule="nonzero"/><path fill="none" d="M 15.5 17.890625 C 16.019531 17.246094 16.519531 16.609375 17.035156 15.984375 C 17.144531 15.855469 17.304688 15.769531 17.4375 15.664062 C 17.457031 15.679688 17.476562 15.695312 17.492188 15.710938 C 17.375 15.859375 17.265625 16.019531 17.132812 16.160156 C 16.578125 16.746094 16.1875 17.433594 15.863281 18.167969 C 15.78125 18.351562 15.644531 18.515625 15.511719 18.664062 C 15.464844 18.71875 15.347656 18.707031 15.261719 18.722656 C 15.246094 18.632812 15.199219 18.527344 15.226562 18.453125 C 15.296875 18.265625 15.402344 18.089844 15.5 17.890625 Z M 15.5 17.890625 " fill-opacity="1" fill-rule="nonzero"/><path fill="none" d="M 18.917969 13.898438 C 18.816406 13.941406 18.71875 13.988281 18.632812 13.976562 C 18.582031 13.96875 18.503906 13.855469 18.511719 13.800781 C 18.519531 13.71875 18.578125 13.613281 18.648438 13.578125 C 18.8125 13.484375 18.925781 13.613281 18.917969 13.898438 Z M 18.917969 13.898438 " fill-opacity="1" fill-rule="nonzero"/><path fill="none" d="M 19.511719 14.828125 C 19.609375 14.871094 19.746094 14.917969 19.757812 14.980469 C 19.769531 15.074219 19.695312 15.179688 19.65625 15.277344 C 19.566406 15.238281 19.4375 15.222656 19.394531 15.152344 C 19.359375 15.09375 19.421875 14.972656 19.449219 14.882812 C 19.453125 14.863281 19.480469 14.851562 19.511719 14.828125 Z M 19.511719 14.828125 " fill-opacity="1" fill-rule="nonzero"/><path fill="none" d="M 18.546875 15.480469 C 18.605469 15.339844 18.65625 15.183594 18.832031 15.277344 C 18.898438 15.3125 18.957031 15.421875 18.957031 15.496094 C 18.957031 15.554688 18.867188 15.640625 18.800781 15.660156 C 18.679688 15.695312 18.578125 15.636719 18.546875 15.480469 Z M 18.546875 15.480469 " fill-opacity="1" fill-rule="nonzero"/><path fill="none" d="M 18.160156 14.40625 C 18.269531 14.527344 18.230469 14.636719 18.125 14.6875 C 18.058594 14.722656 17.917969 14.71875 17.882812 14.675781 C 17.835938 14.617188 17.824219 14.449219 17.863281 14.425781 C 17.929688 14.378906 18.046875 14.398438 18.160156 14.40625 Z M 18.160156 14.40625 " fill-opacity="1" fill-rule="nonzero"/><path fill="none" d="M 19.738281 14.011719 C 19.800781 14.167969 19.757812 14.289062 19.613281 14.324219 C 19.5625 14.339844 19.445312 14.257812 19.425781 14.199219 C 19.402344 14.132812 19.433594 14.003906 19.488281 13.96875 C 19.535156 13.933594 19.644531 13.984375 19.738281 14.011719 Z M 19.738281 14.011719 " fill-opacity="1" fill-rule="nonzero"/><path fill="none" d="M 17.082031 17.355469 C 17.066406 17.375 17.039062 17.386719 17.015625 17.394531 C 17.019531 17.378906 17.027344 17.363281 17.042969 17.339844 C 17.058594 17.335938 17.066406 17.339844 17.082031 17.355469 Z M 17.082031 17.355469 " fill-opacity="1" fill-rule="nonzero"/><g fill="#88d2ff" fill-opacity="1"><g transform="translate(28.796232, 23.080151)"><g><path d="M 16.4375 -11.96875 C 17.90625 -11.96875 19.070312 -11.519531 19.9375 -10.625 C 20.8125 -9.738281 21.25 -8.503906 21.25 -6.921875 L 21.25 0 L 17.640625 0 L 17.640625 -6.4375 C 17.640625 -7.195312 17.4375 -7.785156 17.03125 -8.203125 C 16.632812 -8.617188 16.082031 -8.828125 15.375 -8.828125 C 14.664062 -8.828125 14.109375 -8.617188 13.703125 -8.203125 C 13.296875 -7.785156 13.09375 -7.195312 13.09375 -6.4375 L 13.09375 0 L 9.484375 0 L 9.484375 -6.4375 C 9.484375 -7.195312 9.28125 -7.785156 8.875 -8.203125 C 8.476562 -8.617188 7.925781 -8.828125 7.21875 -8.828125 C 6.507812 -8.828125 5.953125 -8.617188 5.546875 -8.203125 C 5.148438 -7.785156 4.953125 -7.195312 4.953125 -6.4375 L 4.953125 0 L 1.3125 0 L 1.3125 -11.84375 L 4.953125 -11.84375 L 4.953125 -10.359375 C 5.316406 -10.859375 5.796875 -11.25 6.390625 -11.53125 C 6.984375 -11.820312 7.65625 -11.96875 8.40625 -11.96875 C 9.300781 -11.96875 10.097656 -11.773438 10.796875 -11.390625 C 11.492188 -11.015625 12.039062 -10.472656 12.4375 -9.765625 C 12.851562 -10.421875 13.414062 -10.953125 14.125 -11.359375 C 14.832031 -11.765625 15.601562 -11.96875 16.4375 -11.96875 Z M 16.4375 -11.96875 "/></g></g></g><g fill="#88d2ff" fill-opacity="1"><g transform="translate(51.45099, 23.080151)"><g><path d="M 13.421875 -11.84375 L 5.984375 5.625 L 2.078125 5.625 L 4.796875 -0.40625 L -0.015625 -11.84375 L 4.03125 -11.84375 L 6.78125 -4.4375 L 9.484375 -11.84375 Z M 13.421875 -11.84375 "/></g></g></g><g fill="#455469" fill-opacity="1"><g transform="translate(65.04369, 23.080151)"><g><path d="M 14.234375 -14.90625 L 14.234375 0 L 10.59375 0 L 10.59375 -6.140625 L 4.953125 -6.140625 L 4.953125 0 L 1.3125 0 L 1.3125 -14.90625 L 4.953125 -14.90625 L 4.953125 -9.0625 L 10.59375 -9.0625 L 10.59375 -14.90625 Z M 14.234375 -14.90625 "/></g></g></g><g fill="#455469" fill-opacity="1"><g transform="translate(80.734298, 23.080151)"><g><path d="M 10.59375 -2.640625 L 5.03125 -2.640625 L 4.140625 0 L 0.34375 0 L 5.734375 -14.90625 L 9.9375 -14.90625 L 15.328125 0 L 11.484375 0 Z M 9.65625 -5.4375 L 7.8125 -10.890625 L 5.984375 -5.4375 Z M 9.65625 -5.4375 "/></g></g></g><g fill="#455469" fill-opacity="1"><g transform="translate(96.552309, 23.080151)"><g><path d="M 21.828125 -14.90625 L 17.9375 0 L 13.546875 0 L 11.171875 -9.8125 L 8.703125 0 L 4.3125 0 L 0.53125 -14.90625 L 4.421875 -14.90625 L 6.5625 -4.0625 L 9.21875 -14.90625 L 13.203125 -14.90625 L 15.75 -4.0625 L 17.921875 -14.90625 Z M 21.828125 -14.90625 "/></g></g></g><g fill="#455469" fill-opacity="1"><g transform="translate(119.058434, 23.080151)"><g><path d="M 10.59375 -2.640625 L 5.03125 -2.640625 L 4.140625 0 L 0.34375 0 L 5.734375 -14.90625 L 9.9375 -14.90625 L 15.328125 0 L 11.484375 0 Z M 9.65625 -5.4375 L 7.8125 -10.890625 L 5.984375 -5.4375 Z M 9.65625 -5.4375 "/></g></g></g><g fill="#455469" fill-opacity="1"><g transform="translate(134.876443, 23.080151)"><g><path d="M 4.953125 -14.90625 L 4.953125 0 L 1.3125 0 L 1.3125 -14.90625 Z M 4.953125 -14.90625 "/></g></g></g><g fill="#455469" fill-opacity="1"><g transform="translate(141.309847, 23.080151)"><g><path d="M 4.953125 -14.90625 L 4.953125 0 L 1.3125 0 L 1.3125 -14.90625 Z M 4.953125 -14.90625 "/></g></g></g></svg>